<svg width="340" height="132" xmlns="http://www.w3.org/2000/svg" xmlns:xlink="http://www.w3.org/1999/xlink" overflow="hidden"><defs><clipPath id="clip0"><rect x="0" y="0" width="340" height="132"/></clipPath></defs><g clip-path="url(#clip0)"><rect x="0" y="0" width="340" height="131.732" fill="#FFFFFF"/><rect x="239" y="10.9776" width="89" height="42.9127" stroke="#000000" stroke-width="1.99902" stroke-miterlimit="8" stroke-dasharray="1.99902 1.99902" fill="none"/><text font-family="Yu Gothic,Yu Gothic_MSFontService,sans-serif" font-weight="400" font-size="14.6297" transform="matrix(1 0 0 0.99797 254.57 29)">バナッハ</text><text font-family="Yu Gothic,Yu Gothic_MSFontService,sans-serif" font-weight="400" font-size="14.6297" transform="matrix(1 0 0 0.99797 269.229 46)">空間</text><rect x="12" y="10.9776" width="89" height="42.9127" stroke="#000000" stroke-width="1.99902" stroke-miterlimit="8" stroke-dasharray="1.99902 1.99902" fill="none"/><text font-family="Yu Gothic,Yu Gothic_MSFontService,sans-serif" font-weight="400" font-size="14.6297" transform="matrix(1 0 0 0.99797 19.4629 29)">ノルム付き</text><text font-family="Yu Gothic,Yu Gothic_MSFontService,sans-serif" font-weight="400" font-size="14.6297" transform="matrix(1 0 0 0.99797 12.1332 46)">ベクトル</text><text font-family="Yu Gothic,Yu Gothic_MSFontService,sans-serif" font-weight="400" font-size="14.6297" transform="matrix(1 0 0 0.99797 70.7711 46)">空間</text><path d="M101 29.94 229.575 29.9401 229.575 33.9301 101 33.93ZM227.575 25.9502 239.57 31.9351 227.575 37.92Z" fill="#00B050"/><text font-family="Yu Gothic,Yu Gothic_MSFontService,sans-serif" font-weight="400" font-size="14.6297" transform="matrix(1 0 0 0.99797 146.02 51)">完備化</text><rect x="239" y="70.8559" width="89" height="41.9147" stroke="#000000" stroke-width="1.99902" stroke-miterlimit="8" stroke-dasharray="1.99902 1.99902" fill="none"/><text font-family="Yu Gothic,Yu Gothic_MSFontService,sans-serif" font-weight="400" font-size="14.6297" transform="matrix(1 0 0 0.99797 247.24 88)">ヒルベルト</text><text font-family="Yu Gothic,Yu Gothic_MSFontService,sans-serif" font-weight="400" font-size="14.6297" transform="matrix(1 0 0 0.99797 269.229 105)">空間</text><rect x="12" y="70.8559" width="89" height="41.9147" stroke="#000000" stroke-width="1.99902" stroke-miterlimit="8" stroke-dasharray="1.99902 1.99902" fill="none"/><text font-family="Yu Gothic,Yu Gothic_MSFontService,sans-serif" font-weight="400" font-size="14.6297" transform="matrix(1 0 0 0.99797 26.7929 88)">内積</text><text font-family="Yu Gothic,Yu Gothic_MSFontService,sans-serif" font-weight="400" font-size="14.6297" transform="matrix(1 0 0 0.99797 56.1119 88)">空間</text><text font-family="Calibri,Calibri_MSFontService,sans-serif" font-weight="400" font-size="14.6297" transform="matrix(1 0 0 0.99797 18.6302 105)">(</text><text font-family="Yu Gothic,Yu Gothic_MSFontService,sans-serif" font-weight="400" font-size="14.6297" transform="matrix(1 0 0 0.99797 23.128 105)">ｴﾙﾐｰﾄ</text><text font-family="Yu Gothic,Yu Gothic_MSFontService,sans-serif" font-weight="400" font-size="14.6297" transform="matrix(1 0 0 0.99797 59.7767 105)">空間</text><text font-family="Calibri,Calibri_MSFontService,sans-serif" font-weight="400" font-size="14.6297" transform="matrix(1 0 0 0.99797 89.0957 105)">)</text><path d="M101 89.8183 229.575 89.8184 229.575 93.8083 101 93.8083ZM227.575 85.8285 239.57 91.8134 227.575 97.7983Z" fill="#00B050"/><text font-family="Yu Gothic,Yu Gothic_MSFontService,sans-serif" font-weight="400" font-size="14.6297" transform="matrix(1 0 0 0.99797 146.02 110)">完備化</text></g></svg>