<svg width="586" height="416" xmlns="http://www.w3.org/2000/svg" xmlns:xlink="http://www.w3.org/1999/xlink" overflow="hidden"><defs><clipPath id="clip0"><rect x="0" y="0" width="586" height="416"/></clipPath></defs><g clip-path="url(#clip0)"><rect x="0" y="0" width="586" height="416.215" fill="#FFFFFF"/><rect x="244" y="12.0062" width="90" height="43.0223" stroke="#000000" stroke-width="2.00057" stroke-miterlimit="8" stroke-dasharray="2.00057 2.00057" fill="none"/><text font-family="Yu Gothic,Yu Gothic_MSFontService,sans-serif" font-weight="400" font-size="14.6784" transform="matrix(1 0 0 1.00052 259.648 38)">測度空間</text><rect x="16" y="12.0062" width="90" height="43.0223" stroke="#000000" stroke-width="2.00057" stroke-miterlimit="8" stroke-dasharray="2.00057 2.00057" fill="none"/><text font-family="Yu Gothic,Yu Gothic_MSFontService,sans-serif" font-weight="400" font-size="14.6784" transform="matrix(1 0 0 1.00052 46.365 38)">集合</text><path d="M106 31.0155 234.674 31.0156 234.674 35.0188 106 35.0187ZM232.674 27.0124 244.677 33.0172 232.674 39.022Z" fill="#4472C4"/><text font-family="Calibri,Calibri_MSFontService,sans-serif" font-weight="400" font-size="14.6784" transform="matrix(1 0 0 1.00052 132.675 52)">+</text><text font-family="Yu Gothic,Yu Gothic_MSFontService,sans-serif" font-weight="400" font-size="14.6784" transform="matrix(1 0 0 1.00052 143.345 52)">測度</text><text font-family="Calibri,Calibri_MSFontService,sans-serif" font-weight="400" font-size="14.6784" transform="matrix(1 0 0 1.00052 132.675 69)">+</text><text font-family="Yu Gothic,Yu Gothic_MSFontService,sans-serif" font-weight="400" font-size="14.6784" transform="matrix(1 0 0 1.00052 140.011 69)">可測集合族</text><rect x="244" y="70.0362" width="90" height="43.0223" stroke="#000000" stroke-width="2.00057" stroke-miterlimit="8" stroke-dasharray="2.00057 2.00057" fill="none"/><text font-family="Yu Gothic,Yu Gothic_MSFontService,sans-serif" font-weight="400" font-size="14.6784" transform="matrix(1 0 0 1.00052 259.648 97)">位相</text><text font-family="Yu Gothic,Yu Gothic_MSFontService,sans-serif" font-weight="400" font-size="14.6784" transform="matrix(1 0 0 1.00052 288.989 97)">空間</text><rect x="16" y="70.0362" width="90" height="43.0223" stroke="#000000" stroke-width="2.00057" stroke-miterlimit="8" stroke-dasharray="2.00057 2.00057" fill="none"/><text font-family="Yu Gothic,Yu Gothic_MSFontService,sans-serif" font-weight="400" font-size="14.6784" transform="matrix(1 0 0 1.00052 46.365 97)">集合</text><path d="M106 89.0454 234.674 89.0455 234.674 93.0487 106 93.0486ZM232.674 85.0423 244.677 91.0471 232.674 97.0519Z" fill="#4472C4"/><text font-family="Calibri,Calibri_MSFontService,sans-serif" font-weight="400" font-size="14.6784" transform="matrix(1 0 0 1.00052 132.675 110)">+</text><text font-family="Yu Gothic,Yu Gothic_MSFontService,sans-serif" font-weight="400" font-size="14.6784" transform="matrix(1 0 0 1.00052 143.345 110)">位相</text><rect x="246" y="128.066" width="88.9999" height="43.0223" stroke="#000000" stroke-width="2.00057" stroke-miterlimit="8" stroke-dasharray="2.00057 2.00057" fill="none"/><text font-family="Yu Gothic,Yu Gothic_MSFontService,sans-serif" font-weight="400" font-size="14.6784" transform="matrix(1 0 0 1.00052 261.019 155)">距離</text><text font-family="Yu Gothic,Yu Gothic_MSFontService,sans-serif" font-weight="400" font-size="14.6784" transform="matrix(1 0 0 1.00052 290.361 155)">空間</text><rect x="18" y="128.066" width="89" height="43.0223" stroke="#000000" stroke-width="2.00057" stroke-miterlimit="8" stroke-dasharray="2.00057 2.00057" fill="none"/><text font-family="Yu Gothic,Yu Gothic_MSFontService,sans-serif" font-weight="400" font-size="14.6784" transform="matrix(1 0 0 1.00052 47.7365 155)">集合</text><path d="M107 148.076 235.674 148.076 235.674 152.079 107 152.079ZM233.673 144.073 245.677 150.078 233.673 156.083Z" fill="#4472C4"/><text font-family="Calibri,Calibri_MSFontService,sans-serif" font-weight="400" font-size="14.6784" transform="matrix(1 0 0 1.00052 134.047 168)">+</text><text font-family="Yu Gothic,Yu Gothic_MSFontService,sans-serif" font-weight="400" font-size="14.6784" transform="matrix(1 0 0 1.00052 144.717 168)">距離</text><rect x="246" y="280.145" width="88.9999" height="43.0223" stroke="#000000" stroke-width="2.00057" stroke-miterlimit="8" stroke-dasharray="2.00057 2.00057" fill="none"/><text font-family="Yu Gothic,Yu Gothic_MSFontService,sans-serif" font-weight="400" font-size="14.6784" transform="matrix(1 0 0 1.00052 268.811 307)">マグマ</text><rect x="18" y="280.145" width="90" height="43.0223" stroke="#000000" stroke-width="2.00057" stroke-miterlimit="8" stroke-dasharray="2.00057 2.00057" fill="none"/><text font-family="Yu Gothic,Yu Gothic_MSFontService,sans-serif" font-weight="400" font-size="14.6784" transform="matrix(1 0 0 1.00052 48.1934 307)">集合</text><path d="M108 300.155 236.674 300.155 236.674 304.158 108 304.158ZM234.673 296.151 246.677 302.156 234.673 308.161Z" fill="#4472C4"/><text font-family="Calibri,Calibri_MSFontService,sans-serif" font-weight="400" font-size="14.6784" transform="matrix(1 0 0 1.00052 134.504 321)">+</text><text font-family="Yu Gothic,Yu Gothic_MSFontService,sans-serif" font-weight="400" font-size="14.6784" transform="matrix(1 0 0 1.00052 145.174 321)">二項演算</text><rect x="246" y="187.097" width="88.9999" height="43.0223" stroke="#000000" stroke-width="2.00057" stroke-miterlimit="8" stroke-dasharray="2.00057 2.00057" fill="none"/><text font-family="Yu Gothic,Yu Gothic_MSFontService,sans-serif" font-weight="400" font-size="14.6784" transform="matrix(1 0 0 1.00052 261.476 205)">ベクトル</text><text font-family="Yu Gothic,Yu Gothic_MSFontService,sans-serif" font-weight="400" font-size="14.6784" transform="matrix(1 0 0 1.00052 276.147 222)">空間</text><rect x="18" y="187.097" width="90" height="43.0223" stroke="#000000" stroke-width="2.00057" stroke-miterlimit="8" stroke-dasharray="2.00057 2.00057" fill="none"/><text font-family="Yu Gothic,Yu Gothic_MSFontService,sans-serif" font-weight="400" font-size="14.6784" transform="matrix(1 0 0 1.00052 48.1933 214)">集合</text><path d="M108 207.107 236.674 207.107 236.674 211.11 108 211.11ZM234.673 203.103 246.677 209.108 234.673 215.113Z" fill="#4472C4"/><text font-family="Calibri,Calibri_MSFontService,sans-serif" font-weight="400" font-size="14.6784" transform="matrix(1 0 0 1.00052 134.504 227)">+</text><text font-family="Yu Gothic,Yu Gothic_MSFontService,sans-serif" font-weight="400" font-size="14.6784" transform="matrix(1 0 0 1.00052 145.173 227)">体</text><text font-family="Calibri,Calibri_MSFontService,sans-serif" font-weight="400" font-size="14.6784" transform="matrix(1 0 0 1.00052 159.844 227)">(</text><text font-family="Yu Gothic,Yu Gothic_MSFontService,sans-serif" font-weight="400" font-size="14.6784" transform="matrix(1 0 0 1.00052 164.346 227)">スカラー</text><text font-family="Calibri,Calibri_MSFontService,sans-serif" font-weight="400" font-size="14.6784" transform="matrix(1 0 0 1.00052 223.029 227)">)</text><text font-family="Calibri,Calibri_MSFontService,sans-serif" font-weight="400" font-size="14.6784" transform="matrix(1 0 0 1.00052 134.504 244)">+</text><text font-family="Yu Gothic,Yu Gothic_MSFontService,sans-serif" font-weight="400" font-size="14.6784" transform="matrix(1 0 0 1.00052 145.173 244)">加法</text><text font-family="Calibri,Calibri_MSFontService,sans-serif" font-weight="400" font-size="14.6784" transform="matrix(1 0 0 1.00052 134.504 262)">+</text><text font-family="Yu Gothic,Yu Gothic_MSFontService,sans-serif" font-weight="400" font-size="14.6784" transform="matrix(1 0 0 1.00052 145.173 262)">スカラー倍</text><rect x="472" y="188.097" width="89" height="43.0222" stroke="#000000" stroke-width="2.00057" stroke-miterlimit="8" stroke-dasharray="2.00057 2.00057" fill="none"/><text font-family="Yu Gothic,Yu Gothic_MSFontService,sans-serif" font-weight="400" font-size="14.6784" transform="matrix(1 0 0 1.00052 479.655 206)">ノルム付き</text><text font-family="Yu Gothic,Yu Gothic_MSFontService,sans-serif" font-weight="400" font-size="14.6784" transform="matrix(1 0 0 1.00052 472.32 223)">ベクトル</text><text font-family="Yu Gothic,Yu Gothic_MSFontService,sans-serif" font-weight="400" font-size="14.6784" transform="matrix(1 0 0 1.00052 531.003 223)">空間</text><path d="M335.014 207.107 461.25 208.02 461.221 212.023 334.985 211.11ZM459.279 204.002 471.238 210.093 459.192 216.011Z" fill="#4472C4"/><text font-family="Calibri,Calibri_MSFontService,sans-serif" font-weight="400" font-size="14.6784" transform="matrix(1 0 0 1.00052 388.21 228)">+</text><text font-family="Yu Gothic,Yu Gothic_MSFontService,sans-serif" font-weight="400" font-size="14.6784" transform="matrix(1 0 0 1.00052 398.879 228)">ノルム</text><rect x="472" y="250.129" width="89" height="43.0222" stroke="#000000" stroke-width="2.00057" stroke-miterlimit="8" stroke-dasharray="2.00057 2.00057" fill="none"/><text font-family="Yu Gothic,Yu Gothic_MSFontService,sans-serif" font-weight="400" font-size="14.6784" transform="matrix(1 0 0 1.00052 486.991 277)">内積</text><text font-family="Yu Gothic,Yu Gothic_MSFontService,sans-serif" font-weight="400" font-size="14.6784" transform="matrix(1 0 0 1.00052 516.332 277)">空間</text><path d="M368.001 210.109 368.001 267.138 366 265.137 460.997 265.137 460.997 269.14 363.999 269.14 363.999 210.109ZM458.997 261.133 471 267.138 458.997 273.143Z" fill="#4472C4"/><text font-family="Calibri,Calibri_MSFontService,sans-serif" font-weight="400" font-size="14.6784" transform="matrix(1 0 0 1.00052 387.752 284)">+</text><text font-family="Yu Gothic,Yu Gothic_MSFontService,sans-serif" font-weight="400" font-size="14.6784" transform="matrix(1 0 0 1.00052 398.422 284)">内積</text><rect x="248" y="339.175" width="89" height="42.0217" stroke="#000000" stroke-width="2.00057" stroke-miterlimit="8" stroke-dasharray="2.00057 2.00057" fill="none"/><text font-family="Yu Gothic,Yu Gothic_MSFontService,sans-serif" font-weight="400" font-size="14.6784" transform="matrix(1 0 0 1.00052 284.854 365)">環</text><rect x="20" y="339.175" width="89" height="42.0217" stroke="#000000" stroke-width="2.00057" stroke-miterlimit="8" stroke-dasharray="2.00057 2.00057" fill="none"/><text font-family="Yu Gothic,Yu Gothic_MSFontService,sans-serif" font-weight="400" font-size="14.6784" transform="matrix(1 0 0 1.00052 49.5649 365)">集合</text><path d="M109 358.185 237.674 358.185 237.674 362.188 109 362.188ZM235.674 354.182 247.677 360.186 235.674 366.191Z" fill="#4472C4"/><text font-family="Calibri,Calibri_MSFontService,sans-serif" font-weight="400" font-size="14.6784" transform="matrix(1 0 0 1.00052 135.875 379)">+</text><text font-family="Yu Gothic,Yu Gothic_MSFontService,sans-serif" font-weight="400" font-size="14.6784" transform="matrix(1 0 0 1.00052 146.545 379)">加法</text><text font-family="Calibri,Calibri_MSFontService,sans-serif" font-weight="400" font-size="14.6784" transform="matrix(1 0 0 1.00052 135.875 396)">+</text><text font-family="Yu Gothic,Yu Gothic_MSFontService,sans-serif" font-weight="400" font-size="14.6784" transform="matrix(1 0 0 1.00052 146.545 396)">乗法</text></g></svg>