<svg width="983" height="720" xmlns="http://www.w3.org/2000/svg" xmlns:xlink="http://www.w3.org/1999/xlink" overflow="hidden"><g><rect x="0" y="0" width="983" height="719.756" fill="#FFFFFF"/><rect x="38" y="534.819" width="24.0001" height="23.9918" stroke="#000000" stroke-width="2.00068" stroke-miterlimit="8" stroke-dasharray="2.00068 2.00068" fill="none"/><text font-family="Calibri,Calibri_MSFontService,sans-serif" font-style="italic" font-weight="400" font-size="14.6667" transform="matrix(1 0 0 0.999661 45.5402 552)">A</text><rect x="94" y="534.819" width="24.0001" height="23.9918" stroke="#000000" stroke-width="2.00068" stroke-miterlimit="8" stroke-dasharray="2.00068 2.00068" fill="none"/><text font-family="Calibri,Calibri_MSFontService,sans-serif" font-style="italic" font-weight="400" font-size="14.6667" transform="matrix(1 0 0 0.999661 101.819 552)">B</text><path d="M62.5 545.814 86.945 545.814 86.945 548.814 62.5 548.814ZM85.4445 542.814 94.4476 547.314 85.4445 551.814Z" fill="#FF0000"/><rect x="38" y="592.799" width="24.0001" height="24.9915" stroke="#000000" stroke-width="2.00068" stroke-miterlimit="8" stroke-dasharray="2.00068 2.00068" fill="none"/><text font-family="Calibri,Calibri_MSFontService,sans-serif" font-style="italic" font-weight="400" font-size="14.6667" transform="matrix(1 0 0 0.999661 45.957 610)">C</text><rect x="94" y="592.799" width="24.0001" height="24.9915" stroke="#000000" stroke-width="2.00068" stroke-miterlimit="8" stroke-dasharray="2.00068 2.00068" fill="none"/><text font-family="Calibri,Calibri_MSFontService,sans-serif" font-style="italic" font-weight="400" font-size="14.6667" transform="matrix(1 0 0 0.999661 101.319 610)">D</text><path d="M62.5 604.794 86.945 604.794 86.945 607.794 62.5 607.794ZM85.4445 601.794 94.4476 606.294 85.4445 610.794Z" fill="#0070C0"/><rect x="38" y="649.78" width="24.0001" height="23.9918" stroke="#000000" stroke-width="2.00068" stroke-miterlimit="8" stroke-dasharray="2.00068 2.00068" fill="none"/><text font-family="Calibri,Calibri_MSFontService,sans-serif" font-style="italic" font-weight="400" font-size="14.6667" transform="matrix(1 0 0 0.999661 46.2071 667)">E</text><rect x="94" y="649.78" width="24.0001" height="23.9918" stroke="#000000" stroke-width="2.00068" stroke-miterlimit="8" stroke-dasharray="2.00068 2.00068" fill="none"/><text font-family="Calibri,Calibri_MSFontService,sans-serif" font-style="italic" font-weight="400" font-size="14.6667" transform="matrix(1 0 0 0.999661 102.486 667)">F</text><path d="M62.5 660.775 86.945 660.775 86.945 663.775 62.5 663.775ZM85.4445 657.775 94.4476 662.276 85.4445 666.775Z" fill="#00B050"/><text font-family="Calibri,Calibri_MSFontService,sans-serif" font-style="italic" font-weight="400" font-size="14.6667" transform="matrix(1 0 0 0.999661 70.2783 602)">S</text><text font-family="Calibri,Calibri_MSFontService,sans-serif" font-style="italic" font-weight="400" font-size="14.6667" transform="matrix(1 0 0 0.999661 71.0072 659)">P</text><text fill="#00B050" font-family="Calibri,Calibri_MSFontService,sans-serif" font-style="italic" font-weight="700" font-size="14.6667" transform="matrix(1 0 0 0.999661 45.8168 692)">X</text><text font-family="Yu Gothic,Yu Gothic_MSFontService,sans-serif" font-weight="400" font-size="14.6667" transform="matrix(1 0 0 0.999661 140.482 545)">すべての</text><text font-family="Calibri,Calibri_MSFontService,sans-serif" font-weight="400" font-size="14.6667" transform="matrix(1 0 0 0.999661 199.169 545)">A</text><text font-family="Yu Gothic,Yu Gothic_MSFontService,sans-serif" font-weight="400" font-size="14.6667" transform="matrix(1 0 0 0.999661 207.672 545)">は自然な方法で</text><text font-family="Calibri,Calibri_MSFontService,sans-serif" font-weight="400" font-size="14.6667" transform="matrix(1 0 0 0.999661 310.373 545)">B</text><text font-family="Yu Gothic,Yu Gothic_MSFontService,sans-serif" font-weight="400" font-size="14.6667" transform="matrix(1 0 0 0.999661 318.376 545)">である。</text><text font-family="Yu Gothic,Yu Gothic_MSFontService,sans-serif" font-weight="400" font-size="14.6667" transform="matrix(1 0 0 0.999661 140.482 562)">線に沿った式はその方法を示す。</text><text font-family="Yu Gothic,Yu Gothic_MSFontService,sans-serif" font-weight="400" font-size="14.6667" transform="matrix(1 0 0 0.999661 140.482 601)">集合</text><text font-family="Calibri,Calibri_MSFontService,sans-serif" font-weight="400" font-size="14.6667" transform="matrix(1 0 0 0.999661 169.826 601)">C</text><text font-family="Yu Gothic,Yu Gothic_MSFontService,sans-serif" font-weight="400" font-size="14.6667" transform="matrix(1 0 0 0.999661 177.662 601)">に</text><text font-family="Yu Gothic,Yu Gothic_MSFontService,sans-serif" font-weight="400" font-size="14.6667" transform="matrix(1 0 0 0.999661 192.333 601)">構造</text><text font-family="Calibri,Calibri_MSFontService,sans-serif" font-weight="400" font-size="14.6667" transform="matrix(1 0 0 0.999661 221.676 601)">S</text><text font-family="Yu Gothic,Yu Gothic_MSFontService,sans-serif" font-weight="400" font-size="14.6667" transform="matrix(1 0 0 0.999661 228.345 601)">を</text><text font-family="Yu Gothic,Yu Gothic_MSFontService,sans-serif" font-weight="400" font-size="14.6667" transform="matrix(1 0 0 0.999661 243.017 601)">備えた</text><text font-family="Yu Gothic,Yu Gothic_MSFontService,sans-serif" font-weight="400" font-size="14.6667" transform="matrix(1 0 0 0.999661 287.032 601)">もの</text><text font-family="Yu Gothic,Yu Gothic_MSFontService,sans-serif" font-weight="400" font-size="14.6667" transform="matrix(1 0 0 0.999661 316.375 601)">は</text><text font-family="Calibri,Calibri_MSFontService,sans-serif" font-weight="400" font-size="14.6667" transform="matrix(1 0 0 0.999661 331.047 601)">D</text><text font-family="Yu Gothic,Yu Gothic_MSFontService,sans-serif" font-weight="400" font-size="14.6667" transform="matrix(1 0 0 0.999661 340.05 601)">で</text><text font-family="Yu Gothic,Yu Gothic_MSFontService,sans-serif" font-weight="400" font-size="14.6667" transform="matrix(1 0 0 0.999661 354.722 601)">ある。</text><text font-family="Yu Gothic,Yu Gothic_MSFontService,sans-serif" font-weight="400" font-size="14.6667" transform="matrix(1 0 0 0.999661 140.482 618)">これは</text><text font-family="Yu Gothic,Yu Gothic_MSFontService,sans-serif" font-weight="400" font-size="14.6667" transform="matrix(1 0 0 0.999661 272.527 618)">も意味する。</text><text font-family="Yu Gothic,Yu Gothic_MSFontService,sans-serif" font-weight="400" font-size="14.6667" transform="matrix(1 0 0 0.999661 140.482 659)">性質</text><text font-family="Calibri,Calibri_MSFontService,sans-serif" font-weight="400" font-size="14.6667" transform="matrix(1 0 0 0.999661 169.826 659)">P</text><text font-family="Yu Gothic,Yu Gothic_MSFontService,sans-serif" font-weight="400" font-size="14.6667" transform="matrix(1 0 0 0.999661 177.328 659)">を</text><text font-family="Yu Gothic,Yu Gothic_MSFontService,sans-serif" font-weight="400" font-size="14.6667" transform="matrix(1 0 0 0.999661 192 659)">満たす</text><text font-family="Calibri,Calibri_MSFontService,sans-serif" font-weight="400" font-size="14.6667" transform="matrix(1 0 0 0.999661 236.015 659)">E</text><text font-family="Yu Gothic,Yu Gothic_MSFontService,sans-serif" font-weight="400" font-size="14.6667" transform="matrix(1 0 0 0.999661 243.184 659)">は</text><text font-family="Calibri,Calibri_MSFontService,sans-serif" font-weight="400" font-size="14.6667" transform="matrix(1 0 0 0.999661 257.855 659)">F</text><text font-family="Yu Gothic,Yu Gothic_MSFontService,sans-serif" font-weight="400" font-size="14.6667" transform="matrix(1 0 0 0.999661 264.524 659)">で</text><text font-family="Yu Gothic,Yu Gothic_MSFontService,sans-serif" font-weight="400" font-size="14.6667" transform="matrix(1 0 0 0.999661 279.196 659)">ある。</text><text fill="#00B050" font-family="Calibri,Calibri_MSFontService,sans-serif" font-style="italic" font-weight="700" font-size="14.6667" transform="matrix(1 0 0 0.999661 140.482 676)">X</text><text font-family="Yu Gothic,Yu Gothic_MSFontService,sans-serif" font-weight="400" font-size="14.6667" transform="matrix(1 0 0 0.999661 151.819 676)">は</text><text font-family="Calibri,Calibri_MSFontService,sans-serif" font-weight="400" font-size="14.6667" transform="matrix(1 0 0 0.999661 166.491 676)">F</text><text font-family="Yu Gothic,Yu Gothic_MSFontService,sans-serif" font-weight="400" font-size="14.6667" transform="matrix(1 0 0 0.999661 173.16 676)">ではない</text><text font-family="Calibri,Calibri_MSFontService,sans-serif" font-weight="400" font-size="14.6667" transform="matrix(1 0 0 0.999661 231.847 676)">E</text><text font-family="Yu Gothic,Yu Gothic_MSFontService,sans-serif" font-weight="400" font-size="14.6667" transform="matrix(1 0 0 0.999661 239.016 676)">の</text><text font-family="Yu Gothic,Yu Gothic_MSFontService,sans-serif" font-weight="400" font-size="14.6667" transform="matrix(1 0 0 0.999661 253.687 676)">例である。</text><rect x="190" y="605.795" width="24.0001" height="23.9918" stroke="#000000" stroke-width="2.00068" stroke-miterlimit="8" stroke-dasharray="2.00068 2.00068" fill="none"/><text font-family="Calibri,Calibri_MSFontService,sans-serif" font-style="italic" font-weight="400" font-size="14.6667" transform="matrix(1 0 0 0.999661 197.886 622)">D</text><rect x="246" y="605.795" width="24" height="23.9918" stroke="#000000" stroke-width="2.00068" stroke-miterlimit="8" stroke-dasharray="2.00068 2.00068" fill="none"/><text font-family="Calibri,Calibri_MSFontService,sans-serif" font-style="italic" font-weight="400" font-size="14.6667" transform="matrix(1 0 0 0.999661 254.582 622)">C</text><path d="M214.5 616.79 238.945 616.79 238.945 619.79 214.5 619.79ZM237.445 613.79 246.448 618.29 237.444 622.79Z" fill="#FF0000"/><rect x="34" y="24.9915" width="89" height="42.9854" stroke="#000000" stroke-width="2.00068" stroke-miterlimit="8" stroke-dasharray="2.00068 2.00068" fill="none"/><text font-family="Yu Gothic,Yu Gothic_MSFontService,sans-serif" font-weight="400" font-size="14.6667" transform="matrix(1 0 0 0.999661 49.0931 51)">測度空間</text><rect x="34" y="119.959" width="89" height="42.9855" stroke="#000000" stroke-width="2.00068" stroke-miterlimit="8" stroke-dasharray="2.00068 2.00068" fill="none"/><text font-family="Yu Gothic,Yu Gothic_MSFontService,sans-serif" font-weight="400" font-size="14.6667" transform="matrix(1 0 0 0.999661 49.0931 147)">確率空間</text><rect x="211" y="119.959" width="89" height="42.9855" stroke="#000000" stroke-width="2.00068" stroke-miterlimit="8" stroke-dasharray="2.00068 2.00068" fill="none"/><text font-family="Yu Gothic,Yu Gothic_MSFontService,sans-serif" font-weight="400" font-size="14.6667" transform="matrix(1 0 0 0.999661 225.897 147)">位相空間</text><rect x="211" y="24.9915" width="89" height="42.9854" stroke="#000000" stroke-width="2.00068" stroke-miterlimit="8" stroke-dasharray="2.00068 2.00068" fill="none"/><text font-family="Yu Gothic,Yu Gothic_MSFontService,sans-serif" font-weight="400" font-size="14.6667" transform="matrix(1 0 0 0.999661 240.569 51)">集合</text><rect x="34" y="214.927" width="89" height="42.9854" stroke="#000000" stroke-width="2.00068" stroke-miterlimit="8" stroke-dasharray="2.00068 2.00068" fill="none"/><text font-family="Yu Gothic,Yu Gothic_MSFontService,sans-serif" font-weight="400" font-size="14.6667" transform="matrix(1 0 0 0.999661 49.0931 233)">リーマン</text><text font-family="Yu Gothic,Yu Gothic_MSFontService,sans-serif" font-weight="400" font-size="14.6667" transform="matrix(1 0 0 0.999661 56.4289 250)">多様体</text><rect x="211" y="214.927" width="89" height="42.9854" stroke="#000000" stroke-width="2.00068" stroke-miterlimit="8" stroke-dasharray="2.00068 2.00068" fill="none"/><text font-family="Yu Gothic,Yu Gothic_MSFontService,sans-serif" font-weight="400" font-size="14.6667" transform="matrix(1 0 0 0.999661 225.897 242)">距離空間</text><rect x="211" y="310.895" width="89" height="41.9858" stroke="#000000" stroke-width="2.00068" stroke-miterlimit="8" stroke-dasharray="2.00068 2.00068" fill="none"/><text font-family="Yu Gothic,Yu Gothic_MSFontService,sans-serif" font-weight="400" font-size="14.6667" transform="matrix(1 0 0 0.999661 218.561 328)">ノルム付き</text><text font-family="Yu Gothic,Yu Gothic_MSFontService,sans-serif" font-weight="400" font-size="14.6667" transform="matrix(1 0 0 0.999661 211.226 345)">ベクトル空間</text><rect x="34" y="310.895" width="89" height="41.9858" stroke="#000000" stroke-width="2.00068" stroke-miterlimit="8" stroke-dasharray="2.00068 2.00068" fill="none"/><text font-family="Yu Gothic,Yu Gothic_MSFontService,sans-serif" font-weight="400" font-size="14.6667" transform="matrix(1 0 0 0.999661 49.093 328)">バナッハ</text><text font-family="Yu Gothic,Yu Gothic_MSFontService,sans-serif" font-weight="400" font-size="14.6667" transform="matrix(1 0 0 0.999661 63.7646 345)">空間</text><rect x="34" y="412.86" width="89" height="41.9857" stroke="#000000" stroke-width="2.00068" stroke-miterlimit="8" stroke-dasharray="2.00068 2.00068" fill="none"/><text font-family="Yu Gothic,Yu Gothic_MSFontService,sans-serif" font-weight="400" font-size="14.6667" transform="matrix(1 0 0 0.999661 41.7569 430)">ヒルベルト</text><text font-family="Yu Gothic,Yu Gothic_MSFontService,sans-serif" font-weight="400" font-size="14.6667" transform="matrix(1 0 0 0.999661 63.7644 447)">空間</text><rect x="211" y="412.86" width="89" height="42.9854" stroke="#000000" stroke-width="2.00068" stroke-miterlimit="8" stroke-dasharray="2.00068 2.00068" fill="none"/><text font-family="Yu Gothic,Yu Gothic_MSFontService,sans-serif" font-weight="400" font-size="14.6667" transform="matrix(1 0 0 0.999661 218.561 430)">ユニタリー</text><text font-family="Yu Gothic,Yu Gothic_MSFontService,sans-serif" font-weight="400" font-size="14.6667" transform="matrix(1 0 0 0.999661 240.569 447)">空間</text><rect x="387" y="310.895" width="90" height="41.9858" stroke="#000000" stroke-width="2.00068" stroke-miterlimit="8" stroke-dasharray="2.00068 2.00068" fill="none"/><text font-family="Yu Gothic,Yu Gothic_MSFontService,sans-serif" font-weight="400" font-size="14.6667" transform="matrix(1 0 0 0.999661 388.03 328)">複素ベクトル</text><text font-family="Yu Gothic,Yu Gothic_MSFontService,sans-serif" font-weight="400" font-size="14.6667" transform="matrix(1 0 0 0.999661 417.373 345)">空間</text><rect x="387" y="214.927" width="90" height="42.9854" stroke="#000000" stroke-width="2.00068" stroke-miterlimit="8" stroke-dasharray="2.00068 2.00068" fill="none"/><text font-family="Yu Gothic,Yu Gothic_MSFontService,sans-serif" font-weight="400" font-size="14.6667" transform="matrix(1 0 0 0.999661 388.03 233)">ハウスドルフ</text><text font-family="Yu Gothic,Yu Gothic_MSFontService,sans-serif" font-weight="400" font-size="14.6667" transform="matrix(1 0 0 0.999661 417.373 250)">空間</text><rect x="559" y="93.9681" width="89.0001" height="42.9855" stroke="#000000" stroke-width="2.00068" stroke-miterlimit="8" stroke-dasharray="2.00068 2.00068" fill="none"/><text font-family="Yu Gothic,Yu Gothic_MSFontService,sans-serif" font-weight="400" font-size="14.6667" transform="matrix(1 0 0 0.999661 581.175 121)">マグマ</text><rect x="559" y="179.939" width="89.0001" height="41.9857" stroke="#000000" stroke-width="2.00068" stroke-miterlimit="8" stroke-dasharray="2.00068 2.00068" fill="none"/><text font-family="Yu Gothic,Yu Gothic_MSFontService,sans-serif" font-weight="400" font-size="14.6667" transform="matrix(1 0 0 0.999661 588.511 206)">半群</text><rect x="559" y="264.91" width="89.0001" height="42.9854" stroke="#000000" stroke-width="2.00068" stroke-miterlimit="8" stroke-dasharray="2.00068 2.00068" fill="none"/><text font-family="Yu Gothic,Yu Gothic_MSFontService,sans-serif" font-weight="400" font-size="14.6667" transform="matrix(1 0 0 0.999661 573.84 291)">モノイド</text><rect x="559" y="349.881" width="89.0001" height="42.9854" stroke="#000000" stroke-width="2.00068" stroke-miterlimit="8" stroke-dasharray="2.00068 2.00068" fill="none"/><text font-family="Yu Gothic,Yu Gothic_MSFontService,sans-serif" font-weight="400" font-size="14.6667" transform="matrix(1 0 0 0.999661 595.847 377)">群</text><rect x="559" y="435.852" width="89.0001" height="41.9857" stroke="#000000" stroke-width="2.00068" stroke-miterlimit="8" stroke-dasharray="2.00068 2.00068" fill="none"/><text font-family="Yu Gothic,Yu Gothic_MSFontService,sans-serif" font-weight="400" font-size="14.6667" transform="matrix(1 0 0 0.999661 566.504 453)">アーベル群</text><text font-family="Calibri,Calibri_MSFontService,sans-serif" font-weight="400" font-size="14.6667" transform="matrix(1 0 0 0.999661 576.674 470)">(</text><text font-family="Yu Gothic,Yu Gothic_MSFontService,sans-serif" font-weight="400" font-size="14.6667" transform="matrix(1 0 0 0.999661 581.175 470)">可換群</text><text font-family="Calibri,Calibri_MSFontService,sans-serif" font-weight="400" font-size="14.6667" transform="matrix(1 0 0 0.999661 625.19 470)">)</text><rect x="730" y="24.9915" width="90" height="42.9854" stroke="#000000" stroke-width="2.00068" stroke-miterlimit="8" stroke-dasharray="2.00068 2.00068" fill="none"/><text font-family="Yu Gothic,Yu Gothic_MSFontService,sans-serif" font-weight="400" font-size="14.6667" transform="matrix(1 0 0 0.999661 767.578 51)">環</text><rect x="730" y="109.963" width="90" height="42.9854" stroke="#000000" stroke-width="2.00068" stroke-miterlimit="8" stroke-dasharray="2.00068 2.00068" fill="none"/><text font-family="Yu Gothic,Yu Gothic_MSFontService,sans-serif" font-weight="400" font-size="14.6667" transform="matrix(1 0 0 0.999661 752.907 137)">可換環</text><rect x="730" y="195.934" width="90" height="41.9857" stroke="#000000" stroke-width="2.00068" stroke-miterlimit="8" stroke-dasharray="2.00068 2.00068" fill="none"/><text font-family="Yu Gothic,Yu Gothic_MSFontService,sans-serif" font-weight="400" font-size="14.6667" transform="matrix(1 0 0 0.999661 760.243 222)">整域</text><rect x="730" y="280.905" width="90" height="42.9855" stroke="#000000" stroke-width="2.00068" stroke-miterlimit="8" stroke-dasharray="2.00068 2.00068" fill="none"/><text font-family="Yu Gothic,Yu Gothic_MSFontService,sans-serif" font-weight="400" font-size="14.6667" transform="matrix(1 0 0 0.999661 730.899 298)">一意分解整域</text><text font-family="Calibri,Calibri_MSFontService,sans-serif" font-weight="400" font-size="14.6667" transform="matrix(1 0 0 0.999661 757.909 315)">(UFD)</text><rect x="730" y="365.876" width="90" height="42.9854" stroke="#000000" stroke-width="2.00068" stroke-miterlimit="8" stroke-dasharray="2.00068 2.00068" fill="none"/><text font-family="Yu Gothic,Yu Gothic_MSFontService,sans-serif" font-weight="400" font-size="14.6667" transform="matrix(1 0 0 0.999661 738.235 393)">主理想整域</text><rect x="730" y="451.847" width="90" height="41.9857" stroke="#000000" stroke-width="2.00068" stroke-miterlimit="8" stroke-dasharray="2.00068 2.00068" fill="none"/><text font-family="Yu Gothic,Yu Gothic_MSFontService,sans-serif" font-weight="400" font-size="14.6667" transform="matrix(1 0 0 0.999661 730.899 469)">ユークリッド</text><text font-family="Yu Gothic,Yu Gothic_MSFontService,sans-serif" font-weight="400" font-size="14.6667" transform="matrix(1 0 0 0.999661 760.243 486)">整域</text><rect x="730" y="536.818" width="90" height="42.9854" stroke="#000000" stroke-width="2.00068" stroke-miterlimit="8" stroke-dasharray="2.00068 2.00068" fill="none"/><text font-family="Yu Gothic,Yu Gothic_MSFontService,sans-serif" font-weight="400" font-size="14.6667" transform="matrix(1 0 0 0.999661 767.578 563)">体</text><path d="M123.002 233.92 131.164 233.927 139.074 233.949 146.471 233.982 153.099 234.024 158.702 234.075 161.042 234.102 163.034 234.131 164.642 234.161 165.847 234.192 166.676 234.227 167.008 234.269 167.259 234.3 167.097 234.286 167.829 234.317 167.796 234.316 168.977 234.347 168.962 234.346 170.559 234.376 170.551 234.376 172.533 234.405 174.862 234.432 180.455 234.483 187.074 234.525 194.463 234.558 200.524 234.572 200.515 238.572 194.445 238.558 187.048 238.525 180.419 238.482 174.815 238.432 172.475 238.404 170.489 238.375 168.88 238.346 167.676 238.314 166.846 238.279 166.515 238.238 166.264 238.207 166.426 238.22 165.694 238.189 165.727 238.191 164.546 238.16 164.561 238.16 162.963 238.131 162.972 238.131 160.995 238.102 158.666 238.075 153.073 238.024 146.453 237.982 139.063 237.949 131.161 237.927 122.998 237.92ZM198.528 230.569 210.523 236.587 198.51 242.569Z" fill="#FF0000"/><path d="M75.9993 412.285 75.9993 401.379 75.9993 396.361 75.9994 391.865 75.9994 388.065 75.9994 385.135 75.9994 383.25 75.9994 382.583 75.9995 381.916 75.9995 380.03 75.9995 377.101 75.9995 373.301 75.9995 368.805 75.9995 362.88 80.0009 362.88 80.0009 368.805 80.0009 373.301 80.0009 377.101 80.0008 380.03 80.0008 381.916 80.0008 382.583 80.0008 383.25 80.0008 385.135 80.0007 388.065 80.0007 391.865 80.0007 396.361 80.0007 401.379 80.0007 412.285ZM71.9982 364.88 78.0002 352.88 84.0022 364.88Z" fill="#FF0000"/><path d="M300.004 234.92 308.17 234.935 316.083 234.977 323.484 235.043 330.117 235.128 335.726 235.229 338.071 235.285 340.067 235.343 341.687 235.403 342.914 235.466 343.838 235.545 344.244 235.645 344.495 235.708 344.181 235.656 344.913 235.718 344.848 235.713 346.028 235.774 345.999 235.773 347.597 235.833 347.58 235.832 349.562 235.89 349.551 235.889 351.886 235.944 351.875 235.944 357.473 236.045 357.463 236.045 364.087 236.13 364.079 236.13 371.472 236.196 371.463 236.196 377.529 236.223 377.51 240.223 371.441 240.196 364.039 240.13 357.406 240.044 351.797 239.943 349.451 239.888 347.456 239.83 345.836 239.77 344.608 239.706 343.685 239.628 343.279 239.527 343.028 239.465 343.342 239.517 342.61 239.455 342.675 239.459 341.495 239.398 341.523 239.4 339.926 239.34 339.943 239.341 337.961 239.283 337.972 239.283 335.637 239.228 335.648 239.229 330.05 239.128 330.06 239.128 323.436 239.043 323.444 239.043 316.051 238.977 316.058 238.977 308.152 238.935 308.159 238.935 299.996 238.92ZM375.537 232.217 387.523 238.253 375.501 244.217Z" fill="#FF0000"/><path d="M730.194 560.591 716.466 560.348 702.73 559.625 689.049 558.439 675.451 556.806 661.961 554.742 648.607 552.26 635.414 549.378 622.394 546.106 597.069 538.479 572.801 529.488 549.83 519.266 538.87 513.718 528.325 507.912 518.207 501.858 508.542 495.568 499.356 489.059 490.677 482.344 482.531 475.438 474.945 468.355 467.945 461.109 461.559 453.715 455.815 446.184 450.74 438.532 446.363 430.772 442.713 422.917 439.821 414.983 437.711 406.961 436.915 401.096 440.88 400.558 441.659 406.302 441.611 406.062 443.667 413.876 443.612 413.7 446.443 421.467 446.378 421.309 449.959 429.015 449.887 428.876 454.19 436.505 454.115 436.382 459.113 443.919 459.037 443.811 464.704 451.241 464.628 451.147 470.938 458.453 470.862 458.371 477.787 465.54 477.714 465.467 485.227 472.482 485.156 472.418 493.231 479.265 493.161 479.208 501.772 485.87 501.704 485.82 510.823 492.282 510.758 492.238 520.358 498.485 520.294 498.445 530.349 504.462 530.287 504.426 540.77 510.197 540.709 510.165 551.594 515.675 551.503 515.632 574.369 525.808 574.251 525.759 598.401 534.707 598.283 534.667 623.504 542.263 623.414 542.238 636.359 545.491 636.298 545.477 649.43 548.346 649.369 548.333 662.661 550.803 662.599 550.792 676.025 552.848 675.961 552.839 689.494 554.464 689.428 554.457 703.042 555.637 702.974 555.632 716.641 556.351 716.571 556.349 730.265 556.592ZM433.099 403.357 438 390.867 445.055 402.281Z" fill="#FF0000"/><path d="M212.659 70.0938 206.979 78.5243 207.027 78.4508 201.821 86.9568 201.871 86.869 197.2 95.4505 197.253 95.3463 193.176 104.003 193.229 103.881 189.809 112.613 189.859 112.471 187.156 121.279 187.198 121.116 185.272 129.999 185.303 129.817 184.216 138.776 184.23 138.577 184.042 147.611 184.035 147.401 184.806 156.511 184.777 156.297 186.569 165.483 186.516 165.273 189.389 174.535 189.316 174.337 193.332 183.674 193.244 183.494 198.462 192.907 198.364 192.748 204.846 202.236 204.744 202.1 206.226 203.915 203.126 206.444 201.59 204.563 195.007 194.927 189.695 185.346 185.599 175.82 182.662 166.355 180.829 156.957 180.039 147.633 180.232 138.393 181.342 129.243 183.305 120.186 186.056 111.225 189.528 102.36 193.657 93.5899 198.381 84.9125 203.636 76.326 209.341 67.8593ZM208.061 199.837 211 212.928 198.76 207.423Z" fill="#0070C0"/><path d="M387.519 335.221 379.353 335.206 371.44 335.163 364.039 335.098 357.406 335.012 351.797 334.911 349.451 334.856 347.456 334.798 345.836 334.737 344.608 334.674 343.685 334.596 343.279 334.495 343.027 334.433 343.342 334.485 342.61 334.423 342.675 334.427 341.495 334.366 341.523 334.367 339.926 334.308 339.943 334.308 337.961 334.251 337.972 334.251 335.637 334.196 335.648 334.196 330.05 334.095 330.06 334.096 323.436 334.01 323.444 334.01 316.051 333.945 316.06 333.945 309.994 333.917 310.012 329.917 316.082 329.945 323.484 330.011 330.117 330.096 335.726 330.197 338.071 330.252 340.067 330.31 341.687 330.371 342.914 330.434 343.838 330.512 344.244 330.613 344.495 330.676 344.181 330.624 344.913 330.686 344.848 330.681 346.028 330.742 345.999 330.741 347.597 330.8 347.58 330.8 349.562 330.857 349.551 330.857 351.886 330.912 351.875 330.912 357.473 331.013 357.463 331.013 364.087 331.098 364.079 331.098 371.472 331.164 371.465 331.164 379.371 331.206 379.364 331.206 387.526 331.221ZM311.986 337.923 300 331.887 312.022 325.923Z" fill="#0070C0"/><path d="M431.31 350.393 429.763 351.734 427.782 353.229 422.882 356.446 416.739 360.023 409.519 363.905 401.373 368.041 392.46 372.374 382.941 376.847 372.972 381.404 352.36 390.524 331.915 399.265 322.16 403.347 312.938 407.156 306.029 409.966 304.521 406.261 311.425 403.453 311.415 403.457 320.628 399.652 320.619 399.656 330.363 395.579 330.349 395.585 350.775 386.851 350.752 386.861 371.342 377.752 371.319 377.762 381.267 373.214 381.248 373.223 390.746 368.76 390.722 368.771 399.607 364.451 399.577 364.466 407.686 360.349 407.644 360.371 414.814 356.517 414.754 356.55 420.821 353.017 420.73 353.073 425.531 349.921 425.424 349.997 427.298 348.582 427.193 348.667 428.689 347.37ZM309.378 412.927 296 411.86 304.881 401.801Z" fill="#0070C0"/><path d="M298.775 54.1371 310.014 58.8568 320.885 63.5998 331.378 68.359 341.508 73.1358 360.654 82.7145 378.388 92.3305 394.745 101.965 409.769 111.603 423.502 121.229 435.988 130.829 447.27 140.386 457.389 149.887 466.389 159.316 474.311 168.658 481.198 177.897 487.09 187.02 492.03 196.009 496.057 204.848 499.214 213.522 501.54 222.011 503.078 230.299 503.869 238.367 503.955 246.196 503.38 253.767 502.187 261.062 500.42 268.063 498.124 274.752 495.343 281.112 492.121 287.127 488.503 292.78 484.533 298.057 480.233 302.964 478.443 304.616 475.728 301.679 477.44 300.098 477.292 300.249 481.474 295.477 481.38 295.592 485.26 290.436 485.173 290.561 488.708 285.037 488.63 285.171 491.778 279.294 491.708 279.437 494.425 273.225 494.366 273.376 496.608 266.844 496.561 267.003 498.286 260.166 498.252 260.333 499.417 253.207 499.397 253.378 499.959 245.979 499.953 246.153 499.869 238.498 499.878 238.671 499.104 230.775 499.128 230.944 497.621 222.823 497.659 222.987 495.376 214.657 495.426 214.813 492.324 206.29 492.383 206.435 488.419 197.735 488.487 197.869 483.617 189.008 483.69 189.13 477.873 180.123 477.949 180.234 471.14 171.098 471.218 171.196 463.375 161.947 463.453 162.034 454.532 152.688 454.61 152.765 444.568 143.337 444.644 143.405 433.437 133.911 433.511 133.971 421.098 124.427 421.169 124.479 407.505 114.902 407.573 114.947 392.616 105.352 392.681 105.392 376.387 95.7947 376.449 95.8296 358.775 86.2463 358.834 86.2768 339.738 76.7233 339.78 76.7436 329.684 71.983 329.711 71.9955 319.244 67.2484 319.271 67.26 308.426 62.5283 308.452 62.5392 297.225 57.8249ZM482.612 306.226 469.703 309.895 474.513 297.37Z" fill="#0070C0"/><path d="M300.019 43.9845 328.436 44.26 356.648 45.0637 384.415 46.3602 411.516 48.1144 437.729 50.2911 462.828 52.8549 474.901 54.272 486.608 55.7725 497.928 57.3525 508.833 59.0077 519.296 60.7338 529.289 62.5267 538.785 64.3822 547.758 66.2962 556.18 68.2648 564.025 70.2842 571.267 72.3512 577.881 74.4631 583.844 76.618 589.131 78.8162 593.842 81.119 598.282 84.6036 595.811 87.7498 591.537 84.3958 591.894 84.6194 587.428 82.4363 587.539 82.4863 582.351 80.3295 582.439 80.3636 576.556 78.2376 576.628 78.2619 570.079 76.1711 570.139 76.189 562.951 74.1377 563.002 74.1514 555.204 72.144 555.247 72.1546 546.866 70.1956 546.904 70.204 537.967 68.2977 538.001 68.3046 528.536 66.4554 528.567 66.4611 518.603 64.6734 518.63 64.6782 508.194 62.9564 508.22 62.9604 497.339 61.3089 497.363 61.3124 486.066 59.7356 486.088 59.7386 474.402 58.2409 474.423 58.2435 462.377 56.8293 462.407 56.8326 437.341 54.2723 437.379 54.2758 411.203 52.1021 411.239 52.1048 384.175 50.353 384.211 50.355 356.48 49.0602 356.516 49.0616 328.341 48.2589 328.378 48.2596 299.981 47.9843ZM600.479 80.864 603.302 93.9803 591.111 88.368Z" fill="#0070C0"/><path d="M300.001 43.9844 340.14 43.9993 359.816 44.0173 379.02 44.0416 397.593 44.0718 415.378 44.1074 432.217 44.1479 447.953 44.1927 462.428 44.2414 469.144 44.2671 475.486 44.2936 481.433 44.3208 486.967 44.3487 492.068 44.3772 496.715 44.4063 500.89 44.4358 504.574 44.4658 507.745 44.4961 510.389 44.5268 512.483 44.5578 514.016 44.5893 515.018 44.6232 515.396 44.661 515.708 44.6922 515.576 44.6834 516.498 44.7146 516.472 44.7139 517.986 44.7449 517.974 44.7447 520.059 44.7756 520.053 44.7755 522.69 44.8061 525.854 44.8364 529.532 44.8663 533.704 44.8959 538.349 44.9249 543.447 44.9534 548.978 44.9813 554.924 45.0085 561.264 45.0349 567.978 45.0606 582.452 45.1094 598.186 45.1542 615.023 45.1946 632.807 45.2302 651.378 45.2604 670.58 45.2847 690.255 45.3027 720.39 45.314 720.388 49.314 690.251 49.3027 670.575 49.2847 651.372 49.2604 632.799 49.2302 615.014 49.1946 598.174 49.1542 582.438 49.1093 567.963 49.0606 561.247 49.0349 554.906 49.0084 548.958 48.9812 543.424 48.9533 538.323 48.9248 533.675 48.8958 529.5 48.8662 525.816 48.8362 522.643 48.8059 520.003 48.7752 517.909 48.7442 516.377 48.7127 515.375 48.6789 514.997 48.6411 514.685 48.6098 514.817 48.6186 513.894 48.5875 513.921 48.5882 512.407 48.5571 512.418 48.5573 510.333 48.5265 510.339 48.5265 507.707 48.496 504.541 48.4657 500.862 48.4357 496.69 48.4062 492.045 48.3772 486.947 48.3487 481.415 48.3208 475.469 48.2936 469.129 48.2671 462.415 48.2414 447.942 48.1927 432.207 48.1478 415.37 48.1074 397.586 48.0718 379.015 48.0416 359.813 48.0173 340.138 47.9993 299.999 47.9844ZM718.391 41.3132 730.392 47.3177 718.386 53.3132Z" fill="#0070C0"/><path d="M210.519 335.221 202.353 335.206 194.44 335.163 187.039 335.098 180.406 335.012 174.797 334.911 172.451 334.856 170.456 334.798 168.836 334.737 167.608 334.674 166.685 334.596 166.279 334.495 166.027 334.433 166.342 334.485 165.61 334.423 165.675 334.427 164.495 334.366 164.523 334.367 162.926 334.308 162.943 334.308 160.961 334.251 160.972 334.251 158.637 334.196 158.648 334.196 153.05 334.095 153.06 334.096 146.436 334.01 146.444 334.01 139.051 333.945 139.06 333.945 132.994 333.917 133.013 329.917 139.082 329.945 146.484 330.011 153.117 330.096 158.726 330.197 161.071 330.252 163.067 330.31 164.687 330.371 165.915 330.434 166.838 330.512 167.244 330.613 167.495 330.676 167.181 330.624 167.913 330.686 167.848 330.681 169.028 330.742 168.999 330.741 170.597 330.8 170.58 330.8 172.562 330.857 172.551 330.857 174.886 330.912 174.875 330.912 180.473 331.013 180.463 331.013 187.087 331.098 187.079 331.098 194.472 331.164 194.465 331.164 202.371 331.206 202.364 331.206 210.527 331.221ZM134.986 337.923 123 331.887 135.022 325.923Z" fill="#00B050"/><path d="M210.523 435.901 202.36 435.901 194.454 435.899 187.06 435.897 180.436 435.894 174.837 435.89 172.502 435.888 170.52 435.886 168.922 435.884 167.741 435.882 167 435.879 166.743 435.877 166.492 435.875 166.504 435.875 165.772 435.872 164.594 435.87 162.998 435.868 161.017 435.866 158.683 435.864 153.085 435.86 146.461 435.857 139.068 435.855 133.003 435.854 133.004 431.854 139.069 431.855 146.463 431.857 153.087 431.86 158.686 431.864 161.021 431.866 163.003 431.868 164.602 431.87 165.785 431.872 166.523 431.875 166.78 431.877 167.031 431.879 167.019 431.879 167.748 431.882 168.928 431.884 170.524 431.886 172.506 431.888 174.84 431.89 180.438 431.894 187.062 431.897 194.455 431.899 202.361 431.901 210.523 431.901ZM135.003 439.854 123 433.853 135.005 427.854Z" fill="#00B050"/><path d="M300.069 138.953 312.509 139.38 324.915 140.629 337.122 142.643 349.034 145.369 360.557 148.751 371.596 152.736 382.055 157.272 391.841 162.307 400.859 167.79 409.013 173.672 416.209 179.907 422.349 186.451 427.331 193.264 431.073 200.357 432.166 204.558 428.294 205.565 427.259 201.589 427.425 202.018 423.86 195.26 424.014 195.507 419.191 188.911 419.346 189.099 413.361 182.719 413.51 182.862 406.46 176.753 406.599 176.864 398.581 171.08 398.712 171.166 389.823 165.761 389.947 165.831 380.283 160.859 380.402 160.915 370.061 156.431 370.178 156.477 359.255 152.534 359.371 152.572 347.965 149.224 348.082 149.254 336.289 146.556 336.41 146.58 324.326 144.586 324.451 144.602 312.174 143.366 312.306 143.375 299.931 142.951ZM435.732 201.94 432.164 214.873 423.955 204.259Z" fill="#00B050"/><text font-family="Yu Gothic,Yu Gothic_MSFontService,sans-serif" font-weight="400" font-size="14.6667" transform="matrix(1 0 0 0.999661 132.913 38)">測度</text><text font-family="Calibri,Calibri_MSFontService,sans-serif" font-weight="400" font-size="14.6667" transform="matrix(1 0 0 0.999661 162.256 38)">,</text><text font-family="Yu Gothic,Yu Gothic_MSFontService,sans-serif" font-weight="400" font-size="14.6667" transform="matrix(1 0 0 0.999661 222.861 91)">位相</text><text font-family="Cambria Math,Cambria Math_MSFontService,sans-serif" font-weight="400" font-size="14.6667" transform="matrix(1 0 0 0.999661 233.325 108)">𝒯</text><text font-family="Yu Gothic,Yu Gothic_MSFontService,sans-serif" font-weight="400" font-size="14.6667" transform="matrix(1 0 0 0.999661 148.228 136)">距離</text><text font-family="Cambria Math,Cambria Math_MSFontService,sans-serif" font-weight="400" font-size="14.6667" transform="matrix(1 0 0 0.999661 160.745 153)">𝑑</text><text font-family="Cambria Math,Cambria Math_MSFontService,sans-serif" font-weight="400" font-size="14.6667" transform="matrix(1 0 0 0.999661 85.4363 97)">𝜇</text><path d="M25.672 3.01734C27.0656 3.38483 28.1359 4.17829 28.8828 5.39771 29.6298 6.61714 30.0032 8.08832 30.0032 9.81126 30.0032 11.539 29.6309 13.0101 28.8864 14.2248 28.1419 15.4394 27.0704 16.2305 25.672 16.598L25.5002 16.0468C26.6027 15.6793 27.4224 14.9538 27.9593 13.8704 28.4962 12.787 28.7647 11.4101 28.7647 9.73967 28.7647 8.1265 28.4974 6.78657 27.9629 5.71987 27.4284 4.65317 26.6003 3.93608 25.4787 3.56858ZM16.4065 3.01734 16.5998 3.56858C15.483 3.93608 14.6561 4.65317 14.1192 5.71987 13.5823 6.78657 13.3138 8.1265 13.3138 9.73967 13.3138 11.4101 13.5823 12.787 14.1192 13.8704 14.6561 14.9538 15.4758 15.6793 16.5783 16.0468L16.4065 16.598C15.0081 16.2305 13.9366 15.4394 13.1921 14.2248 12.4476 13.0101 12.0753 11.539 12.0753 9.81126 12.0753 8.08832 12.4488 6.61714 13.1957 5.39771 13.9426 4.17829 15.0129 3.38483 16.4065 3.01734Z" fill-rule="evenodd" transform="matrix(1.00034 0 0 1 83.0421 82.81)"/><text font-family="Cambria Math,Cambria Math_MSFontService,sans-serif" font-weight="400" font-size="14.6667" transform="matrix(1 0 0 0.999661 99.9212 97)">X</text><text font-family="Cambria Math,Cambria Math_MSFontService,sans-serif" font-weight="400" font-size="14.6667" transform="matrix(1 0 0 0.999661 118.421 97)">=</text><text font-family="Cambria Math,Cambria Math_MSFontService,sans-serif" font-weight="400" font-size="14.6667" transform="matrix(1 0 0 0.999661 133.499 97)">1</text><text font-family="Cambria Math,Cambria Math_MSFontService,sans-serif" font-weight="400" font-size="14.6667" transform="matrix(1 0 0 0.999661 96.9165 279)">𝑑</text><path d="M40.0387 3.01734C41.4323 3.38483 42.5026 4.17829 43.2495 5.39771 43.9964 6.61714 44.3699 8.08832 44.3699 9.81126 44.3699 11.539 43.9976 13.0101 43.2531 14.2248 42.5085 15.4394 41.4371 16.2305 40.0387 16.598L39.8669 16.0468C40.9693 15.6793 41.7891 14.9538 42.326 13.8704 42.8629 12.787 43.1314 11.4101 43.1314 9.73967 43.1314 8.1265 42.8641 6.78657 42.3296 5.71987 41.795 4.65317 40.967 3.93608 39.8454 3.56858ZM16.9598 3.01734 17.1531 3.56858C16.0363 3.93608 15.2095 4.65317 14.6725 5.71987 14.1356 6.78657 13.8671 8.1265 13.8671 9.73967 13.8671 11.4101 14.1356 12.787 14.6725 13.8704 15.2095 14.9538 16.0292 15.6793 17.1317 16.0468L16.9598 16.598C15.5614 16.2305 14.49 15.4394 13.7454 14.2248 13.0009 13.0101 12.6286 11.539 12.6286 9.81126 12.6286 8.08832 13.0021 6.61714 13.749 5.39771 14.4959 4.17829 15.5662 3.38483 16.9598 3.01734Z" fill-rule="evenodd" transform="matrix(1.00034 0 0 1 94.5424 264.947)"/><text font-family="Cambria Math,Cambria Math_MSFontService,sans-serif" font-weight="400" font-size="14.6667" transform="matrix(1 0 0 0.999661 111.975 279)">𝑥</text><text font-family="Cambria Math,Cambria Math_MSFontService,sans-serif" font-weight="400" font-size="14.6667" transform="matrix(1 0 0 0.999661 120.258 279)">,</text><text font-family="Cambria Math,Cambria Math_MSFontService,sans-serif" font-weight="400" font-size="14.6667" transform="matrix(1 0 0 0.999661 125.706 279)">𝑦</text><text font-family="Cambria Math,Cambria Math_MSFontService,sans-serif" font-weight="400" font-size="14.6667" transform="matrix(1 0 0 0.999661 144.293 279)">=</text><text font-family="Cambria Math,Cambria Math_MSFontService,sans-serif" font-weight="400" font-size="14.6667" transform="matrix(1 0 0 0.999661 159.371 279)">𝑖𝑛𝑓</text><path d="M120.71 2.9887 120.896 2.9887C122.017 3.00779 122.856 3.26432 123.412 3.7583 123.968 4.25227 124.246 4.99562 124.246 5.98833 124.246 6.38447 124.19 6.83549 124.078 7.34139 123.966 7.8473 123.91 8.18616 123.91 8.35797 123.91 8.68729 124.023 8.95575 124.25 9.16336 124.476 9.37098 124.819 9.48194 125.277 9.49626L125.277 10.0833C124.819 10.0976 124.476 10.2086 124.25 10.4162 124.023 10.6238 123.91 10.8923 123.91 11.2216 123.91 11.3934 123.966 11.7323 124.078 12.2382 124.19 12.7441 124.246 13.1951 124.246 13.5912 124.246 14.6174 123.968 15.3774 123.412 15.8714 122.856 16.3653 122.017 16.6219 120.896 16.641L120.71 16.641 120.71 16.0969 120.817 16.0969C121.509 16.0969 122.051 15.9167 122.442 15.5564 122.833 15.196 123.029 14.5839 123.029 13.7201 123.029 13.386 122.981 12.9732 122.886 12.4816 122.79 11.99 122.743 11.6392 122.743 11.4292 122.743 11.0235 122.862 10.6906 123.101 10.4305 123.339 10.1704 123.623 9.9783 123.953 9.85421L123.953 9.72535C123.623 9.60126 123.339 9.40916 123.101 9.14904 122.862 8.88894 122.743 8.55604 122.743 8.15036 122.743 7.94036 122.79 7.58957 122.886 7.09798 122.981 6.6064 123.029 6.19356 123.029 5.85947 123.029 5.02902 122.833 4.43363 122.442 4.07329 122.051 3.71296 121.509 3.53279 120.817 3.53279L120.71 3.53279ZM91.2948 2.9887 91.4809 2.9887 91.4809 3.53279 91.3735 3.53279C90.6815 3.53279 90.1398 3.71296 89.7484 4.07329 89.3571 4.43363 89.1614 5.02664 89.1614 5.85231 89.1614 6.1864 89.2091 6.59924 89.3046 7.09083 89.4 7.58241 89.4477 7.9332 89.4477 8.1432 89.4477 8.54888 89.3284 8.88177 89.0898 9.14189 88.8512 9.402 88.5672 9.5941 88.2379 9.71819L88.2379 9.84705C88.5672 9.97114 88.8512 10.1632 89.0898 10.4234 89.3284 10.6835 89.4477 11.0164 89.4477 11.422 89.4477 11.632 89.4 11.9828 89.3046 12.4744 89.2091 12.966 89.1614 13.3788 89.1614 13.7129 89.1614 14.5816 89.3571 15.196 89.7484 15.5564 90.1398 15.9167 90.6815 16.0969 91.3735 16.0969L91.4809 16.0969 91.4809 16.641 91.2948 16.641C90.1732 16.6219 89.3344 16.3653 88.7784 15.8714 88.2224 15.3774 87.9444 14.615 87.9444 13.5841 87.9444 13.1879 88.0004 12.7369 88.1126 12.231 88.2247 11.7251 88.2808 11.3862 88.2808 11.2144 88.2808 10.8851 88.1675 10.6166 87.9408 10.409 87.7141 10.2014 87.3716 10.0905 86.9134 10.0761L86.9134 9.4891C87.3716 9.47478 87.7141 9.36382 87.9408 9.15621 88.1675 8.94859 88.2808 8.68013 88.2808 8.35081 88.2808 8.179 88.2247 7.84014 88.1126 7.33423 88.0004 6.82833 87.9444 6.37731 87.9444 5.98117 87.9444 4.99323 88.2224 4.25227 88.7784 3.7583 89.3344 3.26432 90.1732 3.00779 91.2948 2.9887Z" fill-rule="evenodd" transform="matrix(1.00034 0 0 1 94.5424 264.947)"/><text font-family="Cambria Math,Cambria Math_MSFontService,sans-serif" font-weight="400" font-size="14.6667" transform="matrix(1 0 0 0.999661 186.487 279)">𝐿</text><path d="M114.659 3.01734C116.052 3.38483 117.123 4.17829 117.869 5.39771 118.616 6.61714 118.99 8.08832 118.99 9.81126 118.99 11.539 118.618 13.0101 117.873 14.2248 117.129 15.4394 116.057 16.2305 114.659 16.598L114.487 16.0468C115.589 15.6793 116.409 14.9538 116.946 13.8704 117.483 12.787 117.751 11.4101 117.751 9.73967 117.751 8.1265 117.484 6.78657 116.95 5.71987 116.415 4.65317 115.587 3.93608 114.465 3.56858ZM105.667 3.01734 105.86 3.56858C104.743 3.93608 103.916 4.65317 103.379 5.71987 102.842 6.78657 102.574 8.1265 102.574 9.73967 102.574 11.4101 102.842 12.787 103.379 13.8704 103.916 14.9538 104.736 15.6793 105.838 16.0468L105.667 16.598C104.268 16.2305 103.197 15.4394 102.452 14.2248 101.708 13.0101 101.335 11.539 101.335 9.81126 101.335 8.08832 101.709 6.61714 102.456 5.39771 103.203 4.17829 104.273 3.38483 105.667 3.01734Z" fill-rule="evenodd" transform="matrix(1.00034 0 0 1 94.5424 264.947)"/><text font-family="Cambria Math,Cambria Math_MSFontService,sans-serif" font-weight="400" font-size="14.6667" transform="matrix(1 0 0 0.999661 200.712 279)">𝛾</text><text font-family="Cambria Math,Cambria Math_MSFontService,sans-serif" font-weight="400" font-size="14.6667" transform="matrix(1 0 0 0.999661 261.648 290)">𝑑</text><path d="M40.332 3.01734C41.7256 3.38483 42.7959 4.17829 43.5428 5.39771 44.2898 6.61714 44.6632 8.08832 44.6632 9.81126 44.6632 11.539 44.291 13.0101 43.5464 14.2248 42.8019 15.4394 41.7304 16.2305 40.332 16.598L40.1602 16.0468C41.2627 15.6793 42.0824 14.9538 42.6193 13.8704 43.1562 12.787 43.4247 11.4101 43.4247 9.73967 43.4247 8.1265 43.1574 6.78657 42.6229 5.71987 42.0884 4.65317 41.2603 3.93608 40.1387 3.56858ZM17.2532 3.01734 17.4465 3.56858C16.3297 3.93608 15.5028 4.65317 14.9659 5.71987 14.4289 6.78657 14.1605 8.1265 14.1605 9.73967 14.1605 11.4101 14.4289 12.787 14.9659 13.8704 15.5028 14.9538 16.3225 15.6793 17.425 16.0468L17.2532 16.598C15.8548 16.2305 14.7833 15.4394 14.0388 14.2248 13.2942 13.0101 12.922 11.539 12.922 9.81126 12.922 8.08832 13.2954 6.61714 14.0423 5.39771 14.7893 4.17829 15.8595 3.38483 17.2532 3.01734Z" fill-rule="evenodd" transform="matrix(1.00034 0 0 1 258.981 276.485)"/><text font-family="Cambria Math,Cambria Math_MSFontService,sans-serif" font-weight="400" font-size="14.6667" transform="matrix(1 0 0 0.999661 276.707 290)">𝑥</text><text font-family="Cambria Math,Cambria Math_MSFontService,sans-serif" font-weight="400" font-size="14.6667" transform="matrix(1 0 0 0.999661 284.99 290)">,</text><text font-family="Cambria Math,Cambria Math_MSFontService,sans-serif" font-weight="400" font-size="14.6667" transform="matrix(1 0 0 0.999661 290.438 290)">𝑦</text><text font-family="Cambria Math,Cambria Math_MSFontService,sans-serif" font-weight="400" font-size="14.6667" transform="matrix(1 0 0 0.999661 309.024 290)">=</text><path d="M111.956 3.15089 113.058 3.15089 113.058 16.4738 111.956 16.4738ZM108.842 3.15089 109.944 3.15089 109.944 16.4738 108.842 16.4738ZM69.9825 3.15089 71.085 3.15089 71.085 16.4738 69.9825 16.4738ZM66.8683 3.15089 67.9708 3.15089 67.9708 16.4738 66.8683 16.4738Z" fill-rule="evenodd" transform="matrix(1.00034 0 0 1 258.981 276.485)"/><text font-family="Cambria Math,Cambria Math_MSFontService,sans-serif" font-weight="400" font-size="14.6667" transform="matrix(1 0 0 0.999661 331.859 290)">𝑥</text><text font-family="Cambria Math,Cambria Math_MSFontService,sans-serif" font-weight="400" font-size="14.6667" transform="matrix(1 0 0 0.999661 343.403 290)">−</text><text font-family="Cambria Math,Cambria Math_MSFontService,sans-serif" font-weight="400" font-size="14.6667" transform="matrix(1 0 0 0.999661 357.668 290)">𝑦</text><text font-family="Yu Gothic,Yu Gothic_MSFontService,sans-serif" font-weight="400" font-size="14.6667" transform="matrix(1 0 0 0.999661 394.464 98)">体</text><text font-family="Calibri,Calibri_MSFontService,sans-serif" font-weight="400" font-size="14.6667" transform="matrix(1 0 0 0.999661 409.135 98)">,</text><text font-family="Yu Gothic,Yu Gothic_MSFontService,sans-serif" font-weight="400" font-size="14.6667" transform="matrix(1 0 0 0.999661 416.138 98)">加法</text><text font-family="Calibri,Calibri_MSFontService,sans-serif" font-weight="400" font-size="14.6667" transform="matrix(1 0 0 0.999661 445.481 98)">,</text><text font-family="Yu Gothic,Yu Gothic_MSFontService,sans-serif" font-weight="400" font-size="14.6667" transform="matrix(1 0 0 0.999661 423.807 115)">スカラー倍</text><text font-family="Cambria Math,Cambria Math_MSFontService,sans-serif" font-weight="400" font-size="14.6667" transform="matrix(1 0 0 0.999661 376.577 149)">𝑇</text><text font-family="Cambria Math,Cambria Math_MSFontService,sans-serif" font-weight="400" font-size="10.7067" transform="matrix(1 0 0 0.999661 383.673 152)">2</text><text font-family="Yu Gothic,Yu Gothic_MSFontService,sans-serif" font-weight="400" font-size="14.6667" transform="matrix(1 0 0 0.999661 151.3 351)">完備化</text><text font-family="Yu Gothic,Yu Gothic_MSFontService,sans-serif" font-weight="400" font-size="14.6667" transform="matrix(1 0 0 0.999661 153.968 454)">完備化</text><path d="M23.4758 6.14987 24.5783 6.14987 24.5783 19.4728 23.4758 19.4728ZM20.3616 6.14987 21.4641 6.14987 21.4641 19.4728 20.3616 19.4728ZM7.44246 6.14987 8.54495 6.14987 8.54495 19.4728 7.44246 19.4728ZM4.32828 6.14987 5.43077 6.14987 5.43077 19.4728 4.32828 19.4728Z" fill-rule="evenodd" transform="matrix(1.00034 0 0 1 158.193 378.928)"/><text font-family="Cambria Math,Cambria Math_MSFontService,sans-serif" font-weight="400" font-size="14.6667" transform="matrix(1 0 0 0.999661 168.51 396)">𝑥</text><text font-family="Cambria Math,Cambria Math_MSFontService,sans-serif" font-weight="400" font-size="14.6667" transform="matrix(1 0 0 0.999661 188.623 396)">=</text><path d="M54.9146 2.68287 56.9192 2.68287 56.9192 2.99898 72.4754 2.99898 88.9698 2.99898 88.9698 3.99864 72.4754 3.99864 55.981 3.99864 55.981 3.63502 55.4873 3.63502 50.834 20.8883 50.1395 20.8883 47.1757 14.5167 45.9658 15.0537 45.7439 14.5167 48.0921 13.4429 50.5691 18.9697Z" fill-rule="evenodd" transform="matrix(1.00034 0 0 1 158.193 378.928)"/><path d="M85.1915 6.11407 88.048 12.5429 88.048 13.0726 85.1915 19.5086 84.4255 19.2366 86.7236 12.8078 84.4255 6.3718ZM60.138 6.11407 60.8969 6.38612 58.5988 12.8149 60.8969 19.2509 60.138 19.5086 57.2815 13.0798 57.2815 12.55Z" fill-rule="evenodd" transform="matrix(1.00034 0 0 1 158.193 378.928)"/><text font-family="Cambria Math,Cambria Math_MSFontService,sans-serif" font-weight="400" font-size="14.6667" transform="matrix(1 0 0 0.999661 219.874 396)">𝑥</text><text font-family="Cambria Math,Cambria Math_MSFontService,sans-serif" font-weight="400" font-size="14.6667" transform="matrix(1 0 0 0.999661 228.156 396)">,</text><text font-family="Cambria Math,Cambria Math_MSFontService,sans-serif" font-weight="400" font-size="14.6667" transform="matrix(1 0 0 0.999661 233.605 396)">𝑥</text><text font-family="Yu Gothic,Yu Gothic_MSFontService,sans-serif" font-weight="400" font-size="14.6667" transform="matrix(1 0 0 0.999661 311.852 352)">ノルム</text><path d="M60.8025 3.15089 61.905 3.15089 61.905 16.4738 60.8025 16.4738ZM57.6883 3.15089 58.7908 3.15089 58.7908 16.4738 57.6883 16.4738ZM48.8825 3.15089 49.985 3.15089 49.985 16.4738 48.8825 16.4738ZM45.7683 3.15089 46.8708 3.15089 46.8708 16.4738 45.7683 16.4738Z" fill-rule="evenodd" transform="matrix(1.00034 0 0 1 311.852 337.94)"/><text font-family="Cambria Math,Cambria Math_MSFontService,sans-serif" font-weight="400" font-size="14.6667" transform="matrix(1 0 0 0.999661 363.623 352)">∙</text><text font-family="Yu Gothic,Yu Gothic_MSFontService,sans-serif" font-weight="400" font-size="14.6667" transform="matrix(1 0 0 0.999661 279.811 377)">エルミート</text><text font-family="Yu Gothic,Yu Gothic_MSFontService,sans-serif" font-weight="400" font-size="14.6667" transform="matrix(1 0 0 0.999661 276.23 396)">内積</text><path d="M45.4649 4.11475 48.3213 10.5436 48.3213 11.0733 45.4649 17.5093 44.6989 17.2373 46.9969 10.8084 44.6989 4.37248ZM33.0847 4.11475 33.8435 4.38679 31.5455 10.8156 33.8435 17.2516 33.0847 17.5093 30.2282 11.0805 30.2282 10.5507Z" fill-rule="evenodd" transform="matrix(1.00034 0 0 1 276.23 380.737)"/><text font-family="Cambria Math,Cambria Math_MSFontService,sans-serif" font-weight="400" font-size="14.6667" transform="matrix(1 0 0 0.999661 310.848 396)"></text><text font-family="Cambria Math,Cambria Math_MSFontService,sans-serif" font-weight="400" font-size="14.6667" transform="matrix(1 0 0 0.999661 314.016 396)">,</text><text font-family="Cambria Math,Cambria Math_MSFontService,sans-serif" font-weight="400" font-size="14.6667" transform="matrix(1 0 0 0.999661 317.017 396)"></text><text font-family="Cambria Math,Cambria Math_MSFontService,sans-serif" font-weight="400" font-size="14.6667" transform="matrix(1 0 0 0.999661 264.669 200)">𝒯</text><text font-family="Cambria Math,Cambria Math_MSFontService,sans-serif" font-weight="400" font-size="14.6667" transform="matrix(1 0 0 0.999661 279.154 200)">=</text><path d="M92.9296 2.9887 93.1157 2.9887C94.2373 3.00779 95.0761 3.26432 95.6321 3.7583 96.1881 4.25227 96.4661 4.99562 96.4661 5.98833 96.4661 6.38447 96.41 6.83549 96.2979 7.34139 96.1857 7.8473 96.1296 8.18616 96.1296 8.35797 96.1296 8.68729 96.243 8.95575 96.4697 9.16336 96.6964 9.37098 97.0388 9.48194 97.497 9.49626L97.497 10.0833C97.0388 10.0976 96.6964 10.2086 96.4697 10.4162 96.243 10.6238 96.1296 10.8923 96.1296 11.2216 96.1296 11.3934 96.1857 11.7323 96.2979 12.2382 96.41 12.7441 96.4661 13.1951 96.4661 13.5912 96.4661 14.6174 96.1881 15.3774 95.6321 15.8714 95.0761 16.3653 94.2373 16.6219 93.1157 16.641L92.9296 16.641 92.9296 16.0969 93.0369 16.0969C93.729 16.0969 94.2707 15.9167 94.662 15.5564 95.0534 15.196 95.2491 14.5839 95.2491 13.7201 95.2491 13.386 95.2013 12.9732 95.1059 12.4816 95.0104 11.99 94.9627 11.6392 94.9627 11.4292 94.9627 11.0235 95.082 10.6906 95.3207 10.4305 95.5593 10.1704 95.8433 9.9783 96.1726 9.85421L96.1726 9.72535C95.8433 9.60126 95.5593 9.40916 95.3207 9.14904 95.082 8.88894 94.9627 8.55604 94.9627 8.15036 94.9627 7.94036 95.0104 7.58957 95.1059 7.09798 95.2013 6.6064 95.2491 6.19356 95.2491 5.85947 95.2491 5.02902 95.0534 4.43363 94.662 4.07329 94.2707 3.71296 93.729 3.53279 93.0369 3.53279L92.9296 3.53279ZM37.2681 2.9887 37.4542 2.9887 37.4542 3.53279 37.3469 3.53279C36.6548 3.53279 36.1131 3.71296 35.7218 4.07329 35.3304 4.43363 35.1347 5.02664 35.1347 5.85231 35.1347 6.1864 35.1824 6.59924 35.2779 7.09083 35.3733 7.58241 35.4211 7.9332 35.4211 8.1432 35.4211 8.54888 35.3018 8.88177 35.0631 9.14189 34.8245 9.402 34.5405 9.5941 34.2112 9.71819L34.2112 9.84705C34.5405 9.97114 34.8245 10.1632 35.0631 10.4234 35.3018 10.6835 35.4211 11.0164 35.4211 11.422 35.4211 11.632 35.3733 11.9828 35.2779 12.4744 35.1824 12.966 35.1347 13.3788 35.1347 13.7129 35.1347 14.5816 35.3304 15.196 35.7218 15.5564 36.1131 15.9167 36.6548 16.0969 37.3469 16.0969L37.4542 16.0969 37.4542 16.641 37.2681 16.641C36.1465 16.6219 35.3077 16.3653 34.7517 15.8714 34.1957 15.3774 33.9177 14.615 33.9177 13.5841 33.9177 13.1879 33.9738 12.7369 34.0859 12.231 34.1981 11.7251 34.2542 11.3862 34.2542 11.2144 34.2542 10.8851 34.1408 10.6166 33.9141 10.409 33.6874 10.2014 33.345 10.0905 32.8868 10.0761L32.8868 9.4891C33.345 9.47478 33.6874 9.36382 33.9141 9.15621 34.1408 8.94859 34.2542 8.68013 34.2542 8.35081 34.2542 8.179 34.1981 7.84014 34.0859 7.33423 33.9738 6.82833 33.9177 6.37731 33.9177 5.98117 33.9177 4.99323 34.1957 4.25227 34.7517 3.7583 35.3077 3.26432 36.1465 3.00779 37.2681 2.9887Z" fill-rule="evenodd" transform="matrix(1.00034 0 0 1 262.015 185.888)"/><text font-family="Cambria Math,Cambria Math_MSFontService,sans-serif" font-weight="400" font-size="14.6667" transform="matrix(1 0 0 0.999661 299.915 200)">⋃</text><text font-family="Cambria Math,Cambria Math_MSFontService,sans-serif" font-weight="400" font-size="14.6667" transform="matrix(1 0 0 0.999661 311.252 200)">𝐵</text><path d="M86.8787 3.01734C88.2723 3.38483 89.3426 4.17829 90.0895 5.39771 90.8364 6.61714 91.2099 8.08832 91.2099 9.81126 91.2099 11.539 90.8376 13.0101 90.0931 14.2248 89.3485 15.4394 88.2771 16.2305 86.8787 16.598L86.7069 16.0468C87.8093 15.6793 88.6291 14.9538 89.166 13.8704 89.7029 12.787 89.9714 11.4101 89.9714 9.73967 89.9714 8.1265 89.7041 6.78657 89.1696 5.71987 88.635 4.65317 87.807 3.93608 86.6854 3.56858ZM64.8998 3.01734 65.0931 3.56858C63.9763 3.93608 63.1495 4.65317 62.6125 5.71987 62.0756 6.78657 61.8071 8.1265 61.8071 9.73967 61.8071 11.4101 62.0756 12.787 62.6125 13.8704 63.1495 14.9538 63.9692 15.6793 65.0717 16.0468L64.8998 16.598C63.5014 16.2305 62.43 15.4394 61.6854 14.2248 60.9409 13.0101 60.5686 11.539 60.5686 9.81126 60.5686 8.08832 60.9421 6.61714 61.689 5.39771 62.4359 4.17829 63.5062 3.38483 64.8998 3.01734Z" fill-rule="evenodd" transform="matrix(1.00034 0 0 1 262.015 185.888)"/><text font-family="Cambria Math,Cambria Math_MSFontService,sans-serif" font-weight="400" font-size="14.6667" transform="matrix(1 0 0 0.999661 327.404 200)">𝑥</text><text font-family="Cambria Math,Cambria Math_MSFontService,sans-serif" font-weight="400" font-size="14.6667" transform="matrix(1 0 0 0.999661 335.687 200)">,</text><text font-family="Cambria Math,Cambria Math_MSFontService,sans-serif" font-weight="400" font-size="14.6667" transform="matrix(1 0 0 0.999661 341.135 200)">𝑟</text><text font-family="Yu Gothic,Yu Gothic_MSFontService,sans-serif" font-weight="400" font-size="14.6667" transform="matrix(1 0 0 0.999661 592.229 76)">二項</text><text font-family="Yu Gothic,Yu Gothic_MSFontService,sans-serif" font-weight="400" font-size="14.6667" transform="matrix(1 0 0 0.999661 621.572 76)">演算</text><text font-family="Yu Gothic,Yu Gothic_MSFontService,sans-serif" font-weight="400" font-size="14.6667" transform="matrix(1 0 0 0.999661 650.915 76)">×</text><text font-family="Calibri,Calibri_MSFontService,sans-serif" font-weight="400" font-size="14.6667" transform="matrix(1 0 0 0.999661 665.587 76)">1</text><text font-family="Yu Gothic,Yu Gothic_MSFontService,sans-serif" font-weight="400" font-size="14.6667" transform="matrix(1 0 0 0.999661 673.09 76)">種類</text><path d="M34.4115 3.11509 37.268 9.5439 37.268 10.0737 34.4115 16.5096 33.6455 16.2376 35.9436 9.80878 33.6455 3.37281ZM6.08467 3.11509 6.84352 3.38713 4.54547 9.81594 6.84352 16.2519 6.08467 16.5096 3.22821 10.0808 3.22821 9.55106Z" fill="#00B050" fill-rule="evenodd" transform="matrix(1.00034 0 0 1 515.373 109.536)"/><text fill="#00B050" font-family="Cambria Math,Cambria Math_MSFontService,sans-serif" font-weight="400" font-size="14.6667" transform="matrix(1 0 0 0.999661 522.983 124)">ℤ</text><text fill="#00B050" font-family="Cambria Math,Cambria Math_MSFontService,sans-serif" font-weight="400" font-size="14.6667" transform="matrix(1 0 0 0.999661 531.819 124)">,</text><text fill="#00B050" font-family="Cambria Math,Cambria Math_MSFontService,sans-serif" font-weight="400" font-size="14.6667" transform="matrix(1 0 0 0.999661 537.267 124)">−</text><path d="M36.0782 3.11509 38.9347 9.5439 38.9347 10.0737 36.0782 16.5096 35.3122 16.2376 37.6102 9.80878 35.3122 3.37281ZM6.08467 3.11509 6.84352 3.38713 4.54547 9.81594 6.84352 16.2519 6.08467 16.5096 3.22821 10.0808 3.22821 9.55106Z" fill="#00B050" fill-rule="evenodd" transform="matrix(1.00034 0 0 1 513.219 195.247)"/><text fill="#00B050" font-family="Cambria Math,Cambria Math_MSFontService,sans-serif" font-weight="400" font-size="14.6667" transform="matrix(1 0 0 0.999661 520.828 209)">ℕ</text><text fill="#00B050" font-family="Cambria Math,Cambria Math_MSFontService,sans-serif" font-weight="400" font-size="14.6667" transform="matrix(1 0 0 0.999661 531.332 209)">,</text><text fill="#00B050" font-family="Cambria Math,Cambria Math_MSFontService,sans-serif" font-weight="400" font-size="14.6667" transform="matrix(1 0 0 0.999661 536.78 209)">+</text><path d="M31.4382 3.11509 34.2947 9.5439 34.2947 10.0737 31.4382 16.5096 30.6722 16.2376 32.9702 9.80878 30.6722 3.37281ZM6.058 3.11509 6.81686 3.38713 4.51881 9.81594 6.81686 16.2519 6.058 16.5096 3.20155 10.0808 3.20155 9.55106Z" fill="#00B050" fill-rule="evenodd" transform="matrix(1.00034 0 0 1 518.35 275.488)"/><text fill="#00B050" font-family="Cambria Math,Cambria Math_MSFontService,sans-serif" font-weight="400" font-size="14.6667" transform="matrix(1 0 0 0.999661 525.932 289)">ℤ</text><text fill="#00B050" font-family="Cambria Math,Cambria Math_MSFontService,sans-serif" font-weight="400" font-size="14.6667" transform="matrix(1 0 0 0.999661 534.769 289)">,</text><text fill="#00B050" font-family="Cambria Math,Cambria Math_MSFontService,sans-serif" font-weight="400" font-size="14.6667" transform="matrix(1 0 0 0.999661 537.77 289)">×</text><text fill="#00B050" font-family="Cambria Math,Cambria Math_MSFontService,sans-serif" font-weight="400" font-size="14.6667" transform="matrix(1 0 0 0.999661 505.96 377)">𝐺𝐿</text><text fill="#00B050" font-family="Cambria Math,Cambria Math_MSFontService,sans-serif" font-weight="400" font-size="10.7067" transform="matrix(1 0 0 0.999661 522.965 380)">𝑛</text><path d="M44.272 3.01734C45.6656 3.38483 46.7359 4.17829 47.4828 5.39771 48.2298 6.61714 48.6032 8.08832 48.6032 9.81126 48.6032 11.539 48.2309 13.0101 47.4864 14.2248 46.7419 15.4394 45.6704 16.2305 44.272 16.598L44.1002 16.0468C45.2027 15.6793 46.0224 14.9538 46.5593 13.8704 47.0962 12.787 47.3647 11.4101 47.3647 9.73967 47.3647 8.1265 47.0974 6.78657 46.5629 5.71987 46.0284 4.65317 45.2003 3.93608 44.0787 3.56858ZM32.3398 3.01734 32.5331 3.56858C31.4163 3.93608 30.5895 4.65317 30.0525 5.71987 29.5156 6.78657 29.2471 8.1265 29.2471 9.73967 29.2471 11.4101 29.5156 12.787 30.0525 13.8704 30.5895 14.9538 31.4092 15.6793 32.5117 16.0468L32.3398 16.598C30.9414 16.2305 29.87 15.4394 29.1254 14.2248 28.3809 13.0101 28.0086 11.539 28.0086 9.81126 28.0086 8.08832 28.3821 6.61714 29.129 5.39771 29.8759 4.17829 30.9462 3.38483 32.3398 3.01734Z" fill="#00B050" fill-rule="evenodd" transform="matrix(1.00034 0 0 1 504.026 362.626)"/><text fill="#00B050" font-family="Cambria Math,Cambria Math_MSFontService,sans-serif" font-weight="400" font-size="14.6667" transform="matrix(1 0 0 0.999661 536.843 377)">ℝ</text><path d="M34.4115 3.11509 37.268 9.5439 37.268 10.0737 34.4115 16.5096 33.6455 16.2376 35.9436 9.80878 33.6455 3.37281ZM6.08467 3.11509 6.84352 3.38713 4.54547 9.81594 6.84352 16.2519 6.08467 16.5096 3.22821 10.0808 3.22821 9.55106Z" fill="#00B050" fill-rule="evenodd" transform="matrix(1.00034 0 0 1 514.797 448.916)"/><text fill="#00B050" font-family="Cambria Math,Cambria Math_MSFontService,sans-serif" font-weight="400" font-size="14.6667" transform="matrix(1 0 0 0.999661 522.406 463)">ℤ</text><text fill="#00B050" font-family="Cambria Math,Cambria Math_MSFontService,sans-serif" font-weight="400" font-size="14.6667" transform="matrix(1 0 0 0.999661 531.243 463)">,</text><text fill="#00B050" font-family="Cambria Math,Cambria Math_MSFontService,sans-serif" font-weight="400" font-size="14.6667" transform="matrix(1 0 0 0.999661 536.691 463)">+</text><text font-family="Yu Gothic,Yu Gothic_MSFontService,sans-serif" font-weight="400" font-size="14.6667" transform="matrix(1 0 0 0.999661 552.243 163)">結合性</text><text font-family="Yu Gothic,Yu Gothic_MSFontService,sans-serif" font-weight="400" font-size="14.6667" transform="matrix(1 0 0 0.999661 552.242 247)">単位元</text><text font-family="Yu Gothic,Yu Gothic_MSFontService,sans-serif" font-weight="400" font-size="14.6667" transform="matrix(1 0 0 0.999661 567.359 332)">逆元</text><text font-family="Yu Gothic,Yu Gothic_MSFontService,sans-serif" font-weight="400" font-size="14.6667" transform="matrix(1 0 0 0.999661 553.278 417)">可換性</text><text fill="#00B050" font-family="Cambria Math,Cambria Math_MSFontService,sans-serif" font-weight="400" font-size="14.6667" transform="matrix(1 0 0 0.999661 831.294 47)">𝑀</text><text fill="#00B050" font-family="Cambria Math,Cambria Math_MSFontService,sans-serif" font-weight="400" font-size="10.7067" transform="matrix(1 0 0 0.999661 842.938 50)">𝑛</text><path d="M38.9253 3.01734C40.319 3.38483 41.3892 4.17829 42.1362 5.39771 42.8831 6.61714 43.2566 8.08832 43.2566 9.81126 43.2566 11.539 42.8843 13.0101 42.1397 14.2248 41.3952 15.4394 40.3237 16.2305 38.9253 16.598L38.7535 16.0468C39.856 15.6793 40.6757 14.9538 41.2127 13.8704 41.7496 12.787 42.018 11.4101 42.018 9.73967 42.018 8.1265 41.7508 6.78657 41.2162 5.71987 40.6817 4.65317 39.8536 3.93608 38.732 3.56858ZM26.9932 3.01734 27.1865 3.56858C26.0697 3.93608 25.2428 4.65317 24.7059 5.71987 24.1689 6.78657 23.9005 8.1265 23.9005 9.73967 23.9005 11.4101 24.1689 12.787 24.7059 13.8704 25.2428 14.9538 26.0625 15.6793 27.165 16.0468L26.9932 16.598C25.5948 16.2305 24.5233 15.4394 23.7788 14.2248 23.0342 13.0101 22.662 11.539 22.662 9.81126 22.662 8.08832 23.0354 6.61714 23.7823 5.39771 24.5293 4.17829 25.5995 3.38483 26.9932 3.01734Z" fill="#00B050" fill-rule="evenodd" transform="matrix(1.00034 0 0 1 829.347 33.0677)"/><text fill="#00B050" font-family="Cambria Math,Cambria Math_MSFontService,sans-serif" font-weight="400" font-size="14.6667" transform="matrix(1 0 0 0.999661 856.816 47)">ℝ</text><text fill="#00B050" font-family="Cambria Math,Cambria Math_MSFontService,sans-serif" font-weight="400" font-size="14.6667" transform="matrix(1 0 0 0.999661 830.531 136)">ℤ</text><text fill="#00B050" font-family="Cambria Math,Cambria Math_MSFontService,sans-serif" font-weight="400" font-size="14.6667" transform="matrix(1 0 0 0.999661 839.367 136)">/</text><text fill="#00B050" font-family="Cambria Math,Cambria Math_MSFontService,sans-serif" font-weight="400" font-size="14.6667" transform="matrix(1 0 0 0.999661 846.536 136)">𝑛ℤ</text><text fill="#00B050" font-family="Cambria Math,Cambria Math_MSFontService,sans-serif" font-weight="400" font-size="14.6667" transform="matrix(1 0 0 0.999661 863.709 136)">,</text><text fill="#00B050" font-family="Cambria Math,Cambria Math_MSFontService,sans-serif" font-weight="400" font-size="14.6667" transform="matrix(1 0 0 0.999661 869.157 136)">𝑛</text><text fill="#00B050" font-family="Cambria Math,Cambria Math_MSFontService,sans-serif" font-weight="400" font-size="14.6667" transform="matrix(1 0 0 0.999661 881.822 136)">∉</text><text fill="#00B050" font-family="Cambria Math,Cambria Math_MSFontService,sans-serif" font-weight="400" font-size="14.6667" transform="matrix(1 0 0 0.999661 895.233 136)">ℙ</text><text fill="#00B050" font-family="Cambria Math,Cambria Math_MSFontService,sans-serif" font-weight="400" font-size="14.6667" transform="matrix(1 0 0 0.999661 828.177 220)">ℤ</text><path d="M52.3022 1.78486 55.7099 1.78486 55.7099 25.8392 52.3022 25.8392 52.3022 25.2164 54.3854 25.2164 54.3854 2.4077 52.3022 2.4077ZM30.4451 1.78486 33.8528 1.78486 33.8528 2.4077 31.7695 2.4077 31.7695 25.2164 33.8528 25.2164 33.8528 25.8392 30.4451 25.8392Z" fill="#00B050" fill-rule="evenodd" transform="matrix(1.00034 0 0 1 808.184 202.41)"/><path d="M43.9851 3.99864 51.9824 3.99864 51.9824 4.9983 44.668 4.9983 44.668 5.27751 43.3722 5.27751 39.5206 18.4358 38.8262 18.4358 35.8624 12.0643 34.6525 12.6012 34.4306 12.0643 36.7787 10.9904 39.3059 16.5458 42.8424 4.32536 43.9851 4.32536Z" fill="#00B050" fill-rule="evenodd" transform="matrix(1.00034 0 0 1 808.184 202.41)"/><text fill="#00B050" font-family="Cambria Math,Cambria Math_MSFontService,sans-serif" font-weight="400" font-size="14.6667" transform="matrix(1 0 0 0.999661 852.012 220)">5</text><text fill="#00B050" font-family="Cambria Math,Cambria Math_MSFontService,sans-serif" font-weight="400" font-size="14.6667" transform="matrix(1 0 0 0.999661 828.819 308)">ℤ</text><path d="M48.3212 2.9887 51.5141 2.9887 51.5141 16.641 48.3212 16.641 48.3212 16.0897 50.3257 16.0897 50.3257 3.53995 48.3212 3.53995ZM34.6523 2.9887 37.8452 2.9887 37.8452 3.53995 35.8407 3.53995 35.8407 16.0897 37.8452 16.0897 37.8452 16.641 34.6523 16.641Z" fill="#00B050" fill-rule="evenodd" transform="matrix(1.00034 0 0 1 804.624 294.049)"/><text fill="#00B050" font-family="Cambria Math,Cambria Math_MSFontService,sans-serif" font-weight="400" font-size="14.6667" transform="matrix(1 0 0 0.999661 842.791 308)">𝑋</text><text fill="#00B050" font-family="Cambria Math,Cambria Math_MSFontService,sans-serif" font-weight="400" font-size="14.6667" transform="matrix(1 0 0 0.999661 825.484 393)">ℤ</text><path d="M79.8822 1.70427 83.5619 1.70427 83.5619 38.7093 79.8822 38.7093 79.8822 38.022 82.1659 38.022 82.1659 2.39153 79.8822 2.39153ZM12.9051 1.70427 16.5848 1.70427 16.5848 2.39153 14.3011 2.39153 14.3011 38.022 16.5848 38.022 16.5848 38.7093 12.9051 38.7093Z" fill="#00B050" fill-rule="evenodd" transform="matrix(1.00034 0 0 1 825.484 364.791)"/><text fill="#00B050" font-family="Cambria Math,Cambria Math_MSFontService,sans-serif" font-weight="400" font-size="14.6667" transform="matrix(1 0 0 0.999661 842.397 382)">1</text><text fill="#00B050" font-family="Cambria Math,Cambria Math_MSFontService,sans-serif" font-weight="400" font-size="14.6667" transform="matrix(1 0 0 0.999661 853.827 382)">+</text><path d="M51.9824 3.99864 65.4778 3.99864 78.9732 3.99864 78.9732 4.99831 65.4778 4.99831 51.9824 4.99831 51.9824 4.95762 51.7855 4.95762 47.934 18.1159 47.2395 18.1159 44.2757 11.7444 43.0658 12.2813 42.8439 11.7444 45.1921 10.6705 47.7192 16.2259 51.2558 4.00546 51.9824 4.00546Z" fill="#00B050" fill-rule="evenodd" transform="matrix(1.00034 0 0 1 825.484 364.791)"/><text fill="#00B050" font-family="Cambria Math,Cambria Math_MSFontService,sans-serif" font-weight="400" font-size="14.6667" transform="matrix(1 0 0 0.999661 877.729 382)">−</text><text fill="#00B050" font-family="Cambria Math,Cambria Math_MSFontService,sans-serif" font-weight="400" font-size="14.6667" transform="matrix(1 0 0 0.999661 888.733 382)">19</text><text fill="#00B050" font-family="Cambria Math,Cambria Math_MSFontService,sans-serif" font-weight="400" font-size="14.6667" transform="matrix(1 0 0 0.999661 869.646 403)">2</text><path d="M16.9942 22.9922 32.7389 22.9922 48.4836 22.9922 64.2282 22.9922 79.9729 22.9922 79.9729 23.9919 64.2282 23.9919 48.4836 23.9919 32.7389 23.9919 16.9942 23.9919Z" fill="#00B050" fill-rule="evenodd" transform="matrix(1.00034 0 0 1 825.484 364.791)"/><text fill="#00B050" font-family="Cambria Math,Cambria Math_MSFontService,sans-serif" font-weight="400" font-size="14.6667" transform="matrix(1 0 0 0.999661 827.611 478)">ℤ</text><text fill="#00B050" font-family="Cambria Math,Cambria Math_MSFontService,sans-serif" font-weight="400" font-size="14.6667" transform="matrix(1 0 0 0.999661 836.447 478)">,</text><text fill="#00B050" font-family="Cambria Math,Cambria Math_MSFontService,sans-serif" font-weight="400" font-size="14.6667" transform="matrix(1 0 0 0.999661 841.896 478)">ℤ</text><path d="M34.8078 2.9887 38.0008 2.9887 38.0008 16.641 34.8078 16.641 34.8078 16.0897 36.8124 16.0897 36.8124 3.53995 34.8078 3.53995ZM25.8656 2.9887 29.0585 2.9887 29.0585 3.53995 27.054 3.53995 27.054 16.0897 29.0585 16.0897 29.0585 16.641 25.8656 16.641Z" fill="#00B050" fill-rule="evenodd" transform="matrix(1.00034 0 0 1 826.491 463.759)"/><text fill="#00B050" font-family="Cambria Math,Cambria Math_MSFontService,sans-serif" font-weight="400" font-size="14.6667" transform="matrix(1 0 0 0.999661 855.867 478)">𝑖</text><text fill="#00B050" font-family="Cambria Math,Cambria Math_MSFontService,sans-serif" font-weight="400" font-size="14.6667" transform="matrix(1 0 0 0.999661 866.137 478)">,</text><text fill="#00B050" font-family="Cambria Math,Cambria Math_MSFontService,sans-serif" font-weight="400" font-size="14.6667" transform="matrix(1 0 0 0.999661 871.586 478)">ℝ</text><path d="M71.3812 2.9887 74.5741 2.9887 74.5741 16.641 71.3812 16.641 71.3812 16.0897 73.3857 16.0897 73.3857 3.53995 71.3812 3.53995ZM57.7123 2.9887 60.9052 2.9887 60.9052 3.53995 58.9007 3.53995 58.9007 16.0897 60.9052 16.0897 60.9052 16.641 57.7123 16.641Z" fill="#00B050" fill-rule="evenodd" transform="matrix(1.00034 0 0 1 826.491 463.759)"/><text fill="#00B050" font-family="Cambria Math,Cambria Math_MSFontService,sans-serif" font-weight="400" font-size="14.6667" transform="matrix(1 0 0 0.999661 887.725 478)">𝑋</text><text fill="#00B050" font-family="Cambria Math,Cambria Math_MSFontService,sans-serif" font-weight="400" font-size="14.6667" transform="matrix(1 0 0 0.999661 827.07 564)">ℚ</text><text fill="#00B050" font-family="Cambria Math,Cambria Math_MSFontService,sans-serif" font-weight="400" font-size="14.6667" transform="matrix(1 0 0 0.999661 838.241 564)">,</text><text fill="#00B050" font-family="Cambria Math,Cambria Math_MSFontService,sans-serif" font-weight="400" font-size="14.6667" transform="matrix(1 0 0 0.999661 843.689 564)">ℝ</text><text fill="#00B050" font-family="Cambria Math,Cambria Math_MSFontService,sans-serif" font-weight="400" font-size="14.6667" transform="matrix(1 0 0 0.999661 854.693 564)">,</text><text fill="#00B050" font-family="Cambria Math,Cambria Math_MSFontService,sans-serif" font-weight="400" font-size="14.6667" transform="matrix(1 0 0 0.999661 860.142 564)">ℂ</text><text fill="#00B050" font-family="Cambria Math,Cambria Math_MSFontService,sans-serif" font-weight="400" font-size="14.6667" transform="matrix(1 0 0 0.999661 868.978 564)">,</text><text fill="#00B050" font-family="Cambria Math,Cambria Math_MSFontService,sans-serif" font-weight="400" font-size="14.6667" transform="matrix(1 0 0 0.999661 874.426 564)">ℤ</text><text fill="#00B050" font-family="Cambria Math,Cambria Math_MSFontService,sans-serif" font-weight="400" font-size="14.6667" transform="matrix(1 0 0 0.999661 883.263 564)">/</text><text fill="#00B050" font-family="Cambria Math,Cambria Math_MSFontService,sans-serif" font-weight="400" font-size="14.6667" transform="matrix(1 0 0 0.999661 890.432 564)">𝑝ℤ</text><text font-family="Yu Gothic,Yu Gothic_MSFontService,sans-serif" font-weight="400" font-size="14.6667" transform="matrix(1 0 0 0.999661 785.185 95)">可換性</text><text font-family="Yu Gothic,Yu Gothic_MSFontService,sans-serif" font-weight="400" font-size="14.6667" transform="matrix(1 0 0 0.999661 784.295 181)">約分法則</text><text font-family="Yu Gothic,Yu Gothic_MSFontService,sans-serif" font-weight="400" font-size="14.6667" transform="matrix(1 0 0 0.999661 785.184 268)">一意分解</text><text font-family="Yu Gothic,Yu Gothic_MSFontService,sans-serif" font-weight="400" font-size="14.6667" transform="matrix(1 0 0 0.999661 784.306 340)">すべてのイデアルは</text><text font-family="Yu Gothic,Yu Gothic_MSFontService,sans-serif" font-weight="400" font-size="14.6667" transform="matrix(1 0 0 0.999661 784.306 357)">主イデアル</text><text font-family="Yu Gothic,Yu Gothic_MSFontService,sans-serif" font-weight="400" font-size="14.6667" transform="matrix(1 0 0 0.999661 781.157 434)">ユークリッドの互除法</text><text font-family="Yu Gothic,Yu Gothic_MSFontService,sans-serif" font-weight="400" font-size="14.6667" transform="matrix(1 0 0 0.999661 784.518 520)">非</text><text font-family="Calibri,Calibri_MSFontService,sans-serif" font-weight="400" font-size="14.6667" transform="matrix(1 0 0 0.999661 799.189 520)">0</text><text font-family="Yu Gothic,Yu Gothic_MSFontService,sans-serif" font-weight="400" font-size="14.6667" transform="matrix(1 0 0 0.999661 806.692 520)">は逆元を持つ</text><path d="M394.5 550.813C394.5 537.839 411.513 527.321 432.5 527.321 453.487 527.321 470.5 537.839 470.5 550.813 470.5 563.787 453.487 574.305 432.5 574.305 411.513 574.305 394.5 563.787 394.5 550.813Z" stroke="#172C51" stroke-width="1.33379" stroke-miterlimit="8" stroke-dasharray="1.33379 1.33379" fill="none" fill-rule="evenodd"/><path d="M410.5 553.812C410.5 546.911 420.126 541.316 432 541.316 443.874 541.316 453.5 546.911 453.5 553.812 453.5 560.713 443.874 566.308 432 566.308 420.126 566.308 410.5 560.713 410.5 553.812Z" stroke="#172C51" stroke-width="1.33379" stroke-miterlimit="8" stroke-dasharray="1.33379 1.33379" fill="none" fill-rule="evenodd"/><rect x="420" y="534.819" width="24.0001" height="20.9929" fill="#FFFFFF"/><text font-family="Calibri,Calibri_MSFontService,sans-serif" font-style="italic" font-weight="400" font-size="14.6667" transform="matrix(1 0 0 0.999661 427.488 550)">A</text><rect x="420" y="513.826" width="24.0001" height="21.9926" fill="#FFFFFF"/><text font-family="Calibri,Calibri_MSFontService,sans-serif" font-style="italic" font-weight="400" font-size="14.6667" transform="matrix(1 0 0 0.999661 427.738 530)">B</text><text font-family="Yu Gothic,Yu Gothic_MSFontService,sans-serif" font-weight="400" font-size="14.6667" transform="matrix(1 0 0 0.999661 517.894 35)">二項演算</text><text font-family="Cambria Math,Cambria Math_MSFontService,sans-serif" font-weight="400" font-size="14.6667" transform="matrix(1 0 0 0.999661 579.841 35)">×</text><text font-family="Cambria Math,Cambria Math_MSFontService,sans-serif" font-weight="400" font-size="14.6667" transform="matrix(1 0 0 0.999661 593.606 35)">2</text><text font-family="Yu Gothic,Yu Gothic_MSFontService,sans-serif" font-weight="400" font-size="14.6667" transform="matrix(1 0 0 0.999661 601.775 35)">種類</text><text font-family="Cambria Math,Cambria Math_MSFontService,sans-serif" font-weight="400" font-size="14.6667" transform="matrix(1 0 0 0.999661 631.119 35)">(</text><text font-family="Yu Gothic,Yu Gothic_MSFontService,sans-serif" font-weight="400" font-size="14.6667" transform="matrix(1 0 0 0.999661 637.287 35)">加法</text><text font-family="Calibri,Calibri_MSFontService,sans-serif" font-weight="400" font-size="14.6667" transform="matrix(1 0 0 0.999661 666.631 35)">,</text><text font-family="Yu Gothic,Yu Gothic_MSFontService,sans-serif" font-weight="400" font-size="14.6667" transform="matrix(1 0 0 0.999661 673.633 35)">乗法</text><text font-family="Calibri,Calibri_MSFontService,sans-serif" font-weight="400" font-size="14.6667" transform="matrix(1 0 0 0.999661 702.976 35)">)</text><path d="M80.0007 67.9769 80.0008 110.563 75.9994 110.563 75.9993 67.9769ZM84.0021 108.563 78.0001 120.563 71.998 108.563Z" fill="#00B050"/><path d="M2-3.99294e-06 2.00009 42.5862-1.99991 42.5863-2 3.99294e-06ZM6.00008 40.5862 0.000104987 52.5862-5.99992 40.5863Z" fill="#FF0000" transform="matrix(1.00034 0 0 -1 255 215.531)"/><path d="M2-3.99294e-06 2.00009 42.5862-1.99991 42.5863-2 3.99294e-06ZM6.00008 40.5862 0.000104987 52.5862-5.99992 40.5863Z" fill="#FF0000" transform="matrix(1.00034 0 0 -1 255 310.499)"/><path d="M2-3.53174e-06 2.00009 49.4533-1.99991 49.4533-2 3.53174e-06ZM6.00008 47.4533 0.000104987 59.4533-5.99992 47.4533Z" fill="#FF0000" transform="matrix(1.00034 0 0 -1 255 412.334)"/><path d="M605.001 136.954 605.001 169.623 600.999 169.623 600.999 136.954ZM609.002 167.623 603 179.623 596.998 167.623Z" fill="#00B050"/><path d="M605.001 221.925 605.001 254.594 600.999 254.594 600.999 221.925ZM609.002 252.594 603 264.594 596.998 252.594Z" fill="#00B050"/><path d="M605.001 307.896 605.001 340.565 600.999 340.565 600.999 307.896ZM609.002 338.565 603 350.565 596.998 338.565Z" fill="#00B050"/><path d="M605.001 392.867 605.001 425.536 600.999 425.536 600.999 392.867ZM609.002 423.536 603 435.536 596.998 423.536Z" fill="#00B050"/><path d="M777.001 67.9769 777.001 100.647 772.999 100.647 772.999 67.9769ZM781.002 98.6465 775 110.647 768.998 98.6465Z" fill="#00B050"/><path d="M777.001 152.938 777.171 185.607 773.17 185.628 772.999 152.959ZM781.162 183.587 775.222 195.618 769.158 183.649Z" fill="#00B050"/><path d="M777.001 237.919 777.001 270.589 772.999 270.589 772.999 237.919ZM781.002 268.589 775 280.589 768.998 268.589Z" fill="#00B050"/><path d="M777.001 323.89 777.001 356.56 772.999 356.56 772.999 323.89ZM781.002 354.56 775 366.56 768.998 354.56Z" fill="#00B050"/><path d="M777.001 408.861 777.001 441.531 772.999 441.531 772.999 408.861ZM781.002 439.531 775 451.531 768.998 439.531Z" fill="#00B050"/><path d="M777.001 493.832 777.001 526.502 772.999 526.502 772.999 493.832ZM781.002 524.502 775 536.502 768.998 524.502Z" fill="#00B050"/><text font-family="Yu Gothic,Yu Gothic_MSFontService,sans-serif" font-weight="400" font-size="14.6667" transform="matrix(1 0 0 0.999661 132.454 65)">可測集合族</text><path d="M257.001 67.9769 257.001 110.563 252.999 110.563 252.999 67.9769ZM261.002 108.563 255 120.563 248.998 108.563Z" fill="#0070C0"/><path d="M2.39989e-06-2 77.493-1.99991 77.493 2.00009-2.39989e-06 2ZM75.493-5.99991 87.493 0.000104987 75.493 6.00009Z" fill="#0070C0" transform="matrix(-1.00034 0 0 1 210.523 45.9844)"/><rect x="393" y="347.882" width="90" height="42.9854" stroke="#000000" stroke-width="2.00068" stroke-miterlimit="8" stroke-dasharray="2.00068 2.00068" fill="#FFFFFF"/><text font-family="Yu Gothic,Yu Gothic_MSFontService,sans-serif" font-weight="400" font-size="14.6667" transform="matrix(1 0 0 0.999661 401.365 365)">実</text><text font-family="Yu Gothic,Yu Gothic_MSFontService,sans-serif" font-weight="400" font-size="14.6667" transform="matrix(1 0 0 0.999661 416.036 365)">ベクトル</text><text font-family="Yu Gothic,Yu Gothic_MSFontService,sans-serif" font-weight="400" font-size="14.6667" transform="matrix(1 0 0 0.999661 423.372 382)">空間</text><rect x="224" y="450.847" width="89" height="42.9854" stroke="#000000" stroke-width="2.00068" stroke-miterlimit="8" stroke-dasharray="2.00068 2.00068" fill="#FFFFFF"/><text font-family="Yu Gothic,Yu Gothic_MSFontService,sans-serif" font-weight="400" font-size="14.6667" transform="matrix(1 0 0 0.999661 239.5 477)">内積空間</text><text font-family="Yu Gothic,Yu Gothic_MSFontService,sans-serif" font-weight="400" font-size="14.6667" transform="matrix(1 0 0 0.999661 361.859 455)">内積</text><text font-family="Cambria Math,Cambria Math_MSFontService,sans-serif" font-weight="400" font-size="14.6667" transform="matrix(1 0 0 0.999661 391.203 455)"></text><path d="M51.0249 3.11509 53.8813 9.5439 53.8813 10.0737 51.0249 16.5096 50.2589 16.2376 52.5569 9.80878 50.2589 3.37281ZM38.6447 3.11509 39.4035 3.38713 37.1055 9.81594 39.4035 16.2519 38.6447 16.5096 35.7882 10.0808 35.7882 9.55106Z" fill-rule="evenodd" transform="matrix(1.00034 0 0 1 359.465 440.93)"/><text font-family="Cambria Math,Cambria Math_MSFontService,sans-serif" font-weight="400" font-size="14.6667" transform="matrix(1 0 0 0.999661 399.646 455)"></text><text font-family="Cambria Math,Cambria Math_MSFontService,sans-serif" font-weight="400" font-size="14.6667" transform="matrix(1 0 0 0.999661 402.813 455)">,</text><text font-family="Cambria Math,Cambria Math_MSFontService,sans-serif" font-weight="400" font-size="14.6667" transform="matrix(1 0 0 0.999661 405.814 455)"></text><path d="M416.65 389 414.054 392.782 410.334 397.205 405.693 402.1 400.24 407.41 394.09 413.064 387.364 418.986 380.182 425.099 372.662 431.325 357.117 443.781 341.7 455.72 334.342 461.295 327.387 466.497 323.255 469.539 320.883 466.318 325.008 463.281 324.996 463.29 331.94 458.096 331.93 458.104 339.274 452.538 339.258 452.551 354.654 440.629 354.628 440.65 370.147 428.214 370.122 428.234 377.619 422.027 377.599 422.044 384.758 415.951 384.732 415.973 391.429 410.076 391.397 410.105 397.51 404.485 397.468 404.524 402.872 399.262 402.816 399.319 407.389 394.496 407.309 394.585 410.928 390.283 410.81 390.438 413.35 386.737ZM327.23 471.586 314 473.839 320.135 461.907Z" fill="#0070C0"/><path d="M23.8331 513.659 495.167 513.659 495.167 701.929 23.8331 701.929ZM24.6333 701.129 494.367 701.129 494.367 514.459 24.6333 514.459ZM24.9001 514.726 494.1 514.726 494.1 700.862 24.9001 700.862ZM25.1669 700.595 493.833 700.595 493.833 514.992 25.1669 514.992Z" fill="#172C51"/><path d="M395.5 612.292C395.5 599.594 412.513 589.3 433.5 589.3 454.487 589.3 471.5 599.594 471.5 612.292 471.5 624.991 454.487 635.284 433.5 635.284 412.513 635.284 395.5 624.991 395.5 612.292Z" stroke="#172C51" stroke-width="1.33379" stroke-miterlimit="8" stroke-dasharray="1.33379 1.33379" fill="none" fill-rule="evenodd"/><path d="M412.5 615.791C412.5 608.89 421.902 603.295 433.5 603.295 445.098 603.295 454.5 608.89 454.5 615.791 454.5 622.692 445.098 628.287 433.5 628.287 421.902 628.287 412.5 622.692 412.5 615.791Z" stroke="#172C51" stroke-width="1.33379" stroke-miterlimit="8" stroke-dasharray="1.33379 1.33379" fill="none" fill-rule="evenodd"/><rect x="421" y="595.798" width="24.0001" height="21.9926" fill="#FFFFFF"/><text font-family="Calibri,Calibri_MSFontService,sans-serif" font-style="italic" font-weight="400" font-size="14.6667" transform="matrix(1 0 0 0.999661 428.584 612)">D</text><rect x="401" y="580.803" width="65" height="20.993" fill="#FFFFFF"/><text font-family="Calibri,Calibri_MSFontService,sans-serif" font-weight="400" font-size="14.6667" transform="matrix(1 0 0 0.999661 408.735 596)">C</text><text font-family="Calibri,Calibri_MSFontService,sans-serif" font-weight="400" font-size="14.6667" transform="matrix(1 0 0 0.999661 419.906 596)">(</text><text font-family="Yu Gothic,Yu Gothic_MSFontService,sans-serif" font-weight="400" font-size="14.6667" transform="matrix(1 0 0 0.999661 424.407 596)">集合</text><text font-family="Calibri,Calibri_MSFontService,sans-serif" font-weight="400" font-size="14.6667" transform="matrix(1 0 0 0.999661 453.751 596)">)</text><path d="M394.5 674.271C394.5 667.646 401.44 662.275 410 662.275 418.56 662.275 425.5 667.646 425.5 674.271 425.5 680.896 418.56 686.267 410 686.267 401.44 686.267 394.5 680.896 394.5 674.271Z" stroke="#172C51" stroke-width="1.33379" stroke-miterlimit="8" stroke-dasharray="1.33379 1.33379" fill="none" fill-rule="evenodd"/><rect x="398" y="652.779" width="24.0001" height="21.9926" fill="#FFFFFF"/><text font-family="Calibri,Calibri_MSFontService,sans-serif" font-style="italic" font-weight="400" font-size="14.6667" transform="matrix(1 0 0 0.999661 406.428 669)">F</text><path d="M436.5 672.772C436.5 665.871 443.887 660.276 453 660.276 462.113 660.276 469.5 665.871 469.5 672.772 469.5 679.673 462.113 685.268 453 685.268 443.887 685.268 436.5 679.673 436.5 672.772Z" stroke="#00B050" stroke-width="1.33379" stroke-miterlimit="8" stroke-dasharray="1.33379 1.33379" fill="none" fill-rule="evenodd"/><rect x="441" y="653.778" width="23.9999" height="21.9926" fill="#FFFFFF"/><text fill="#00B050" font-family="Calibri,Calibri_MSFontService,sans-serif" font-style="italic" font-weight="400" font-size="14.6667" transform="matrix(1 0 0 0.999661 449.428 669)">X</text><path d="M377.5 672.272C377.5 659.574 401.677 649.28 431.5 649.28 461.323 649.28 485.5 659.574 485.5 672.272 485.5 684.97 461.323 695.264 431.5 695.264 401.677 695.264 377.5 684.97 377.5 672.272Z" stroke="#172C51" stroke-width="1.33379" stroke-miterlimit="8" stroke-dasharray="1.33379 1.33379" fill="none" fill-rule="evenodd"/><rect x="419" y="639.783" width="23.9999" height="20.9929" fill="#FFFFFF"/><text font-family="Calibri,Calibri_MSFontService,sans-serif" font-style="italic" font-weight="400" font-size="14.6667" transform="matrix(1 0 0 0.999661 427.036 655)">E</text><rect x="221" y="502.829" width="50" height="27.9905" fill="#FFFFFF"/><text font-family="Yu Gothic,Yu Gothic_MSFontService,sans-serif" font-weight="400" font-size="14.6667" transform="matrix(1 0 0 0.999661 230.365 522)">凡例</text></g></svg>