<svg width="983" height="720" xmlns="http://www.w3.org/2000/svg" xmlns:xlink="http://www.w3.org/1999/xlink" overflow="hidden"><g><rect x="0" y="0" width="983" height="719.756" fill="#FFFFFF"/><rect x="30" y="533.819" width="24.0001" height="23.9919" stroke="#000000" stroke-width="2.00068" stroke-miterlimit="8" stroke-dasharray="2.00068 2.00068" fill="none"/><text font-family="Calibri,Calibri_MSFontService,sans-serif" font-style="italic" font-weight="400" font-size="14.6667" transform="matrix(1 0 0 0.999661 37.6503 551)">A</text><rect x="86" y="533.819" width="24.0001" height="23.9919" stroke="#000000" stroke-width="2.00068" stroke-miterlimit="8" stroke-dasharray="2.00068 2.00068" fill="none"/><text font-family="Calibri,Calibri_MSFontService,sans-serif" font-style="italic" font-weight="400" font-size="14.6667" transform="matrix(1 0 0 0.999661 93.9291 551)">B</text><path d="M54.5 544.815 78.9449 544.815 78.9449 547.815 54.4999 547.815ZM77.4444 541.815 86.4475 546.315 77.4444 550.815Z" fill="#FF0000"/><rect x="30" y="592.799" width="24.0001" height="23.9918" stroke="#000000" stroke-width="2.00068" stroke-miterlimit="8" stroke-dasharray="2.00068 2.00068" fill="none"/><text font-family="Calibri,Calibri_MSFontService,sans-serif" font-style="italic" font-weight="400" font-size="14.6667" transform="matrix(1 0 0 0.999661 37.6503 610)">A</text><rect x="86" y="592.799" width="24.0001" height="23.9918" stroke="#000000" stroke-width="2.00068" stroke-miterlimit="8" stroke-dasharray="2.00068 2.00068" fill="none"/><text font-family="Calibri,Calibri_MSFontService,sans-serif" font-style="italic" font-weight="400" font-size="14.6667" transform="matrix(1 0 0 0.999661 93.9291 610)">B</text><path d="M54.5 603.795 78.9449 603.795 78.9449 606.795 54.4999 606.795ZM77.4444 600.795 86.4475 605.295 77.4444 609.795Z" fill="#0070C0"/><rect x="30" y="648.78" width="24.0001" height="24.9915" stroke="#000000" stroke-width="2.00068" stroke-miterlimit="8" stroke-dasharray="2.00068 2.00068" fill="none"/><text font-family="Calibri,Calibri_MSFontService,sans-serif" font-style="italic" font-weight="400" font-size="14.6667" transform="matrix(1 0 0 0.999661 37.6503 666)">A</text><rect x="86" y="648.78" width="24.0001" height="24.9915" stroke="#000000" stroke-width="2.00068" stroke-miterlimit="8" stroke-dasharray="2.00068 2.00068" fill="none"/><text font-family="Calibri,Calibri_MSFontService,sans-serif" font-style="italic" font-weight="400" font-size="14.6667" transform="matrix(1 0 0 0.999661 93.9291 666)">B</text><path d="M54.5 660.775 78.9449 660.775 78.9449 663.775 54.4999 663.775ZM77.4444 657.775 86.4475 662.276 77.4444 666.775Z" fill="#00B050"/><text font-family="Calibri,Calibri_MSFontService,sans-serif" font-style="italic" font-weight="400" font-size="14.6667" transform="matrix(1 0 0 0.999661 62.3884 602)">S</text><text font-family="Calibri,Calibri_MSFontService,sans-serif" font-style="italic" font-weight="400" font-size="14.6667" transform="matrix(1 0 0 0.999661 63.1173 658)">P</text><text fill="#00B050" font-family="Calibri,Calibri_MSFontService,sans-serif" font-style="italic" font-weight="700" font-size="14.6667" transform="matrix(1 0 0 0.999661 37.9269 691)">X</text><text font-family="Yu Gothic,Yu Gothic_MSFontService,sans-serif" font-weight="400" font-size="14.6667" transform="matrix(1 0 0 0.999661 132.592 545)">すべての</text><text font-family="Calibri,Calibri_MSFontService,sans-serif" font-weight="400" font-size="14.6667" transform="matrix(1 0 0 0.999661 191.279 545)">A</text><text font-family="Yu Gothic,Yu Gothic_MSFontService,sans-serif" font-weight="400" font-size="14.6667" transform="matrix(1 0 0 0.999661 199.782 545)">は自然な方法で</text><text font-family="Calibri,Calibri_MSFontService,sans-serif" font-weight="400" font-size="14.6667" transform="matrix(1 0 0 0.999661 302.483 545)">B</text><text font-family="Yu Gothic,Yu Gothic_MSFontService,sans-serif" font-weight="400" font-size="14.6667" transform="matrix(1 0 0 0.999661 310.486 545)">である。</text><text font-family="Yu Gothic,Yu Gothic_MSFontService,sans-serif" font-weight="400" font-size="14.6667" transform="matrix(1 0 0 0.999661 132.592 562)">線に沿った式はその方法を示す。</text><text font-family="Yu Gothic,Yu Gothic_MSFontService,sans-serif" font-weight="400" font-size="14.6667" transform="matrix(1 0 0 0.999661 132.592 601)">追加の構造</text><text font-family="Calibri,Calibri_MSFontService,sans-serif" font-weight="400" font-size="14.6667" transform="matrix(1 0 0 0.999661 205.951 601)">S</text><text font-family="Yu Gothic,Yu Gothic_MSFontService,sans-serif" font-weight="400" font-size="14.6667" transform="matrix(1 0 0 0.999661 212.62 601)">を備えた</text><text font-family="Calibri,Calibri_MSFontService,sans-serif" font-weight="400" font-size="14.6667" transform="matrix(1 0 0 0.999661 271.306 601)">A</text><text font-family="Yu Gothic,Yu Gothic_MSFontService,sans-serif" font-weight="400" font-size="14.6667" transform="matrix(1 0 0 0.999661 279.809 601)">は</text><text font-family="Calibri,Calibri_MSFontService,sans-serif" font-weight="400" font-size="14.6667" transform="matrix(1 0 0 0.999661 294.481 601)">B</text><text font-family="Yu Gothic,Yu Gothic_MSFontService,sans-serif" font-weight="400" font-size="14.6667" transform="matrix(1 0 0 0.999661 302.483 601)">である。</text><text font-family="Yu Gothic,Yu Gothic_MSFontService,sans-serif" font-weight="400" font-size="14.6667" transform="matrix(1 0 0 0.999661 132.592 618)">これは</text><text font-family="Yu Gothic,Yu Gothic_MSFontService,sans-serif" font-weight="400" font-size="14.6667" transform="matrix(1 0 0 0.999661 264.637 618)">も意味する。</text><text font-family="Yu Gothic,Yu Gothic_MSFontService,sans-serif" font-weight="400" font-size="14.6667" transform="matrix(1 0 0 0.999661 132.592 659)">性質</text><text font-family="Calibri,Calibri_MSFontService,sans-serif" font-weight="400" font-size="14.6667" transform="matrix(1 0 0 0.999661 161.936 659)">P</text><text font-family="Yu Gothic,Yu Gothic_MSFontService,sans-serif" font-weight="400" font-size="14.6667" transform="matrix(1 0 0 0.999661 169.438 659)">を満たす</text><text font-family="Calibri,Calibri_MSFontService,sans-serif" font-weight="400" font-size="14.6667" transform="matrix(1 0 0 0.999661 228.125 659)">A</text><text font-family="Yu Gothic,Yu Gothic_MSFontService,sans-serif" font-weight="400" font-size="14.6667" transform="matrix(1 0 0 0.999661 236.628 659)">は</text><text font-family="Calibri,Calibri_MSFontService,sans-serif" font-weight="400" font-size="14.6667" transform="matrix(1 0 0 0.999661 251.299 659)">B</text><text font-family="Yu Gothic,Yu Gothic_MSFontService,sans-serif" font-weight="400" font-size="14.6667" transform="matrix(1 0 0 0.999661 259.302 659)">である。</text><text fill="#00B050" font-family="Calibri,Calibri_MSFontService,sans-serif" font-style="italic" font-weight="700" font-size="14.6667" transform="matrix(1 0 0 0.999661 132.592 676)">X</text><text font-family="Yu Gothic,Yu Gothic_MSFontService,sans-serif" font-weight="400" font-size="14.6667" transform="matrix(1 0 0 0.999661 143.93 676)">は</text><text font-family="Calibri,Calibri_MSFontService,sans-serif" font-weight="400" font-size="14.6667" transform="matrix(1 0 0 0.999661 158.601 676)">B</text><text font-family="Yu Gothic,Yu Gothic_MSFontService,sans-serif" font-weight="400" font-size="14.6667" transform="matrix(1 0 0 0.999661 166.604 676)">ではない</text><text font-family="Calibri,Calibri_MSFontService,sans-serif" font-weight="400" font-size="14.6667" transform="matrix(1 0 0 0.999661 225.29 676)">A</text><text font-family="Yu Gothic,Yu Gothic_MSFontService,sans-serif" font-weight="400" font-size="14.6667" transform="matrix(1 0 0 0.999661 233.793 676)">の例である。</text><rect x="182" y="604.795" width="25" height="23.9918" stroke="#000000" stroke-width="2.00068" stroke-miterlimit="8" stroke-dasharray="2.00068 2.00068" fill="none"/><text font-family="Calibri,Calibri_MSFontService,sans-serif" font-style="italic" font-weight="400" font-size="14.6667" transform="matrix(1 0 0 0.999661 190.497 622)">B</text><rect x="238" y="604.795" width="25.0001" height="23.9918" stroke="#000000" stroke-width="2.00068" stroke-miterlimit="8" stroke-dasharray="2.00068 2.00068" fill="none"/><text font-family="Calibri,Calibri_MSFontService,sans-serif" font-style="italic" font-weight="400" font-size="14.6667" transform="matrix(1 0 0 0.999661 246.275 622)">A</text><path d="M207.5 615.791 231.945 615.791 231.945 618.791 207.5 618.791ZM230.444 612.791 239.447 617.291 230.444 621.791Z" fill="#FF0000"/><path d="M15.8331 487.668 467.167 487.668 467.167 700.929 15.8331 700.929ZM16.6334 700.129 466.367 700.129 466.367 488.468 16.6334 488.468ZM16.9001 488.734 466.1 488.734 466.1 699.862 16.9001 699.862ZM17.1669 699.596 465.833 699.596 465.833 489.001 17.1669 489.001Z" fill="#172C51"/><text font-family="Yu Gothic,Yu Gothic_MSFontService,sans-serif" font-weight="400" font-size="14.6667" transform="matrix(1 0 0 0.999661 190.9 513)">凡例</text><rect x="26" y="23.9918" width="89" height="42.9855" stroke="#000000" stroke-width="2.00068" stroke-miterlimit="8" stroke-dasharray="2.00068 2.00068" fill="none"/><text font-family="Yu Gothic,Yu Gothic_MSFontService,sans-serif" font-weight="400" font-size="14.6667" transform="matrix(1 0 0 0.999661 41.2032 51)">測度空間</text><rect x="26" y="119.959" width="89" height="41.9858" stroke="#000000" stroke-width="2.00068" stroke-miterlimit="8" stroke-dasharray="2.00068 2.00068" fill="none"/><text font-family="Yu Gothic,Yu Gothic_MSFontService,sans-serif" font-weight="400" font-size="14.6667" transform="matrix(1 0 0 0.999661 41.2032 146)">確率空間</text><rect x="203" y="119.959" width="89" height="41.9858" stroke="#000000" stroke-width="2.00068" stroke-miterlimit="8" stroke-dasharray="2.00068 2.00068" fill="none"/><text font-family="Yu Gothic,Yu Gothic_MSFontService,sans-serif" font-weight="400" font-size="14.6667" transform="matrix(1 0 0 0.999661 218.007 146)">位相空間</text><rect x="203" y="23.9918" width="89" height="42.9855" stroke="#000000" stroke-width="2.00068" stroke-miterlimit="8" stroke-dasharray="2.00068 2.00068" fill="none"/><text font-family="Yu Gothic,Yu Gothic_MSFontService,sans-serif" font-weight="400" font-size="14.6667" transform="matrix(1 0 0 0.999661 232.679 51)">集合</text><rect x="26" y="214.927" width="89" height="42.9854" stroke="#000000" stroke-width="2.00068" stroke-miterlimit="8" stroke-dasharray="2.00068 2.00068" fill="none"/><text font-family="Yu Gothic,Yu Gothic_MSFontService,sans-serif" font-weight="400" font-size="14.6667" transform="matrix(1 0 0 0.999661 41.2032 233)">リーマン</text><text font-family="Yu Gothic,Yu Gothic_MSFontService,sans-serif" font-weight="400" font-size="14.6667" transform="matrix(1 0 0 0.999661 48.539 250)">多様体</text><rect x="203" y="214.927" width="89" height="42.9854" stroke="#000000" stroke-width="2.00068" stroke-miterlimit="8" stroke-dasharray="2.00068 2.00068" fill="none"/><text font-family="Yu Gothic,Yu Gothic_MSFontService,sans-serif" font-weight="400" font-size="14.6667" transform="matrix(1 0 0 0.999661 218.007 241)">距離空間</text><rect x="203" y="309.895" width="89" height="42.9854" stroke="#000000" stroke-width="2.00068" stroke-miterlimit="8" stroke-dasharray="2.00068 2.00068" fill="none"/><text font-family="Yu Gothic,Yu Gothic_MSFontService,sans-serif" font-weight="400" font-size="14.6667" transform="matrix(1 0 0 0.999661 210.671 328)">ノルム</text><text font-family="Yu Gothic,Yu Gothic_MSFontService,sans-serif" font-weight="400" font-size="14.6667" transform="matrix(1 0 0 0.999661 254.686 328)">付き</text><text font-family="Yu Gothic,Yu Gothic_MSFontService,sans-serif" font-weight="400" font-size="14.6667" transform="matrix(1 0 0 0.999661 203.336 345)">ベクトル空間</text><rect x="26" y="309.895" width="89" height="42.9854" stroke="#000000" stroke-width="2.00068" stroke-miterlimit="8" stroke-dasharray="2.00068 2.00068" fill="none"/><text font-family="Yu Gothic,Yu Gothic_MSFontService,sans-serif" font-weight="400" font-size="14.6667" transform="matrix(1 0 0 0.999661 41.2031 328)">バナッハ</text><text font-family="Yu Gothic,Yu Gothic_MSFontService,sans-serif" font-weight="400" font-size="14.6667" transform="matrix(1 0 0 0.999661 55.8747 345)">空間</text><rect x="26" y="411.86" width="89" height="42.9854" stroke="#000000" stroke-width="2.00068" stroke-miterlimit="8" stroke-dasharray="2.00068 2.00068" fill="none"/><text font-family="Yu Gothic,Yu Gothic_MSFontService,sans-serif" font-weight="400" font-size="14.6667" transform="matrix(1 0 0 0.999661 33.867 430)">ヒルベルト</text><text font-family="Yu Gothic,Yu Gothic_MSFontService,sans-serif" font-weight="400" font-size="14.6667" transform="matrix(1 0 0 0.999661 55.8745 447)">空間</text><rect x="203" y="411.86" width="89" height="42.9854" stroke="#000000" stroke-width="2.00068" stroke-miterlimit="8" stroke-dasharray="2.00068 2.00068" fill="none"/><text font-family="Yu Gothic,Yu Gothic_MSFontService,sans-serif" font-weight="400" font-size="14.6667" transform="matrix(1 0 0 0.999661 218.007 439)">内積空間</text><rect x="380" y="309.895" width="88.9999" height="42.9854" stroke="#000000" stroke-width="2.00068" stroke-miterlimit="8" stroke-dasharray="2.00068 2.00068" fill="none"/><text font-family="Yu Gothic,Yu Gothic_MSFontService,sans-serif" font-weight="400" font-size="14.6667" transform="matrix(1 0 0 0.999661 394.811 328)">ベクトル</text><text font-family="Yu Gothic,Yu Gothic_MSFontService,sans-serif" font-weight="400" font-size="14.6667" transform="matrix(1 0 0 0.999661 409.483 345)">空間</text><rect x="380" y="214.927" width="88.9999" height="42.9854" stroke="#000000" stroke-width="2.00068" stroke-miterlimit="8" stroke-dasharray="2.00068 2.00068" fill="none"/><text font-family="Yu Gothic,Yu Gothic_MSFontService,sans-serif" font-weight="400" font-size="14.6667" transform="matrix(1 0 0 0.999661 380.14 233)">ハウスドルフ</text><text font-family="Yu Gothic,Yu Gothic_MSFontService,sans-serif" font-weight="400" font-size="14.6667" transform="matrix(1 0 0 0.999661 409.483 250)">空間</text><rect x="551" y="93.9681" width="89.0001" height="41.9858" stroke="#000000" stroke-width="2.00068" stroke-miterlimit="8" stroke-dasharray="2.00068 2.00068" fill="none"/><text font-family="Yu Gothic,Yu Gothic_MSFontService,sans-serif" font-weight="400" font-size="14.6667" transform="matrix(1 0 0 0.999661 573.285 120)">マグマ</text><rect x="551" y="178.939" width="89.0001" height="42.9854" stroke="#000000" stroke-width="2.00068" stroke-miterlimit="8" stroke-dasharray="2.00068 2.00068" fill="none"/><text font-family="Yu Gothic,Yu Gothic_MSFontService,sans-serif" font-weight="400" font-size="14.6667" transform="matrix(1 0 0 0.999661 580.621 205)">半群</text><rect x="551" y="263.91" width="89.0001" height="42.9854" stroke="#000000" stroke-width="2.00068" stroke-miterlimit="8" stroke-dasharray="2.00068 2.00068" fill="none"/><text font-family="Yu Gothic,Yu Gothic_MSFontService,sans-serif" font-weight="400" font-size="14.6667" transform="matrix(1 0 0 0.999661 565.95 291)">モノイド</text><rect x="551" y="349.881" width="89.0001" height="42.9854" stroke="#000000" stroke-width="2.00068" stroke-miterlimit="8" stroke-dasharray="2.00068 2.00068" fill="none"/><text font-family="Yu Gothic,Yu Gothic_MSFontService,sans-serif" font-weight="400" font-size="14.6667" transform="matrix(1 0 0 0.999661 587.957 376)">群</text><rect x="551" y="434.853" width="89.0001" height="42.9854" stroke="#000000" stroke-width="2.00068" stroke-miterlimit="8" stroke-dasharray="2.00068 2.00068" fill="none"/><text font-family="Yu Gothic,Yu Gothic_MSFontService,sans-serif" font-weight="400" font-size="14.6667" transform="matrix(1 0 0 0.999661 558.614 453)">アーベル群</text><text font-family="Calibri,Calibri_MSFontService,sans-serif" font-weight="400" font-size="14.6667" transform="matrix(1 0 0 0.999661 568.784 470)">(</text><text font-family="Yu Gothic,Yu Gothic_MSFontService,sans-serif" font-weight="400" font-size="14.6667" transform="matrix(1 0 0 0.999661 573.285 470)">可換群</text><text font-family="Calibri,Calibri_MSFontService,sans-serif" font-weight="400" font-size="14.6667" transform="matrix(1 0 0 0.999661 617.3 470)">)</text><rect x="766" y="23.9918" width="90" height="42.9855" stroke="#000000" stroke-width="2.00068" stroke-miterlimit="8" stroke-dasharray="2.00068 2.00068" fill="none"/><text font-family="Yu Gothic,Yu Gothic_MSFontService,sans-serif" font-weight="400" font-size="14.6667" transform="matrix(1 0 0 0.999661 803.591 51)">環</text><rect x="766" y="109.963" width="90" height="41.9857" stroke="#000000" stroke-width="2.00068" stroke-miterlimit="8" stroke-dasharray="2.00068 2.00068" fill="none"/><text font-family="Yu Gothic,Yu Gothic_MSFontService,sans-serif" font-weight="400" font-size="14.6667" transform="matrix(1 0 0 0.999661 788.919 136)">可換環</text><rect x="766" y="194.934" width="90" height="42.9854" stroke="#000000" stroke-width="2.00068" stroke-miterlimit="8" stroke-dasharray="2.00068 2.00068" fill="none"/><text font-family="Yu Gothic,Yu Gothic_MSFontService,sans-serif" font-weight="400" font-size="14.6667" transform="matrix(1 0 0 0.999661 796.255 221)">整域</text><rect x="766" y="279.905" width="90" height="42.9854" stroke="#000000" stroke-width="2.00068" stroke-miterlimit="8" stroke-dasharray="2.00068 2.00068" fill="none"/><text font-family="Yu Gothic,Yu Gothic_MSFontService,sans-serif" font-weight="400" font-size="14.6667" transform="matrix(1 0 0 0.999661 766.912 298)">一意分解整域</text><text font-family="Calibri,Calibri_MSFontService,sans-serif" font-weight="400" font-size="14.6667" transform="matrix(1 0 0 0.999661 793.921 315)">(UFD)</text><rect x="766" y="365.876" width="90" height="42.9854" stroke="#000000" stroke-width="2.00068" stroke-miterlimit="8" stroke-dasharray="2.00068 2.00068" fill="none"/><text font-family="Yu Gothic,Yu Gothic_MSFontService,sans-serif" font-weight="400" font-size="14.6667" transform="matrix(1 0 0 0.999661 774.248 392)">主理想整域</text><rect x="766" y="450.847" width="90" height="42.9854" stroke="#000000" stroke-width="2.00068" stroke-miterlimit="8" stroke-dasharray="2.00068 2.00068" fill="none"/><text font-family="Yu Gothic,Yu Gothic_MSFontService,sans-serif" font-weight="400" font-size="14.6667" transform="matrix(1 0 0 0.999661 766.912 469)">ユークリッド</text><text font-family="Yu Gothic,Yu Gothic_MSFontService,sans-serif" font-weight="400" font-size="14.6667" transform="matrix(1 0 0 0.999661 796.255 486)">整域</text><rect x="766" y="536.818" width="90" height="41.9857" stroke="#000000" stroke-width="2.00068" stroke-miterlimit="8" stroke-dasharray="2.00068 2.00068" fill="none"/><text font-family="Yu Gothic,Yu Gothic_MSFontService,sans-serif" font-weight="400" font-size="14.6667" transform="matrix(1 0 0 0.999661 803.591 563)">体</text><path d="M115.002 233.92 123.164 233.927 131.074 233.949 138.471 233.982 145.099 234.024 150.702 234.075 153.042 234.102 155.034 234.131 156.642 234.161 157.847 234.192 158.676 234.227 159.008 234.269 159.259 234.3 159.097 234.286 159.829 234.317 159.796 234.316 160.977 234.347 160.962 234.346 162.559 234.376 162.551 234.376 164.533 234.405 166.862 234.432 172.455 234.483 179.074 234.525 186.463 234.558 192.524 234.572 192.515 238.572 186.445 238.558 179.048 238.525 172.419 238.482 166.815 238.432 164.475 238.404 162.489 238.375 160.88 238.346 159.676 238.314 158.846 238.279 158.515 238.238 158.264 238.207 158.426 238.22 157.694 238.189 157.727 238.191 156.546 238.16 156.561 238.16 154.963 238.131 154.972 238.131 152.995 238.102 150.666 238.075 145.073 238.024 138.453 237.982 131.063 237.949 123.161 237.927 114.998 237.92ZM190.528 230.569 202.523 236.587 190.51 242.569Z" fill="#FF0000"/><path d="M68.9994 412.285 68.9994 401.379 68.9994 396.361 68.9994 391.865 68.9994 388.065 68.9994 385.135 68.9995 383.25 68.9995 382.583 68.9995 381.916 68.9995 380.03 68.9995 377.101 68.9995 373.301 68.9996 368.805 68.9996 362.88 73.0009 362.88 73.0009 368.805 73.0009 373.301 73.0009 377.101 73.0009 380.03 73.0008 381.916 73.0008 382.583 73.0008 383.25 73.0008 385.135 73.0008 388.065 73.0008 391.865 73.0007 396.361 73.0007 401.379 73.0007 412.285ZM64.9982 364.88 71.0002 352.88 77.0023 364.88Z" fill="#FF0000"/><path d="M292.004 233.92 300.17 233.935 308.083 233.977 315.484 234.043 322.117 234.129 327.726 234.23 330.071 234.285 332.067 234.343 333.687 234.403 334.914 234.467 335.838 234.545 336.244 234.646 336.495 234.708 336.181 234.656 336.913 234.718 336.848 234.714 338.028 234.775 337.999 234.773 339.597 234.833 339.58 234.832 341.562 234.89 341.551 234.89 343.886 234.945 343.875 234.944 349.473 235.045 349.463 235.045 356.087 235.13 356.079 235.13 363.472 235.196 363.463 235.196 369.529 235.224 369.51 239.224 363.441 239.196 356.039 239.13 349.406 239.045 343.797 238.944 341.451 238.888 339.456 238.83 337.836 238.77 336.608 238.707 335.685 238.628 335.279 238.528 335.028 238.465 335.342 238.517 334.61 238.455 334.675 238.46 333.495 238.399 333.523 238.4 331.926 238.34 331.943 238.341 329.961 238.284 329.972 238.284 327.637 238.229 327.648 238.229 322.05 238.128 322.06 238.128 315.436 238.043 315.444 238.043 308.051 237.977 308.058 237.977 300.152 237.935 300.159 237.935 291.996 237.92ZM367.537 231.218 379.523 237.253 367.501 243.218Z" fill="#FF0000"/><path d="M766.094 559.813 750.026 559.515 733.953 558.633 717.945 557.185 702.034 555.19 686.249 552.669 670.622 549.639 655.184 546.119 639.966 542.128 625 537.685 610.317 532.809 595.946 527.517 581.921 521.83 568.271 515.764 555.028 509.34 542.223 502.575 529.887 495.487 518.051 488.096 506.747 480.419 496.004 472.474 485.855 464.279 476.331 455.852 467.463 447.212 459.283 438.374 451.822 429.357 445.113 420.179 439.188 410.855 434.08 401.404 429.823 391.843 426.451 382.19 423.995 372.447 422.733 363.123 426.698 362.586 427.946 371.799 427.903 371.579 430.31 381.126 430.258 380.955 433.573 390.446 433.512 390.292 437.705 399.707 437.637 399.57 442.675 408.892 442.603 408.77 448.455 417.979 448.382 417.871 455.017 426.949 454.944 426.854 462.331 435.782 462.257 435.698 470.365 444.457 470.293 444.383 479.089 452.954 479.019 452.889 488.473 461.254 488.404 461.196 498.485 469.335 498.418 469.283 509.094 477.179 509.028 477.133 520.268 484.766 520.204 484.724 531.976 492.075 531.913 492.038 544.186 499.089 544.124 499.055 556.868 505.787 556.806 505.756 569.988 512.151 569.927 512.123 583.516 518.161 583.456 518.135 597.421 523.798 597.36 523.775 611.669 529.044 611.609 529.023 626.231 533.879 626.17 533.86 641.075 538.285 641.013 538.267 656.168 542.242 656.105 542.226 671.479 545.732 671.416 545.718 686.978 548.736 686.913 548.724 702.632 551.235 702.565 551.226 718.409 553.211 718.34 553.204 734.279 554.646 734.208 554.641 750.209 555.519 750.136 555.516 766.168 555.814ZM418.871 365.279 424 352.88 430.845 364.421Z" fill="#FF0000"/><path d="M204.659 69.0942 198.979 77.5246 199.027 77.4512 193.821 85.9571 193.871 85.8693 189.2 94.4508 189.253 94.3466 185.176 103.004 185.229 102.881 181.809 111.614 181.859 111.471 179.156 120.279 179.198 120.116 177.272 129 177.303 128.817 176.216 137.776 176.23 137.577 176.042 146.612 176.035 146.401 176.806 155.512 176.777 155.298 178.569 164.483 178.516 164.274 181.389 173.535 181.316 173.338 185.332 182.674 185.244 182.495 190.462 191.907 190.364 191.749 196.846 201.237 196.744 201.1 198.226 202.916 195.126 205.445 193.59 203.563 187.007 193.928 181.695 184.346 177.599 174.821 174.662 165.355 172.829 155.957 172.039 146.634 172.232 137.394 173.342 128.243 175.305 119.187 178.056 110.226 181.528 101.361 185.657 92.5902 190.381 83.9128 195.636 75.3263 201.341 66.8597ZM200.061 198.837 203 211.928 190.761 206.424Z" fill="#0070C0"/><path d="M379.519 335.221 371.353 335.206 363.44 335.163 356.039 335.098 349.406 335.012 343.797 334.911 341.451 334.856 339.456 334.798 337.836 334.737 336.608 334.674 335.685 334.596 335.279 334.495 335.027 334.433 335.342 334.485 334.61 334.423 334.675 334.427 333.495 334.366 333.523 334.367 331.926 334.308 331.943 334.308 329.961 334.251 329.972 334.251 327.637 334.196 327.648 334.196 322.05 334.095 322.06 334.096 315.436 334.01 315.444 334.01 308.051 333.945 308.06 333.945 301.994 333.917 302.013 329.917 308.082 329.945 315.484 330.011 322.117 330.096 327.726 330.197 330.071 330.252 332.067 330.31 333.687 330.371 334.915 330.434 335.838 330.512 336.244 330.613 336.495 330.676 336.181 330.624 336.913 330.686 336.848 330.681 338.028 330.742 337.999 330.741 339.597 330.8 339.58 330.8 341.562 330.857 341.551 330.857 343.886 330.912 343.875 330.912 349.473 331.013 349.463 331.013 356.087 331.098 356.079 331.098 363.472 331.164 363.465 331.164 371.371 331.206 371.364 331.206 379.526 331.221ZM303.986 337.923 292 331.887 304.022 325.923Z" fill="#0070C0"/><path d="M381.479 353.228 379.096 355.842 375.681 358.901 371.439 362.27 366.463 365.919 360.857 369.801 354.727 373.867 348.182 378.062 341.33 382.335 327.168 390.882 313.123 399.073 306.42 402.898 300.084 406.468 297.724 407.774 295.786 404.274 298.139 402.972 298.126 402.979 304.451 399.416 304.441 399.422 311.131 395.604 311.115 395.613 325.139 387.434 325.113 387.45 339.249 378.918 339.224 378.933 346.054 374.675 346.033 374.688 352.554 370.508 352.528 370.525 358.628 366.479 358.595 366.502 364.163 362.646 364.118 362.678 369.041 359.068 368.98 359.115 373.145 355.806 373.055 355.882 376.351 352.93 376.207 353.073 378.521 350.534ZM301.41 410.308 288 410.861 295.603 399.805Z" fill="#0070C0"/><path d="M290.777 53.1385 302.017 57.8768 312.887 62.6385 323.381 67.4165 333.511 72.2121 352.657 81.8285 370.391 91.4824 386.748 101.155 401.772 110.831 415.505 120.495 427.991 130.132 439.272 139.727 449.392 149.265 458.391 158.731 466.314 168.109 473.2 177.385 479.092 186.543 484.031 195.567 488.058 204.44 491.214 213.147 493.54 221.669 495.078 229.988 495.869 238.086 495.955 245.944 495.38 253.544 494.187 260.867 492.421 267.894 490.125 274.608 487.344 280.993 484.122 287.031 480.505 292.706 476.535 298.002 472.235 302.928 470.434 304.6 467.712 301.668 469.436 300.068 469.29 300.219 473.471 295.428 473.377 295.544 477.257 290.368 477.171 290.492 480.706 284.946 480.628 285.08 483.776 279.18 483.707 279.323 486.424 273.086 486.365 273.238 488.607 266.679 488.56 266.838 490.286 259.974 490.252 260.14 491.417 252.986 491.397 253.157 491.959 245.729 491.953 245.902 491.869 238.216 491.878 238.389 491.104 230.461 491.128 230.631 489.621 222.478 489.658 222.641 487.375 214.278 487.425 214.433 484.323 205.877 484.382 206.022 480.418 197.287 480.485 197.421 475.616 188.525 475.688 188.647 469.871 179.605 469.947 179.715 463.138 170.544 463.216 170.642 455.372 161.357 455.451 161.444 446.529 152.061 446.607 152.138 436.565 142.673 436.641 142.741 425.434 133.21 425.508 133.269 413.095 123.688 413.166 123.741 399.502 114.125 399.57 114.171 384.613 104.538 384.678 104.578 368.384 94.9433 368.446 94.9783 350.773 85.3573 350.831 85.3879 331.735 75.7968 331.777 75.8172 321.682 71.0379 321.709 71.0505 311.242 66.2846 311.268 66.2964 300.424 61.546 300.449 61.557 289.223 56.8242ZM474.605 306.202 461.703 309.895 466.489 297.361Z" fill="#0070C0"/><path d="M292.019 43.9845 320.436 44.26 348.648 45.0637 376.415 46.3602 403.516 48.1144 429.729 50.2911 454.828 52.8549 466.901 54.272 478.608 55.7725 489.928 57.3525 500.833 59.0077 511.296 60.7338 521.289 62.5267 530.785 64.3822 539.758 66.2962 548.18 68.2648 556.025 70.2842 563.267 72.3512 569.881 74.4631 575.844 76.618 581.131 78.8162 585.842 81.119 590.282 84.6036 587.811 87.7498 583.537 84.3958 583.894 84.6194 579.428 82.4363 579.539 82.4863 574.351 80.3295 574.439 80.3636 568.556 78.2376 568.628 78.2619 562.079 76.1711 562.139 76.189 554.951 74.1377 555.002 74.1514 547.204 72.144 547.247 72.1546 538.866 70.1956 538.904 70.204 529.967 68.2977 530.001 68.3046 520.536 66.4554 520.567 66.4611 510.603 64.6734 510.63 64.6782 500.194 62.9564 500.22 62.9604 489.339 61.3089 489.363 61.3124 478.066 59.7356 478.088 59.7386 466.402 58.2409 466.423 58.2435 454.377 56.8293 454.407 56.8326 429.341 54.2723 429.379 54.2758 403.203 52.1021 403.239 52.1048 376.175 50.353 376.211 50.355 348.48 49.0602 348.516 49.0616 320.341 48.2589 320.378 48.2596 291.981 47.9843ZM592.479 80.864 595.302 93.9803 583.111 88.368Z" fill="#0070C0"/><path d="M292.001 43.9844 336.234 43.9993 357.918 44.0173 379.08 44.0416 399.547 44.0718 419.146 44.1074 437.703 44.1479 455.044 44.1927 463.205 44.2166 470.996 44.2414 478.397 44.2671 485.385 44.2936 491.939 44.3208 498.037 44.3487 503.658 44.3772 508.779 44.4063 513.38 44.4358 517.438 44.4658 520.933 44.4961 523.842 44.5268 526.151 44.5578 527.836 44.5892 528.925 44.6226 529.329 44.6592 529.672 44.6905 529.553 44.6832 530.569 44.7144 530.545 44.7138 532.214 44.7448 532.203 44.7447 534.501 44.7756 537.401 44.8061 540.889 44.8364 544.943 44.8663 549.54 44.8959 554.659 44.9249 560.277 44.9534 566.374 44.9813 572.926 45.0085 579.913 45.0349 587.312 45.0606 595.103 45.0854 603.262 45.1094 620.601 45.1542 639.157 45.1946 658.754 45.2302 679.22 45.2604 700.381 45.2847 722.063 45.3027 756.292 45.3143 756.291 49.3143 722.06 49.3027 700.376 49.2847 679.214 49.2604 658.747 49.2302 639.148 49.1946 620.591 49.1542 603.25 49.1093 595.09 49.0854 587.298 49.0606 579.898 49.0349 572.91 49.0084 566.355 48.9812 560.257 48.9533 554.636 48.9248 549.515 48.8958 544.913 48.8662 540.854 48.8363 537.359 48.8059 534.447 48.7752 532.144 48.7442 530.459 48.7129 529.37 48.6795 528.966 48.6428 528.623 48.6116 528.742 48.6188 527.726 48.5877 527.75 48.5883 526.081 48.5572 526.092 48.5574 523.8 48.5266 520.898 48.496 517.409 48.4657 513.354 48.4357 508.756 48.4062 503.637 48.3772 498.019 48.3487 491.922 48.3208 485.37 48.2936 478.383 48.2671 470.983 48.2414 463.193 48.2166 455.034 48.1927 437.694 48.1478 419.139 48.1074 399.541 48.0718 379.075 48.0416 357.914 48.0173 336.233 47.9993 291.999 47.9844ZM754.293 41.3136 766.295 47.3177 754.289 53.3136Z" fill="#0070C0"/><path d="M202.519 335.221 194.353 335.206 186.44 335.163 179.039 335.098 172.406 335.012 166.797 334.911 164.451 334.856 162.456 334.798 160.836 334.737 159.608 334.674 158.685 334.596 158.279 334.495 158.027 334.433 158.342 334.485 157.61 334.423 157.675 334.427 156.495 334.366 156.523 334.367 154.926 334.308 154.943 334.308 152.961 334.251 152.972 334.251 150.637 334.196 150.648 334.196 145.05 334.095 145.06 334.096 138.436 334.01 138.444 334.01 131.051 333.945 131.06 333.945 124.994 333.917 125.013 329.917 131.082 329.945 138.484 330.011 145.117 330.096 150.726 330.197 153.072 330.252 155.067 330.31 156.687 330.371 157.915 330.434 158.838 330.512 159.244 330.613 159.495 330.676 159.181 330.624 159.913 330.686 159.848 330.681 161.028 330.742 160.999 330.741 162.597 330.8 162.58 330.8 164.562 330.857 164.551 330.857 166.886 330.912 166.875 330.912 172.473 331.013 172.463 331.013 179.087 331.098 179.079 331.098 186.472 331.164 186.465 331.164 194.371 331.206 194.364 331.206 202.527 331.221ZM126.986 337.923 115 331.887 127.022 325.923Z" fill="#00B050"/><path d="M202.523 435.901 194.36 435.901 186.454 435.899 179.06 435.897 172.436 435.894 166.837 435.89 164.502 435.888 162.52 435.886 160.922 435.884 159.741 435.882 159 435.879 158.743 435.877 158.492 435.875 158.504 435.875 157.772 435.872 156.594 435.87 154.998 435.868 153.017 435.866 150.683 435.864 145.085 435.86 138.461 435.857 131.068 435.855 125.003 435.854 125.004 431.854 131.069 431.855 138.463 431.857 145.087 431.86 150.686 431.864 153.021 431.866 155.003 431.868 156.602 431.87 157.785 431.872 158.523 431.875 158.78 431.877 159.031 431.879 159.019 431.879 159.748 431.882 160.928 431.884 162.524 431.886 164.506 431.888 166.84 431.89 172.438 431.894 179.062 431.897 186.455 431.899 194.361 431.901 202.523 431.901ZM127.003 439.854 115 433.853 127.005 427.854Z" fill="#00B050"/><path d="M292.069 138.953 304.509 139.38 316.915 140.629 329.122 142.643 341.034 145.369 352.557 148.751 363.596 152.736 374.055 157.272 383.841 162.307 392.859 167.79 401.013 173.672 408.209 179.907 414.349 186.451 419.331 193.264 423.073 200.357 424.166 204.558 420.294 205.565 419.259 201.589 419.425 202.018 415.86 195.26 416.014 195.507 411.191 188.911 411.346 189.099 405.361 182.719 405.51 182.862 398.46 176.753 398.599 176.864 390.581 171.08 390.712 171.166 381.823 165.761 381.947 165.831 372.283 160.859 372.402 160.915 362.061 156.431 362.178 156.477 351.255 152.534 351.371 152.572 339.965 149.224 340.082 149.254 328.289 146.556 328.41 146.58 316.326 144.586 316.451 144.602 304.174 143.366 304.306 143.375 291.931 142.951ZM427.732 201.94 424.164 214.873 415.955 204.259Z" fill="#00B050"/><text font-family="Yu Gothic,Yu Gothic_MSFontService,sans-serif" font-weight="400" font-size="14.6667" transform="matrix(1 0 0 0.999661 125.023 38)">測度</text><text font-family="Calibri,Calibri_MSFontService,sans-serif" font-weight="400" font-size="14.6667" transform="matrix(1 0 0 0.999661 154.366 38)">,</text><text font-family="Yu Gothic,Yu Gothic_MSFontService,sans-serif" font-weight="400" font-size="14.6667" transform="matrix(1 0 0 0.999661 214.971 90)">位相</text><text font-family="Cambria Math,Cambria Math_MSFontService,sans-serif" font-weight="400" font-size="14.6667" transform="matrix(1 0 0 0.999661 225.435 107)">𝒯</text><text font-family="Yu Gothic,Yu Gothic_MSFontService,sans-serif" font-weight="400" font-size="14.6667" transform="matrix(1 0 0 0.999661 140.338 135)">距離</text><text font-family="Cambria Math,Cambria Math_MSFontService,sans-serif" font-weight="400" font-size="14.6667" transform="matrix(1 0 0 0.999661 152.856 152)">𝑑</text><text font-family="Cambria Math,Cambria Math_MSFontService,sans-serif" font-weight="400" font-size="14.6667" transform="matrix(1 0 0 0.999661 77.5463 96)">𝜇</text><path d="M25.672 3.01734C27.0656 3.38483 28.1359 4.17829 28.8828 5.39771 29.6298 6.61714 30.0032 8.08832 30.0032 9.81126 30.0032 11.539 29.6309 13.0101 28.8864 14.2248 28.1419 15.4394 27.0704 16.2305 25.672 16.598L25.5002 16.0468C26.6027 15.6793 27.4224 14.9538 27.9593 13.8704 28.4962 12.787 28.7647 11.4101 28.7647 9.73967 28.7647 8.1265 28.4974 6.78657 27.9629 5.71987 27.4284 4.65317 26.6003 3.93608 25.4787 3.56858ZM16.4065 3.01734 16.5998 3.56858C15.483 3.93608 14.6561 4.65317 14.1192 5.71987 13.5823 6.78657 13.3138 8.1265 13.3138 9.73967 13.3138 11.4101 13.5823 12.787 14.1192 13.8704 14.6561 14.9538 15.4758 15.6793 16.5783 16.0468L16.4065 16.598C15.0081 16.2305 13.9366 15.4394 13.1921 14.2248 12.4476 13.0101 12.0753 11.539 12.0753 9.81126 12.0753 8.08832 12.4488 6.61714 13.1957 5.39771 13.9426 4.17829 15.0129 3.38483 16.4065 3.01734Z" fill-rule="evenodd" transform="matrix(1.00034 0 0 1 75.1522 82.3531)"/><text font-family="Cambria Math,Cambria Math_MSFontService,sans-serif" font-weight="400" font-size="14.6667" transform="matrix(1 0 0 0.999661 92.0313 96)">X</text><text font-family="Cambria Math,Cambria Math_MSFontService,sans-serif" font-weight="400" font-size="14.6667" transform="matrix(1 0 0 0.999661 110.531 96)">=</text><text font-family="Cambria Math,Cambria Math_MSFontService,sans-serif" font-weight="400" font-size="14.6667" transform="matrix(1 0 0 0.999661 125.609 96)">1</text><text font-family="Cambria Math,Cambria Math_MSFontService,sans-serif" font-weight="400" font-size="14.6667" transform="matrix(1 0 0 0.999661 89.0266 278)">𝑑</text><path d="M40.0387 3.01734C41.4323 3.38483 42.5026 4.17829 43.2495 5.39771 43.9964 6.61714 44.3699 8.08832 44.3699 9.81126 44.3699 11.539 43.9976 13.0101 43.2531 14.2248 42.5085 15.4394 41.4371 16.2305 40.0387 16.598L39.8669 16.0468C40.9693 15.6793 41.7891 14.9538 42.326 13.8704 42.8629 12.787 43.1314 11.4101 43.1314 9.73967 43.1314 8.1265 42.8641 6.78657 42.3296 5.71987 41.795 4.65317 40.967 3.93608 39.8454 3.56858ZM16.9598 3.01734 17.1531 3.56858C16.0363 3.93608 15.2095 4.65317 14.6725 5.71987 14.1356 6.78657 13.8671 8.1265 13.8671 9.73967 13.8671 11.4101 14.1356 12.787 14.6725 13.8704 15.2095 14.9538 16.0292 15.6793 17.1317 16.0468L16.9598 16.598C15.5614 16.2305 14.49 15.4394 13.7454 14.2248 13.0009 13.0101 12.6286 11.539 12.6286 9.81126 12.6286 8.08832 13.0021 6.61714 13.749 5.39771 14.4959 4.17829 15.5662 3.38483 16.9598 3.01734Z" fill-rule="evenodd" transform="matrix(1.00034 0 0 1 86.6525 264.49)"/><text font-family="Cambria Math,Cambria Math_MSFontService,sans-serif" font-weight="400" font-size="14.6667" transform="matrix(1 0 0 0.999661 104.085 278)">𝑥</text><text font-family="Cambria Math,Cambria Math_MSFontService,sans-serif" font-weight="400" font-size="14.6667" transform="matrix(1 0 0 0.999661 112.368 278)">,</text><text font-family="Cambria Math,Cambria Math_MSFontService,sans-serif" font-weight="400" font-size="14.6667" transform="matrix(1 0 0 0.999661 117.816 278)">𝑦</text><text font-family="Cambria Math,Cambria Math_MSFontService,sans-serif" font-weight="400" font-size="14.6667" transform="matrix(1 0 0 0.999661 136.403 278)">=</text><text font-family="Cambria Math,Cambria Math_MSFontService,sans-serif" font-weight="400" font-size="14.6667" transform="matrix(1 0 0 0.999661 151.481 278)">𝑖𝑛𝑓</text><path d="M120.71 2.9887 120.896 2.9887C122.017 3.00779 122.856 3.26432 123.412 3.7583 123.968 4.25227 124.246 4.99562 124.246 5.98833 124.246 6.38447 124.19 6.83549 124.078 7.34139 123.966 7.8473 123.91 8.18616 123.91 8.35797 123.91 8.68729 124.023 8.95575 124.25 9.16336 124.476 9.37098 124.819 9.48194 125.277 9.49626L125.277 10.0833C124.819 10.0976 124.476 10.2086 124.25 10.4162 124.023 10.6238 123.91 10.8923 123.91 11.2216 123.91 11.3934 123.966 11.7323 124.078 12.2382 124.19 12.7441 124.246 13.1951 124.246 13.5912 124.246 14.6174 123.968 15.3774 123.412 15.8714 122.856 16.3653 122.017 16.6219 120.896 16.641L120.71 16.641 120.71 16.0969 120.817 16.0969C121.509 16.0969 122.051 15.9167 122.442 15.5564 122.833 15.196 123.029 14.5839 123.029 13.7201 123.029 13.386 122.981 12.9732 122.886 12.4816 122.79 11.99 122.743 11.6392 122.743 11.4292 122.743 11.0235 122.862 10.6906 123.101 10.4305 123.339 10.1704 123.623 9.9783 123.953 9.85421L123.953 9.72535C123.623 9.60126 123.339 9.40916 123.101 9.14904 122.862 8.88894 122.743 8.55604 122.743 8.15036 122.743 7.94036 122.79 7.58957 122.886 7.09798 122.981 6.6064 123.029 6.19356 123.029 5.85947 123.029 5.02902 122.833 4.43363 122.442 4.07329 122.051 3.71296 121.509 3.53279 120.817 3.53279L120.71 3.53279ZM91.2948 2.9887 91.4809 2.9887 91.4809 3.53279 91.3735 3.53279C90.6815 3.53279 90.1398 3.71296 89.7484 4.07329 89.3571 4.43363 89.1614 5.02664 89.1614 5.85231 89.1614 6.1864 89.2091 6.59924 89.3046 7.09083 89.4 7.58241 89.4477 7.9332 89.4477 8.1432 89.4477 8.54888 89.3284 8.88177 89.0898 9.14189 88.8512 9.402 88.5672 9.5941 88.2379 9.71819L88.2379 9.84705C88.5672 9.97114 88.8512 10.1632 89.0898 10.4234 89.3284 10.6835 89.4477 11.0164 89.4477 11.422 89.4477 11.632 89.4 11.9828 89.3046 12.4744 89.2091 12.966 89.1614 13.3788 89.1614 13.7129 89.1614 14.5816 89.3571 15.196 89.7484 15.5564 90.1398 15.9167 90.6815 16.0969 91.3735 16.0969L91.4809 16.0969 91.4809 16.641 91.2948 16.641C90.1732 16.6219 89.3344 16.3653 88.7784 15.8714 88.2224 15.3774 87.9444 14.615 87.9444 13.5841 87.9444 13.1879 88.0004 12.7369 88.1126 12.231 88.2247 11.7251 88.2808 11.3862 88.2808 11.2144 88.2808 10.8851 88.1675 10.6166 87.9408 10.409 87.7141 10.2014 87.3716 10.0905 86.9134 10.0761L86.9134 9.4891C87.3716 9.47478 87.7141 9.36382 87.9408 9.15621 88.1675 8.94859 88.2808 8.68013 88.2808 8.35081 88.2808 8.179 88.2247 7.84014 88.1126 7.33423 88.0004 6.82833 87.9444 6.37731 87.9444 5.98117 87.9444 4.99323 88.2224 4.25227 88.7784 3.7583 89.3344 3.26432 90.1732 3.00779 91.2948 2.9887Z" fill-rule="evenodd" transform="matrix(1.00034 0 0 1 86.6525 264.49)"/><text font-family="Cambria Math,Cambria Math_MSFontService,sans-serif" font-weight="400" font-size="14.6667" transform="matrix(1 0 0 0.999661 178.597 278)">𝐿</text><path d="M114.659 3.01734C116.052 3.38483 117.123 4.17829 117.869 5.39771 118.616 6.61714 118.99 8.08832 118.99 9.81126 118.99 11.539 118.618 13.0101 117.873 14.2248 117.129 15.4394 116.057 16.2305 114.659 16.598L114.487 16.0468C115.589 15.6793 116.409 14.9538 116.946 13.8704 117.483 12.787 117.751 11.4101 117.751 9.73967 117.751 8.1265 117.484 6.78657 116.95 5.71987 116.415 4.65317 115.587 3.93608 114.465 3.56858ZM105.667 3.01734 105.86 3.56858C104.743 3.93608 103.916 4.65317 103.379 5.71987 102.842 6.78657 102.574 8.1265 102.574 9.73967 102.574 11.4101 102.842 12.787 103.379 13.8704 103.916 14.9538 104.736 15.6793 105.838 16.0468L105.667 16.598C104.268 16.2305 103.197 15.4394 102.452 14.2248 101.708 13.0101 101.335 11.539 101.335 9.81126 101.335 8.08832 101.709 6.61714 102.456 5.39771 103.203 4.17829 104.273 3.38483 105.667 3.01734Z" fill-rule="evenodd" transform="matrix(1.00034 0 0 1 86.6525 264.49)"/><text font-family="Cambria Math,Cambria Math_MSFontService,sans-serif" font-weight="400" font-size="14.6667" transform="matrix(1 0 0 0.999661 192.822 278)">𝛾</text><text font-family="Cambria Math,Cambria Math_MSFontService,sans-serif" font-weight="400" font-size="14.6667" transform="matrix(1 0 0 0.999661 253.758 290)">𝑑</text><path d="M40.332 3.01734C41.7256 3.38483 42.7959 4.17829 43.5428 5.39771 44.2898 6.61714 44.6632 8.08832 44.6632 9.81126 44.6632 11.539 44.291 13.0101 43.5464 14.2248 42.8019 15.4394 41.7304 16.2305 40.332 16.598L40.1602 16.0468C41.2627 15.6793 42.0824 14.9538 42.6193 13.8704 43.1562 12.787 43.4247 11.4101 43.4247 9.73967 43.4247 8.1265 43.1574 6.78657 42.6229 5.71987 42.0884 4.65317 41.2603 3.93608 40.1387 3.56858ZM17.2532 3.01734 17.4465 3.56858C16.3297 3.93608 15.5028 4.65317 14.9659 5.71987 14.4289 6.78657 14.1605 8.1265 14.1605 9.73967 14.1605 11.4101 14.4289 12.787 14.9659 13.8704 15.5028 14.9538 16.3225 15.6793 17.425 16.0468L17.2532 16.598C15.8548 16.2305 14.7833 15.4394 14.0388 14.2248 13.2942 13.0101 12.922 11.539 12.922 9.81126 12.922 8.08832 13.2954 6.61714 14.0423 5.39771 14.7893 4.17829 15.8595 3.38483 17.2532 3.01734Z" fill-rule="evenodd" transform="matrix(1.00034 0 0 1 251.091 276.028)"/><text font-family="Cambria Math,Cambria Math_MSFontService,sans-serif" font-weight="400" font-size="14.6667" transform="matrix(1 0 0 0.999661 268.817 290)">𝑥</text><text font-family="Cambria Math,Cambria Math_MSFontService,sans-serif" font-weight="400" font-size="14.6667" transform="matrix(1 0 0 0.999661 277.1 290)">,</text><text font-family="Cambria Math,Cambria Math_MSFontService,sans-serif" font-weight="400" font-size="14.6667" transform="matrix(1 0 0 0.999661 282.548 290)">𝑦</text><text font-family="Cambria Math,Cambria Math_MSFontService,sans-serif" font-weight="400" font-size="14.6667" transform="matrix(1 0 0 0.999661 301.135 290)">=</text><path d="M111.956 3.15089 113.058 3.15089 113.058 16.4738 111.956 16.4738ZM108.842 3.15089 109.944 3.15089 109.944 16.4738 108.842 16.4738ZM69.9825 3.15089 71.085 3.15089 71.085 16.4738 69.9825 16.4738ZM66.8683 3.15089 67.9708 3.15089 67.9708 16.4738 66.8683 16.4738Z" fill-rule="evenodd" transform="matrix(1.00034 0 0 1 251.091 276.028)"/><text font-family="Cambria Math,Cambria Math_MSFontService,sans-serif" font-weight="400" font-size="14.6667" transform="matrix(1 0 0 0.999661 323.969 290)">𝑥</text><text font-family="Cambria Math,Cambria Math_MSFontService,sans-serif" font-weight="400" font-size="14.6667" transform="matrix(1 0 0 0.999661 335.513 290)">−</text><text font-family="Cambria Math,Cambria Math_MSFontService,sans-serif" font-weight="400" font-size="14.6667" transform="matrix(1 0 0 0.999661 349.778 290)">𝑦</text><text font-family="Yu Gothic,Yu Gothic_MSFontService,sans-serif" font-weight="400" font-size="14.6667" transform="matrix(1 0 0 0.999661 386.574 97)">体</text><text font-family="Calibri,Calibri_MSFontService,sans-serif" font-weight="400" font-size="14.6667" transform="matrix(1 0 0 0.999661 401.245 97)">,</text><text font-family="Yu Gothic,Yu Gothic_MSFontService,sans-serif" font-weight="400" font-size="14.6667" transform="matrix(1 0 0 0.999661 408.248 97)">加法</text><text font-family="Calibri,Calibri_MSFontService,sans-serif" font-weight="400" font-size="14.6667" transform="matrix(1 0 0 0.999661 437.591 97)">,</text><text font-family="Yu Gothic,Yu Gothic_MSFontService,sans-serif" font-weight="400" font-size="14.6667" transform="matrix(1 0 0 0.999661 415.917 114)">スカラー倍</text><text font-family="Cambria Math,Cambria Math_MSFontService,sans-serif" font-weight="400" font-size="14.6667" transform="matrix(1 0 0 0.999661 368.687 149)">𝑇</text><text font-family="Cambria Math,Cambria Math_MSFontService,sans-serif" font-weight="400" font-size="10.7067" transform="matrix(1 0 0 0.999661 375.783 152)">2</text><text font-family="Yu Gothic,Yu Gothic_MSFontService,sans-serif" font-weight="400" font-size="14.6667" transform="matrix(1 0 0 0.999661 143.41 350)">完備化</text><text font-family="Yu Gothic,Yu Gothic_MSFontService,sans-serif" font-weight="400" font-size="14.6667" transform="matrix(1 0 0 0.999661 146.078 453)">完備化</text><path d="M23.4758 6.14987 24.5783 6.14987 24.5783 19.4728 23.4758 19.4728ZM20.3616 6.14987 21.4641 6.14987 21.4641 19.4728 20.3616 19.4728ZM7.44246 6.14987 8.54495 6.14987 8.54495 19.4728 7.44246 19.4728ZM4.32828 6.14987 5.43077 6.14987 5.43077 19.4728 4.32828 19.4728Z" fill-rule="evenodd" transform="matrix(1.00034 0 0 1 150.303 378.471)"/><text font-family="Cambria Math,Cambria Math_MSFontService,sans-serif" font-weight="400" font-size="14.6667" transform="matrix(1 0 0 0.999661 160.62 395)">𝑥</text><text font-family="Cambria Math,Cambria Math_MSFontService,sans-serif" font-weight="400" font-size="14.6667" transform="matrix(1 0 0 0.999661 180.733 395)">=</text><path d="M54.9146 2.68287 56.9192 2.68287 56.9192 2.99898 72.4754 2.99898 88.9698 2.99898 88.9698 3.99864 72.4754 3.99864 55.981 3.99864 55.981 3.63502 55.4873 3.63502 50.834 20.8883 50.1395 20.8883 47.1757 14.5167 45.9658 15.0537 45.7439 14.5167 48.0921 13.4429 50.5691 18.9697Z" fill-rule="evenodd" transform="matrix(1.00034 0 0 1 150.303 378.471)"/><path d="M85.1915 6.11407 88.048 12.5429 88.048 13.0726 85.1915 19.5086 84.4255 19.2366 86.7236 12.8078 84.4255 6.3718ZM60.138 6.11407 60.8969 6.38612 58.5988 12.8149 60.8969 19.2509 60.138 19.5086 57.2815 13.0798 57.2815 12.55Z" fill-rule="evenodd" transform="matrix(1.00034 0 0 1 150.303 378.471)"/><text font-family="Cambria Math,Cambria Math_MSFontService,sans-serif" font-weight="400" font-size="14.6667" transform="matrix(1 0 0 0.999661 211.984 395)">𝑥</text><text font-family="Cambria Math,Cambria Math_MSFontService,sans-serif" font-weight="400" font-size="14.6667" transform="matrix(1 0 0 0.999661 220.267 395)">,</text><text font-family="Cambria Math,Cambria Math_MSFontService,sans-serif" font-weight="400" font-size="14.6667" transform="matrix(1 0 0 0.999661 225.715 395)">𝑥</text><text font-family="Yu Gothic,Yu Gothic_MSFontService,sans-serif" font-weight="400" font-size="14.6667" transform="matrix(1 0 0 0.999661 303.962 351)">ノルム</text><path d="M60.8025 3.15089 61.905 3.15089 61.905 16.4738 60.8025 16.4738ZM57.6883 3.15089 58.7908 3.15089 58.7908 16.4738 57.6883 16.4738ZM48.8825 3.15089 49.985 3.15089 49.985 16.4738 48.8825 16.4738ZM45.7683 3.15089 46.8708 3.15089 46.8708 16.4738 45.7683 16.4738Z" fill-rule="evenodd" transform="matrix(1.00034 0 0 1 303.962 337.483)"/><text font-family="Cambria Math,Cambria Math_MSFontService,sans-serif" font-weight="400" font-size="14.6667" transform="matrix(1 0 0 0.999661 355.733 351)">∙</text><text font-family="Yu Gothic,Yu Gothic_MSFontService,sans-serif" font-weight="400" font-size="14.6667" transform="matrix(1 0 0 0.999661 332.723 401)">内積</text><text font-family="Cambria Math,Cambria Math_MSFontService,sans-serif" font-weight="400" font-size="14.6667" transform="matrix(1 0 0 0.999661 362.066 401)"></text><path d="M51.0249 3.11509 53.8813 9.5439 53.8813 10.0737 51.0249 16.5096 50.2589 16.2376 52.5569 9.80878 50.2589 3.37281ZM38.6447 3.11509 39.4035 3.38713 37.1055 9.81594 39.4035 16.2519 38.6447 16.5096 35.7882 10.0808 35.7882 9.55106Z" fill-rule="evenodd" transform="matrix(1.00034 0 0 1 330.329 387.503)"/><text font-family="Cambria Math,Cambria Math_MSFontService,sans-serif" font-weight="400" font-size="14.6667" transform="matrix(1 0 0 0.999661 370.509 401)"></text><text font-family="Cambria Math,Cambria Math_MSFontService,sans-serif" font-weight="400" font-size="14.6667" transform="matrix(1 0 0 0.999661 373.677 401)">,</text><text font-family="Cambria Math,Cambria Math_MSFontService,sans-serif" font-weight="400" font-size="14.6667" transform="matrix(1 0 0 0.999661 376.678 401)"></text><text font-family="Cambria Math,Cambria Math_MSFontService,sans-serif" font-weight="400" font-size="14.6667" transform="matrix(1 0 0 0.999661 256.779 199)">𝒯</text><text font-family="Cambria Math,Cambria Math_MSFontService,sans-serif" font-weight="400" font-size="14.6667" transform="matrix(1 0 0 0.999661 271.264 199)">=</text><path d="M92.9296 2.9887 93.1157 2.9887C94.2373 3.00779 95.0761 3.26432 95.6321 3.7583 96.1881 4.25227 96.4661 4.99562 96.4661 5.98833 96.4661 6.38447 96.41 6.83549 96.2979 7.34139 96.1857 7.8473 96.1296 8.18616 96.1296 8.35797 96.1296 8.68729 96.243 8.95575 96.4697 9.16336 96.6964 9.37098 97.0388 9.48194 97.497 9.49626L97.497 10.0833C97.0388 10.0976 96.6964 10.2086 96.4697 10.4162 96.243 10.6238 96.1296 10.8923 96.1296 11.2216 96.1296 11.3934 96.1857 11.7323 96.2979 12.2382 96.41 12.7441 96.4661 13.1951 96.4661 13.5912 96.4661 14.6174 96.1881 15.3774 95.6321 15.8714 95.0761 16.3653 94.2373 16.6219 93.1157 16.641L92.9296 16.641 92.9296 16.0969 93.0369 16.0969C93.729 16.0969 94.2707 15.9167 94.662 15.5564 95.0534 15.196 95.2491 14.5839 95.2491 13.7201 95.2491 13.386 95.2013 12.9732 95.1059 12.4816 95.0104 11.99 94.9627 11.6392 94.9627 11.4292 94.9627 11.0235 95.082 10.6906 95.3207 10.4305 95.5593 10.1704 95.8433 9.9783 96.1726 9.85421L96.1726 9.72535C95.8433 9.60126 95.5593 9.40916 95.3207 9.14904 95.082 8.88894 94.9627 8.55604 94.9627 8.15036 94.9627 7.94036 95.0104 7.58957 95.1059 7.09798 95.2013 6.6064 95.2491 6.19356 95.2491 5.85947 95.2491 5.02902 95.0534 4.43363 94.662 4.07329 94.2707 3.71296 93.729 3.53279 93.0369 3.53279L92.9296 3.53279ZM37.2681 2.9887 37.4542 2.9887 37.4542 3.53279 37.3469 3.53279C36.6548 3.53279 36.1131 3.71296 35.7218 4.07329 35.3304 4.43363 35.1347 5.02664 35.1347 5.85231 35.1347 6.1864 35.1824 6.59924 35.2779 7.09083 35.3733 7.58241 35.4211 7.9332 35.4211 8.1432 35.4211 8.54888 35.3018 8.88177 35.0631 9.14189 34.8245 9.402 34.5405 9.5941 34.2112 9.71819L34.2112 9.84705C34.5405 9.97114 34.8245 10.1632 35.0631 10.4234 35.3018 10.6835 35.4211 11.0164 35.4211 11.422 35.4211 11.632 35.3733 11.9828 35.2779 12.4744 35.1824 12.966 35.1347 13.3788 35.1347 13.7129 35.1347 14.5816 35.3304 15.196 35.7218 15.5564 36.1131 15.9167 36.6548 16.0969 37.3469 16.0969L37.4542 16.0969 37.4542 16.641 37.2681 16.641C36.1465 16.6219 35.3077 16.3653 34.7517 15.8714 34.1957 15.3774 33.9177 14.615 33.9177 13.5841 33.9177 13.1879 33.9738 12.7369 34.0859 12.231 34.1981 11.7251 34.2542 11.3862 34.2542 11.2144 34.2542 10.8851 34.1408 10.6166 33.9141 10.409 33.6874 10.2014 33.345 10.0905 32.8868 10.0761L32.8868 9.4891C33.345 9.47478 33.6874 9.36382 33.9141 9.15621 34.1408 8.94859 34.2542 8.68013 34.2542 8.35081 34.2542 8.179 34.1981 7.84014 34.0859 7.33423 33.9738 6.82833 33.9177 6.37731 33.9177 5.98117 33.9177 4.99323 34.1957 4.25227 34.7517 3.7583 35.3077 3.26432 36.1465 3.00779 37.2681 2.9887Z" fill-rule="evenodd" transform="matrix(1.00034 0 0 1 254.125 185.431)"/><text font-family="Cambria Math,Cambria Math_MSFontService,sans-serif" font-weight="400" font-size="14.6667" transform="matrix(1 0 0 0.999661 292.025 199)">⋃</text><text font-family="Cambria Math,Cambria Math_MSFontService,sans-serif" font-weight="400" font-size="14.6667" transform="matrix(1 0 0 0.999661 303.362 199)">𝐵</text><path d="M86.8787 3.01734C88.2723 3.38483 89.3426 4.17829 90.0895 5.39771 90.8364 6.61714 91.2099 8.08832 91.2099 9.81126 91.2099 11.539 90.8376 13.0101 90.0931 14.2248 89.3485 15.4394 88.2771 16.2305 86.8787 16.598L86.7069 16.0468C87.8093 15.6793 88.6291 14.9538 89.166 13.8704 89.7029 12.787 89.9714 11.4101 89.9714 9.73967 89.9714 8.1265 89.7041 6.78657 89.1696 5.71987 88.635 4.65317 87.807 3.93608 86.6854 3.56858ZM64.8998 3.01734 65.0931 3.56858C63.9763 3.93608 63.1495 4.65317 62.6125 5.71987 62.0756 6.78657 61.8071 8.1265 61.8071 9.73967 61.8071 11.4101 62.0756 12.787 62.6125 13.8704 63.1495 14.9538 63.9692 15.6793 65.0717 16.0468L64.8998 16.598C63.5014 16.2305 62.43 15.4394 61.6854 14.2248 60.9409 13.0101 60.5686 11.539 60.5686 9.81126 60.5686 8.08832 60.9421 6.61714 61.689 5.39771 62.4359 4.17829 63.5062 3.38483 64.8998 3.01734Z" fill-rule="evenodd" transform="matrix(1.00034 0 0 1 254.125 185.431)"/><text font-family="Cambria Math,Cambria Math_MSFontService,sans-serif" font-weight="400" font-size="14.6667" transform="matrix(1 0 0 0.999661 319.514 199)">𝑥</text><text font-family="Cambria Math,Cambria Math_MSFontService,sans-serif" font-weight="400" font-size="14.6667" transform="matrix(1 0 0 0.999661 327.797 199)">,</text><text font-family="Cambria Math,Cambria Math_MSFontService,sans-serif" font-weight="400" font-size="14.6667" transform="matrix(1 0 0 0.999661 333.245 199)">𝑟</text><text font-family="Yu Gothic,Yu Gothic_MSFontService,sans-serif" font-weight="400" font-size="14.6667" transform="matrix(1 0 0 0.999661 485.299 83)">二項演算</text><path d="M34.4115 3.11509 37.268 9.5439 37.268 10.0737 34.4115 16.5096 33.6455 16.2376 35.9436 9.80878 33.6455 3.37281ZM6.08467 3.11509 6.84352 3.38713 4.54547 9.81594 6.84352 16.2519 6.08467 16.5096 3.22821 10.0808 3.22821 9.55106Z" fill="#00B050" fill-rule="evenodd" transform="matrix(1.00034 0 0 1 507.483 109.079)"/><text fill="#00B050" font-family="Cambria Math,Cambria Math_MSFontService,sans-serif" font-weight="400" font-size="14.6667" transform="matrix(1 0 0 0.999661 515.093 123)">ℤ</text><text fill="#00B050" font-family="Cambria Math,Cambria Math_MSFontService,sans-serif" font-weight="400" font-size="14.6667" transform="matrix(1 0 0 0.999661 523.929 123)">,</text><text fill="#00B050" font-family="Cambria Math,Cambria Math_MSFontService,sans-serif" font-weight="400" font-size="14.6667" transform="matrix(1 0 0 0.999661 529.378 123)">−</text><path d="M36.0782 3.11509 38.9347 9.5439 38.9347 10.0737 36.0782 16.5096 35.3122 16.2376 37.6102 9.80878 35.3122 3.37281ZM6.08467 3.11509 6.84352 3.38713 4.54547 9.81594 6.84352 16.2519 6.08467 16.5096 3.22821 10.0808 3.22821 9.55106Z" fill="#00B050" fill-rule="evenodd" transform="matrix(1.00034 0 0 1 505.329 194.79)"/><text fill="#00B050" font-family="Cambria Math,Cambria Math_MSFontService,sans-serif" font-weight="400" font-size="14.6667" transform="matrix(1 0 0 0.999661 512.938 209)">ℕ</text><text fill="#00B050" font-family="Cambria Math,Cambria Math_MSFontService,sans-serif" font-weight="400" font-size="14.6667" transform="matrix(1 0 0 0.999661 523.442 209)">,</text><text fill="#00B050" font-family="Cambria Math,Cambria Math_MSFontService,sans-serif" font-weight="400" font-size="14.6667" transform="matrix(1 0 0 0.999661 528.89 209)">+</text><path d="M31.4382 3.11509 34.2947 9.5439 34.2947 10.0737 31.4382 16.5096 30.6722 16.2376 32.9702 9.80878 30.6722 3.37281ZM6.058 3.11509 6.81686 3.38713 4.51881 9.81594 6.81686 16.2519 6.058 16.5096 3.20155 10.0808 3.20155 9.55106Z" fill="#00B050" fill-rule="evenodd" transform="matrix(1.00034 0 0 1 510.46 275.031)"/><text fill="#00B050" font-family="Cambria Math,Cambria Math_MSFontService,sans-serif" font-weight="400" font-size="14.6667" transform="matrix(1 0 0 0.999661 518.042 289)">ℤ</text><text fill="#00B050" font-family="Cambria Math,Cambria Math_MSFontService,sans-serif" font-weight="400" font-size="14.6667" transform="matrix(1 0 0 0.999661 526.879 289)">,</text><text fill="#00B050" font-family="Cambria Math,Cambria Math_MSFontService,sans-serif" font-weight="400" font-size="14.6667" transform="matrix(1 0 0 0.999661 529.88 289)">×</text><text fill="#00B050" font-family="Cambria Math,Cambria Math_MSFontService,sans-serif" font-weight="400" font-size="14.6667" transform="matrix(1 0 0 0.999661 498.07 376)">𝐺𝐿</text><text fill="#00B050" font-family="Cambria Math,Cambria Math_MSFontService,sans-serif" font-weight="400" font-size="10.7067" transform="matrix(1 0 0 0.999661 515.075 379)">𝑛</text><path d="M44.272 3.01734C45.6656 3.38483 46.7359 4.17829 47.4828 5.39771 48.2298 6.61714 48.6032 8.08832 48.6032 9.81126 48.6032 11.539 48.2309 13.0101 47.4864 14.2248 46.7419 15.4394 45.6704 16.2305 44.272 16.598L44.1002 16.0468C45.2027 15.6793 46.0224 14.9538 46.5593 13.8704 47.0962 12.787 47.3647 11.4101 47.3647 9.73967 47.3647 8.1265 47.0974 6.78657 46.5629 5.71987 46.0284 4.65317 45.2003 3.93608 44.0787 3.56858ZM32.3398 3.01734 32.5331 3.56858C31.4163 3.93608 30.5895 4.65317 30.0525 5.71987 29.5156 6.78657 29.2471 8.1265 29.2471 9.73967 29.2471 11.4101 29.5156 12.787 30.0525 13.8704 30.5895 14.9538 31.4092 15.6793 32.5117 16.0468L32.3398 16.598C30.9414 16.2305 29.87 15.4394 29.1254 14.2248 28.3809 13.0101 28.0086 11.539 28.0086 9.81126 28.0086 8.08832 28.3821 6.61714 29.129 5.39771 29.8759 4.17829 30.9462 3.38483 32.3398 3.01734Z" fill="#00B050" fill-rule="evenodd" transform="matrix(1.00034 0 0 1 496.136 362.17)"/><text fill="#00B050" font-family="Cambria Math,Cambria Math_MSFontService,sans-serif" font-weight="400" font-size="14.6667" transform="matrix(1 0 0 0.999661 528.953 376)">ℝ</text><path d="M34.4115 3.11509 37.268 9.5439 37.268 10.0737 34.4115 16.5096 33.6455 16.2376 35.9436 9.80878 33.6455 3.37281ZM6.08467 3.11509 6.84352 3.38713 4.54547 9.81594 6.84352 16.2519 6.08467 16.5096 3.22821 10.0808 3.22821 9.55106Z" fill="#00B050" fill-rule="evenodd" transform="matrix(1.00034 0 0 1 506.907 448.459)"/><text fill="#00B050" font-family="Cambria Math,Cambria Math_MSFontService,sans-serif" font-weight="400" font-size="14.6667" transform="matrix(1 0 0 0.999661 514.516 462)">ℤ</text><text fill="#00B050" font-family="Cambria Math,Cambria Math_MSFontService,sans-serif" font-weight="400" font-size="14.6667" transform="matrix(1 0 0 0.999661 523.353 462)">,</text><text fill="#00B050" font-family="Cambria Math,Cambria Math_MSFontService,sans-serif" font-weight="400" font-size="14.6667" transform="matrix(1 0 0 0.999661 528.801 462)">+</text><text font-family="Yu Gothic,Yu Gothic_MSFontService,sans-serif" font-weight="400" font-size="14.6667" transform="matrix(1 0 0 0.999661 544.353 163)">結合性</text><text font-family="Yu Gothic,Yu Gothic_MSFontService,sans-serif" font-weight="400" font-size="14.6667" transform="matrix(1 0 0 0.999661 544.352 246)">単位元</text><text font-family="Yu Gothic,Yu Gothic_MSFontService,sans-serif" font-weight="400" font-size="14.6667" transform="matrix(1 0 0 0.999661 559.469 332)">逆元</text><text font-family="Yu Gothic,Yu Gothic_MSFontService,sans-serif" font-weight="400" font-size="14.6667" transform="matrix(1 0 0 0.999661 545.388 417)">可換性</text><text fill="#00B050" font-family="Cambria Math,Cambria Math_MSFontService,sans-serif" font-weight="400" font-size="14.6667" transform="matrix(1 0 0 0.999661 867.307 47)">𝑀</text><text fill="#00B050" font-family="Cambria Math,Cambria Math_MSFontService,sans-serif" font-weight="400" font-size="10.7067" transform="matrix(1 0 0 0.999661 878.951 50)">𝑛</text><path d="M38.9253 3.01734C40.319 3.38483 41.3892 4.17829 42.1362 5.39771 42.8831 6.61714 43.2566 8.08832 43.2566 9.81126 43.2566 11.539 42.8843 13.0101 42.1397 14.2248 41.3952 15.4394 40.3237 16.2305 38.9253 16.598L38.7535 16.0468C39.856 15.6793 40.6757 14.9538 41.2127 13.8704 41.7496 12.787 42.018 11.4101 42.018 9.73967 42.018 8.1265 41.7508 6.78657 41.2162 5.71987 40.6817 4.65317 39.8536 3.93608 38.732 3.56858ZM26.9932 3.01734 27.1865 3.56858C26.0697 3.93608 25.2428 4.65317 24.7059 5.71987 24.1689 6.78657 23.9005 8.1265 23.9005 9.73967 23.9005 11.4101 24.1689 12.787 24.7059 13.8704 25.2428 14.9538 26.0625 15.6793 27.165 16.0468L26.9932 16.598C25.5948 16.2305 24.5233 15.4394 23.7788 14.2248 23.0342 13.0101 22.662 11.539 22.662 9.81126 22.662 8.08832 23.0354 6.61714 23.7823 5.39771 24.5293 4.17829 25.5995 3.38483 26.9932 3.01734Z" fill="#00B050" fill-rule="evenodd" transform="matrix(1.00034 0 0 1 865.359 32.6108)"/><text fill="#00B050" font-family="Cambria Math,Cambria Math_MSFontService,sans-serif" font-weight="400" font-size="14.6667" transform="matrix(1 0 0 0.999661 892.829 47)">ℝ</text><text fill="#00B050" font-family="Cambria Math,Cambria Math_MSFontService,sans-serif" font-weight="400" font-size="14.6667" transform="matrix(1 0 0 0.999661 866.544 135)">ℤ</text><text fill="#00B050" font-family="Cambria Math,Cambria Math_MSFontService,sans-serif" font-weight="400" font-size="14.6667" transform="matrix(1 0 0 0.999661 875.38 135)">/</text><text fill="#00B050" font-family="Cambria Math,Cambria Math_MSFontService,sans-serif" font-weight="400" font-size="14.6667" transform="matrix(1 0 0 0.999661 882.549 135)">𝑛ℤ</text><text fill="#00B050" font-family="Cambria Math,Cambria Math_MSFontService,sans-serif" font-weight="400" font-size="14.6667" transform="matrix(1 0 0 0.999661 899.722 135)">,</text><text fill="#00B050" font-family="Cambria Math,Cambria Math_MSFontService,sans-serif" font-weight="400" font-size="14.6667" transform="matrix(1 0 0 0.999661 905.17 135)">𝑛</text><text fill="#00B050" font-family="Cambria Math,Cambria Math_MSFontService,sans-serif" font-weight="400" font-size="14.6667" transform="matrix(1 0 0 0.999661 917.834 135)">∉</text><text fill="#00B050" font-family="Cambria Math,Cambria Math_MSFontService,sans-serif" font-weight="400" font-size="14.6667" transform="matrix(1 0 0 0.999661 931.246 135)">ℙ</text><text fill="#00B050" font-family="Cambria Math,Cambria Math_MSFontService,sans-serif" font-weight="400" font-size="14.6667" transform="matrix(1 0 0 0.999661 864.19 220)">ℤ</text><path d="M52.3022 1.78486 55.7099 1.78486 55.7099 25.8392 52.3022 25.8392 52.3022 25.2164 54.3854 25.2164 54.3854 2.4077 52.3022 2.4077ZM30.4451 1.78486 33.8528 1.78486 33.8528 2.4077 31.7695 2.4077 31.7695 25.2164 33.8528 25.2164 33.8528 25.8392 30.4451 25.8392Z" fill="#00B050" fill-rule="evenodd" transform="matrix(1.00034 0 0 1 844.197 201.953)"/><path d="M43.9851 3.99864 51.9824 3.99864 51.9824 4.9983 44.668 4.9983 44.668 5.27751 43.3722 5.27751 39.5206 18.4358 38.8262 18.4358 35.8624 12.0643 34.6525 12.6012 34.4306 12.0643 36.7787 10.9904 39.3059 16.5458 42.8424 4.32536 43.9851 4.32536Z" fill="#00B050" fill-rule="evenodd" transform="matrix(1.00034 0 0 1 844.197 201.953)"/><text fill="#00B050" font-family="Cambria Math,Cambria Math_MSFontService,sans-serif" font-weight="400" font-size="14.6667" transform="matrix(1 0 0 0.999661 888.025 220)">5</text><text fill="#00B050" font-family="Cambria Math,Cambria Math_MSFontService,sans-serif" font-weight="400" font-size="14.6667" transform="matrix(1 0 0 0.999661 864.832 308)">ℤ</text><path d="M48.3212 2.9887 51.5141 2.9887 51.5141 16.641 48.3212 16.641 48.3212 16.0897 50.3257 16.0897 50.3257 3.53995 48.3212 3.53995ZM34.6523 2.9887 37.8452 2.9887 37.8452 3.53995 35.8407 3.53995 35.8407 16.0897 37.8452 16.0897 37.8452 16.641 34.6523 16.641Z" fill="#00B050" fill-rule="evenodd" transform="matrix(1.00034 0 0 1 840.637 293.592)"/><text fill="#00B050" font-family="Cambria Math,Cambria Math_MSFontService,sans-serif" font-weight="400" font-size="14.6667" transform="matrix(1 0 0 0.999661 878.803 308)">𝑋</text><text fill="#00B050" font-family="Cambria Math,Cambria Math_MSFontService,sans-serif" font-weight="400" font-size="14.6667" transform="matrix(1 0 0 0.999661 861.497 392)">ℤ</text><path d="M79.8822 1.70427 83.5619 1.70427 83.5619 38.7093 79.8822 38.7093 79.8822 38.022 82.1659 38.022 82.1659 2.39153 79.8822 2.39153ZM12.9051 1.70427 16.5848 1.70427 16.5848 2.39153 14.3011 2.39153 14.3011 38.022 16.5848 38.022 16.5848 38.7093 12.9051 38.7093Z" fill="#00B050" fill-rule="evenodd" transform="matrix(1.00034 0 0 1 861.497 364.334)"/><text fill="#00B050" font-family="Cambria Math,Cambria Math_MSFontService,sans-serif" font-weight="400" font-size="14.6667" transform="matrix(1 0 0 0.999661 878.409 381)">1</text><text fill="#00B050" font-family="Cambria Math,Cambria Math_MSFontService,sans-serif" font-weight="400" font-size="14.6667" transform="matrix(1 0 0 0.999661 889.84 381)">+</text><path d="M51.9824 3.99864 65.4778 3.99864 78.9732 3.99864 78.9732 4.99831 65.4778 4.99831 51.9824 4.99831 51.9824 4.95762 51.7855 4.95762 47.934 18.1159 47.2395 18.1159 44.2757 11.7444 43.0658 12.2813 42.8439 11.7444 45.1921 10.6705 47.7192 16.2259 51.2558 4.00546 51.9824 4.00546Z" fill="#00B050" fill-rule="evenodd" transform="matrix(1.00034 0 0 1 861.497 364.334)"/><text fill="#00B050" font-family="Cambria Math,Cambria Math_MSFontService,sans-serif" font-weight="400" font-size="14.6667" transform="matrix(1 0 0 0.999661 913.742 381)">−</text><text fill="#00B050" font-family="Cambria Math,Cambria Math_MSFontService,sans-serif" font-weight="400" font-size="14.6667" transform="matrix(1 0 0 0.999661 924.745 381)">19</text><text fill="#00B050" font-family="Cambria Math,Cambria Math_MSFontService,sans-serif" font-weight="400" font-size="14.6667" transform="matrix(1 0 0 0.999661 905.659 402)">2</text><path d="M16.9942 22.9922 32.7389 22.9922 48.4836 22.9922 64.2282 22.9922 79.9729 22.9922 79.9729 23.9919 64.2282 23.9919 48.4836 23.9919 32.7389 23.9919 16.9942 23.9919Z" fill="#00B050" fill-rule="evenodd" transform="matrix(1.00034 0 0 1 861.497 364.334)"/><text fill="#00B050" font-family="Cambria Math,Cambria Math_MSFontService,sans-serif" font-weight="400" font-size="14.6667" transform="matrix(1 0 0 0.999661 863.624 477)">ℤ</text><text fill="#00B050" font-family="Cambria Math,Cambria Math_MSFontService,sans-serif" font-weight="400" font-size="14.6667" transform="matrix(1 0 0 0.999661 872.46 477)">,</text><text fill="#00B050" font-family="Cambria Math,Cambria Math_MSFontService,sans-serif" font-weight="400" font-size="14.6667" transform="matrix(1 0 0 0.999661 877.908 477)">ℤ</text><path d="M34.8078 2.9887 38.0008 2.9887 38.0008 16.641 34.8078 16.641 34.8078 16.0897 36.8124 16.0897 36.8124 3.53995 34.8078 3.53995ZM25.8656 2.9887 29.0585 2.9887 29.0585 3.53995 27.054 3.53995 27.054 16.0897 29.0585 16.0897 29.0585 16.641 25.8656 16.641Z" fill="#00B050" fill-rule="evenodd" transform="matrix(1.00034 0 0 1 862.503 463.302)"/><text fill="#00B050" font-family="Cambria Math,Cambria Math_MSFontService,sans-serif" font-weight="400" font-size="14.6667" transform="matrix(1 0 0 0.999661 891.88 477)">𝑖</text><text fill="#00B050" font-family="Cambria Math,Cambria Math_MSFontService,sans-serif" font-weight="400" font-size="14.6667" transform="matrix(1 0 0 0.999661 902.15 477)">,</text><text fill="#00B050" font-family="Cambria Math,Cambria Math_MSFontService,sans-serif" font-weight="400" font-size="14.6667" transform="matrix(1 0 0 0.999661 907.599 477)">ℝ</text><path d="M71.3812 2.9887 74.5741 2.9887 74.5741 16.641 71.3812 16.641 71.3812 16.0897 73.3857 16.0897 73.3857 3.53995 71.3812 3.53995ZM57.7123 2.9887 60.9052 2.9887 60.9052 3.53995 58.9007 3.53995 58.9007 16.0897 60.9052 16.0897 60.9052 16.641 57.7123 16.641Z" fill="#00B050" fill-rule="evenodd" transform="matrix(1.00034 0 0 1 862.503 463.302)"/><text fill="#00B050" font-family="Cambria Math,Cambria Math_MSFontService,sans-serif" font-weight="400" font-size="14.6667" transform="matrix(1 0 0 0.999661 923.737 477)">𝑋</text><text fill="#00B050" font-family="Cambria Math,Cambria Math_MSFontService,sans-serif" font-weight="400" font-size="14.6667" transform="matrix(1 0 0 0.999661 863.083 564)">ℚ</text><text fill="#00B050" font-family="Cambria Math,Cambria Math_MSFontService,sans-serif" font-weight="400" font-size="14.6667" transform="matrix(1 0 0 0.999661 874.253 564)">,</text><text fill="#00B050" font-family="Cambria Math,Cambria Math_MSFontService,sans-serif" font-weight="400" font-size="14.6667" transform="matrix(1 0 0 0.999661 879.702 564)">ℝ</text><text fill="#00B050" font-family="Cambria Math,Cambria Math_MSFontService,sans-serif" font-weight="400" font-size="14.6667" transform="matrix(1 0 0 0.999661 890.706 564)">,</text><text fill="#00B050" font-family="Cambria Math,Cambria Math_MSFontService,sans-serif" font-weight="400" font-size="14.6667" transform="matrix(1 0 0 0.999661 896.154 564)">ℂ</text><text fill="#00B050" font-family="Cambria Math,Cambria Math_MSFontService,sans-serif" font-weight="400" font-size="14.6667" transform="matrix(1 0 0 0.999661 904.991 564)">,</text><text fill="#00B050" font-family="Cambria Math,Cambria Math_MSFontService,sans-serif" font-weight="400" font-size="14.6667" transform="matrix(1 0 0 0.999661 910.439 564)">ℤ</text><text fill="#00B050" font-family="Cambria Math,Cambria Math_MSFontService,sans-serif" font-weight="400" font-size="14.6667" transform="matrix(1 0 0 0.999661 919.275 564)">/</text><text fill="#00B050" font-family="Cambria Math,Cambria Math_MSFontService,sans-serif" font-weight="400" font-size="14.6667" transform="matrix(1 0 0 0.999661 926.444 564)">𝑝ℤ</text><text font-family="Yu Gothic,Yu Gothic_MSFontService,sans-serif" font-weight="400" font-size="14.6667" transform="matrix(1 0 0 0.999661 821.197 95)">可換性</text><text font-family="Yu Gothic,Yu Gothic_MSFontService,sans-serif" font-weight="400" font-size="14.6667" transform="matrix(1 0 0 0.999661 820.308 180)">約分法則</text><text font-family="Yu Gothic,Yu Gothic_MSFontService,sans-serif" font-weight="400" font-size="14.6667" transform="matrix(1 0 0 0.999661 821.197 267)">一意分解</text><text font-family="Yu Gothic,Yu Gothic_MSFontService,sans-serif" font-weight="400" font-size="14.6667" transform="matrix(1 0 0 0.999661 820.318 339)">すべてのイデアルは</text><text font-family="Yu Gothic,Yu Gothic_MSFontService,sans-serif" font-weight="400" font-size="14.6667" transform="matrix(1 0 0 0.999661 820.318 356)">主イデアル</text><text font-family="Yu Gothic,Yu Gothic_MSFontService,sans-serif" font-weight="400" font-size="14.6667" transform="matrix(1 0 0 0.999661 817.17 433)">ユークリッドの互除法</text><text font-family="Yu Gothic,Yu Gothic_MSFontService,sans-serif" font-weight="400" font-size="14.6667" transform="matrix(1 0 0 0.999661 820.53 520)">非</text><text font-family="Calibri,Calibri_MSFontService,sans-serif" font-weight="400" font-size="14.6667" transform="matrix(1 0 0 0.999661 835.202 520)">0</text><text font-family="Yu Gothic,Yu Gothic_MSFontService,sans-serif" font-weight="400" font-size="14.6667" transform="matrix(1 0 0 0.999661 842.704 520)">は逆元を持つ</text><path d="M376.5 547.314C376.5 532.96 393.513 521.323 414.5 521.323 435.487 521.323 452.5 532.96 452.5 547.314 452.5 561.669 435.487 573.305 414.5 573.305 393.513 573.305 376.5 561.669 376.5 547.314Z" stroke="#172C51" stroke-width="1.33379" stroke-miterlimit="8" stroke-dasharray="1.33379 1.33379" fill="none" fill-rule="evenodd"/><path d="M393.5 550.813C393.5 543.36 402.902 537.318 414.5 537.318 426.098 537.318 435.5 543.36 435.5 550.813 435.5 558.266 426.098 564.309 414.5 564.309 402.902 564.309 393.5 558.266 393.5 550.813Z" stroke="#172C51" stroke-width="1.33379" stroke-miterlimit="8" stroke-dasharray="1.33379 1.33379" fill="none" fill-rule="evenodd"/><rect x="402" y="528.821" width="23.9999" height="23.9919" fill="#FFFFFF"/><text font-family="Calibri,Calibri_MSFontService,sans-serif" font-style="italic" font-weight="400" font-size="14.6667" transform="matrix(1 0 0 0.999661 409.537 546)">A</text><rect x="402" y="506.828" width="23.9999" height="23.9919" fill="#FFFFFF"/><text font-family="Calibri,Calibri_MSFontService,sans-serif" font-style="italic" font-weight="400" font-size="14.6667" transform="matrix(1 0 0 0.999661 409.787 523)">B</text><text font-family="Yu Gothic,Yu Gothic_MSFontService,sans-serif" font-weight="400" font-size="14.6667" transform="matrix(1 0 0 0.999661 673.777 39)">加法</text><text font-family="Calibri,Calibri_MSFontService,sans-serif" font-weight="400" font-size="14.6667" transform="matrix(1 0 0 0.999661 703.121 39)">,</text><text font-family="Yu Gothic,Yu Gothic_MSFontService,sans-serif" font-weight="400" font-size="14.6667" transform="matrix(1 0 0 0.999661 710.123 39)">乗法</text><path d="M73.0007 66.9773 73.0008 109.564 68.9994 109.564 68.9994 66.9773ZM77.0021 107.564 71.0001 119.564 64.9981 107.564Z" fill="#00B050"/><path d="M2-3.99294e-06 2.00009 42.5862-1.99991 42.5863-2 3.99294e-06ZM6.00008 40.5862 0.000104987 52.5862-5.99992 40.5863Z" fill="#FF0000" transform="matrix(1.00034 0 0 -1 247 214.531)"/><path d="M2-3.99294e-06 2.00009 42.5862-1.99991 42.5863-2 3.99294e-06ZM6.00008 40.5862 0.000104987 52.5862-5.99992 40.5863Z" fill="#FF0000" transform="matrix(1.00034 0 0 -1 247 310.499)"/><path d="M2-3.53174e-06 2.00009 49.4533-1.99991 49.4533-2 3.53174e-06ZM6.00008 47.4533 0.000104987 59.4533-5.99992 47.4533Z" fill="#FF0000" transform="matrix(1.00034 0 0 -1 247 412.334)"/><path d="M597.001 135.954 597.001 168.624 592.999 168.624 592.999 135.954ZM601.002 166.623 595 178.624 588.998 166.624Z" fill="#00B050"/><path d="M597.001 221.925 597.001 254.594 592.999 254.594 592.999 221.925ZM601.002 252.594 595 264.594 588.998 252.594Z" fill="#00B050"/><path d="M597.001 306.896 597.001 339.565 592.999 339.565 592.999 306.896ZM601.002 337.565 595 349.565 588.998 337.565Z" fill="#00B050"/><path d="M597.001 392.867 597.001 425.536 592.999 425.536 592.999 392.867ZM601.002 423.536 595 435.536 588.998 423.536Z" fill="#00B050"/><path d="M813.001 66.9773 813.001 99.6469 808.999 99.6469 808.999 66.9773ZM817.002 97.6469 811 109.647 804.998 97.6469Z" fill="#00B050"/><path d="M813.001 151.938 813.171 184.608 809.17 184.629 808.999 151.959ZM817.162 182.587 811.222 194.618 805.158 182.649Z" fill="#00B050"/><path d="M813.001 237.919 813.001 270.589 808.999 270.589 808.999 237.919ZM817.002 268.589 811 280.589 804.998 268.589Z" fill="#00B050"/><path d="M813.001 322.891 813.001 355.56 808.999 355.56 808.999 322.891ZM817.002 353.56 811 365.56 804.998 353.56Z" fill="#00B050"/><path d="M813.001 408.861 813.001 441.531 808.999 441.531 808.999 408.861ZM817.002 439.531 811 451.531 804.998 439.531Z" fill="#00B050"/><path d="M813.001 493.832 813.001 526.502 808.999 526.502 808.999 493.832ZM817.002 524.502 811 536.502 804.998 524.502Z" fill="#00B050"/><text font-family="Yu Gothic,Yu Gothic_MSFontService,sans-serif" font-weight="400" font-size="14.6667" transform="matrix(1 0 0 0.999661 124.565 65)">可測集合族</text><path d="M249.001 66.9773 249.001 109.564 244.999 109.564 244.999 66.9773ZM253.002 107.564 247 119.564 240.998 107.564Z" fill="#0070C0"/><path d="M2.39989e-06-2 77.493-1.99991 77.493 2.00009-2.39989e-06 2ZM75.493-5.99991 87.493 0.000104987 75.493 6.00009Z" fill="#0070C0" transform="matrix(-1.00034 0 0 1 202.523 45.9844)"/></g></svg>