<svg width="340" height="96" xmlns="http://www.w3.org/2000/svg" xmlns:xlink="http://www.w3.org/1999/xlink" overflow="hidden"><defs><clipPath id="clip0"><rect x="0" y="0" width="340" height="96"/></clipPath></defs><g clip-path="url(#clip0)"><rect x="0" y="0" width="340" height="96.047" fill="#FFFFFF"/><text font-family="Yu Gothic,Yu Gothic_MSFontService,sans-serif" font-weight="700" font-size="14.6667" transform="matrix(1 0 0 1.00049 16.6081 55)">ベクトル空間＝組</text><text font-family="Calibri,Calibri_MSFontService,sans-serif" font-weight="700" font-size="14.6667" transform="matrix(1 0 0 1.00049 137.216 55)">(</text><text font-family="Yu Gothic,Yu Gothic_MSFontService,sans-serif" font-weight="700" font-size="14.6667" transform="matrix(1 0 0 1.00049 141.713 55)">集合</text><text font-family="Calibri,Calibri_MSFontService,sans-serif" font-weight="700" font-size="14.6667" transform="matrix(1 0 0 1.00049 171.032 55)">,</text><text font-family="Yu Gothic,Yu Gothic_MSFontService,sans-serif" font-weight="700" font-size="14.6667" transform="matrix(1 0 0 1.00049 178.196 55)">体</text><text font-family="Calibri,Calibri_MSFontService,sans-serif" font-weight="700" font-size="14.6667" transform="matrix(1 0 0 1.00049 192.855 55)">,</text><text font-family="Yu Gothic,Yu Gothic_MSFontService,sans-serif" font-weight="700" font-size="14.6667" transform="matrix(1 0 0 1.00049 200.018 55)">スカラー倍</text><text font-family="Calibri,Calibri_MSFontService,sans-serif" font-weight="700" font-size="14.6667" transform="matrix(1 0 0 1.00049 273.316 55)">,</text><text font-family="Yu Gothic,Yu Gothic_MSFontService,sans-serif" font-weight="700" font-size="14.6667" transform="matrix(1 0 0 1.00049 280.479 55)">加法</text><text font-family="Calibri,Calibri_MSFontService,sans-serif" font-weight="700" font-size="14.6667" transform="matrix(1 0 0 1.00049 309.798 55)">)</text><text font-family="Yu Gothic,Yu Gothic_MSFontService,sans-serif" font-weight="400" font-size="12" transform="matrix(1 0 0 1.00049 201.977 14)">ベクトル</text><text font-family="Yu Gothic,Yu Gothic_MSFontService,sans-serif" font-weight="400" font-size="12" transform="matrix(1 0 0 1.00049 201.977 28)">スカラー</text><path d="M200.5 26.1792 186.5 26.1792 187.166 25.5125 187.166 32.8527 185.834 32.8527 185.834 24.8459 200.5 24.8459ZM190.498 31.5194 186.5 39.5194 182.502 31.5194Z" fill="#172C51"/><path d="M200.5 11.1719 158.5 11.1719 159.166 10.5052 159.166 30.8518 157.834 30.8518 157.834 9.83853 200.5 9.83853ZM162.498 29.5184 158.5 37.5184 154.502 29.5184Z" fill="#172C51"/><path d="M308.5 60.5297C308.5 63.0162 307.013 65.0319 305.179 65.0319L258.321 65.0319C256.487 65.0319 255 67.0476 255 69.5341 255 67.0476 253.513 65.0319 251.679 65.0319L204.821 65.0319C202.987 65.0319 201.5 63.0162 201.5 60.5297" stroke="#000000" stroke-width="1.33333" stroke-miterlimit="8" fill="none" fill-rule="evenodd"/><text font-family="Yu Gothic,Yu Gothic_MSFontService,sans-serif" font-weight="400" font-size="12" transform="matrix(1 0 0 1.00049 242.567 83)">演算</text><path d="M144.5 61.5302 170.5 61.5302" stroke="#172C51" stroke-width="1.33268" stroke-miterlimit="8" fill="none" fill-rule="evenodd"/><path d="M0.66634 0 0.66634 7.33656-0.66634 7.33656-0.66634 0ZM3.99804 6.00388 0 14-3.99804 6.00388Z" fill="#172C51" transform="matrix(1 0 0 -1.00049 157.5 75.537)"/><text font-family="Yu Gothic,Yu Gothic_MSFontService,sans-serif" font-weight="400" font-size="12" transform="matrix(1 0 0 1.00049 150.824 89)">体</text></g></svg>