<svg width="340" height="132" xmlns="http://www.w3.org/2000/svg" xmlns:xlink="http://www.w3.org/1999/xlink" overflow="hidden"><defs><clipPath id="clip0"><rect x="0" y="0" width="340" height="132"/></clipPath></defs><g clip-path="url(#clip0)"><rect x="0" y="0" width="340" height="131.732" fill="#FFFFFF"/><rect x="239" y="10.9776" width="89" height="42.9127" stroke="#000000" stroke-width="1.99902" stroke-miterlimit="8" stroke-dasharray="1.99902 1.99902" fill="none"/><text font-family="Yu Gothic,Yu Gothic_MSFontService,sans-serif" font-weight="400" font-size="14.6297" transform="matrix(1 0 0 0.99797 261.899 29)">ノルム</text><text font-family="Yu Gothic,Yu Gothic_MSFontService,sans-serif" font-weight="400" font-size="14.6297" transform="matrix(1 0 0 0.99797 269.229 46)">空間</text><rect x="12" y="10.9776" width="89" height="42.9127" stroke="#000000" stroke-width="1.99902" stroke-miterlimit="8" stroke-dasharray="1.99902 1.99902" fill="none"/><text font-family="Yu Gothic,Yu Gothic_MSFontService,sans-serif" font-weight="400" font-size="14.6297" transform="matrix(1 0 0 0.99797 26.7926 37)">内積</text><text font-family="Yu Gothic,Yu Gothic_MSFontService,sans-serif" font-weight="400" font-size="14.6297" transform="matrix(1 0 0 0.99797 56.1116 37)">空間</text><path d="M101 29.94 229.575 29.9401 229.575 33.9301 101 33.93ZM227.575 25.9502 239.57 31.9351 227.575 37.92Z" fill="#FF0000"/><path d="M20.8549 6.124 21.9527 6.124 21.9527 19.3909 20.8549 19.3909ZM17.7538 6.124 18.8516 6.124 18.8516 19.3909 17.7538 19.3909ZM4.86192 6.124 5.95978 6.124 5.95978 19.3909 4.86192 19.3909ZM1.76084 6.124 2.8587 6.124 2.8587 19.3909 1.76084 19.3909Z" fill-rule="evenodd" transform="matrix(1.00203 0 0 1 124.633 35.6506)"/><text font-family="Cambria Math,Cambria Math_MSFontService,sans-serif" font-weight="400" font-size="14.6297" transform="matrix(1 0 0 0.99797 132.383 53)">𝑥</text><text font-family="Cambria Math,Cambria Math_MSFontService,sans-serif" font-weight="400" font-size="14.6297" transform="matrix(1 0 0 0.99797 152.48 53)">=</text><path d="M52.2068 2.73795 54.2029 2.73795 54.2029 2.99391 70.3569 2.99391 86.8234 2.99391 86.8234 3.99188 70.3569 3.99188 53.8904 3.99188 53.8904 3.68609 52.7772 3.68609 48.1434 20.8668 47.4519 20.8668 44.5005 14.522 43.2957 15.0567 43.0747 14.522 45.413 13.4527 47.8796 18.9562Z" fill-rule="evenodd" transform="matrix(1.00203 0 0 1 124.633 35.6506)"/><path d="M82.4208 6.08836 85.2653 12.4901 85.2653 13.0177 82.4208 19.4266 81.658 19.1557 83.9464 12.7539 81.658 6.345ZM57.4266 6.08836 58.1823 6.35926 55.8939 12.761 58.1823 19.1699 57.4266 19.4266 54.5822 13.0248 54.5822 12.4973Z" fill-rule="evenodd" transform="matrix(1.00203 0 0 1 124.633 35.6506)"/><text font-family="Cambria Math,Cambria Math_MSFontService,sans-serif" font-weight="400" font-size="14.6297" transform="matrix(1 0 0 0.99797 183.705 53)">𝑥</text><text font-family="Cambria Math,Cambria Math_MSFontService,sans-serif" font-weight="400" font-size="14.6297" transform="matrix(1 0 0 0.99797 191.98 53)">,</text><text font-family="Cambria Math,Cambria Math_MSFontService,sans-serif" font-weight="400" font-size="14.6297" transform="matrix(1 0 0 0.99797 197.424 53)">𝑥</text><rect x="239" y="70.8559" width="89" height="41.9147" stroke="#000000" stroke-width="1.99902" stroke-miterlimit="8" stroke-dasharray="1.99902 1.99902" fill="none"/><text font-family="Yu Gothic,Yu Gothic_MSFontService,sans-serif" font-weight="400" font-size="14.6297" transform="matrix(1 0 0 0.99797 254.57 88)">バナッハ</text><text font-family="Yu Gothic,Yu Gothic_MSFontService,sans-serif" font-weight="400" font-size="14.6297" transform="matrix(1 0 0 0.99797 269.229 105)">空間</text><rect x="12" y="70.8559" width="89" height="41.9147" stroke="#000000" stroke-width="1.99902" stroke-miterlimit="8" stroke-dasharray="1.99902 1.99902" fill="none"/><text font-family="Yu Gothic,Yu Gothic_MSFontService,sans-serif" font-weight="400" font-size="14.6297" transform="matrix(1 0 0 0.99797 19.4631 88)">ヒルベルト</text><text font-family="Yu Gothic,Yu Gothic_MSFontService,sans-serif" font-weight="400" font-size="14.6297" transform="matrix(1 0 0 0.99797 41.4523 105)">空間</text><path d="M101 89.8183 229.575 89.8184 229.575 93.8083 101 93.8083ZM227.575 85.8285 239.57 91.8134 227.575 97.7983Z" fill="#FF0000"/><path d="M20.8549 6.124 21.9527 6.124 21.9527 19.3909 20.8549 19.3909ZM17.7538 6.124 18.8516 6.124 18.8516 19.3909 17.7538 19.3909ZM4.86192 6.124 5.95978 6.124 5.95978 19.3909 4.86192 19.3909ZM1.76084 6.124 2.8587 6.124 2.8587 19.3909 1.76084 19.3909Z" fill-rule="evenodd" transform="matrix(1.00203 0 0 1 124.633 96.511)"/><text font-family="Cambria Math,Cambria Math_MSFontService,sans-serif" font-weight="400" font-size="14.6297" transform="matrix(1 0 0 0.99797 132.383 113)">𝑥</text><text font-family="Cambria Math,Cambria Math_MSFontService,sans-serif" font-weight="400" font-size="14.6297" transform="matrix(1 0 0 0.99797 152.48 113)">=</text><path d="M52.2068 2.73795 54.2029 2.73795 54.2029 2.99391 70.3569 2.99391 86.8234 2.99391 86.8234 3.99188 70.3569 3.99188 53.8904 3.99188 53.8904 3.68609 52.7772 3.68609 48.1434 20.8668 47.4519 20.8668 44.5005 14.522 43.2957 15.0567 43.0747 14.522 45.413 13.4527 47.8796 18.9562Z" fill-rule="evenodd" transform="matrix(1.00203 0 0 1 124.633 96.511)"/><path d="M82.4208 6.08836 85.2653 12.4901 85.2653 13.0177 82.4208 19.4266 81.658 19.1557 83.9464 12.7539 81.658 6.345ZM57.4266 6.08836 58.1823 6.35926 55.8939 12.761 58.1823 19.1699 57.4266 19.4266 54.5822 13.0248 54.5822 12.4973Z" fill-rule="evenodd" transform="matrix(1.00203 0 0 1 124.633 96.511)"/><text font-family="Cambria Math,Cambria Math_MSFontService,sans-serif" font-weight="400" font-size="14.6297" transform="matrix(1 0 0 0.99797 183.705 113)">𝑥</text><text font-family="Cambria Math,Cambria Math_MSFontService,sans-serif" font-weight="400" font-size="14.6297" transform="matrix(1 0 0 0.99797 191.98 113)">,</text><text font-family="Cambria Math,Cambria Math_MSFontService,sans-serif" font-weight="400" font-size="14.6297" transform="matrix(1 0 0 0.99797 197.424 113)">𝑥</text></g></svg>