<svg width="756" height="98" xmlns="http://www.w3.org/2000/svg" xmlns:xlink="http://www.w3.org/1999/xlink" overflow="hidden"><g><rect x="0" y="0" width="756" height="97.6462" fill="#FFFFFF"/><rect x="16" y="13.9495" width="90" height="42.8447" stroke="#000000" stroke-width="2.00044" stroke-miterlimit="8" stroke-dasharray="2.00044 2.00044" fill="none"/><text font-family="Yu Gothic,Yu Gothic_MSFontService,sans-serif" font-weight="400" font-size="14.6169" transform="matrix(1 0 0 0.99639 38.9768 40)">マグマ</text><rect x="174" y="13.9495" width="90" height="42.8447" stroke="#000000" stroke-width="2.00044" stroke-miterlimit="8" stroke-dasharray="2.00044 2.00044" fill="none"/><text font-family="Yu Gothic,Yu Gothic_MSFontService,sans-serif" font-weight="400" font-size="14.6169" transform="matrix(1 0 0 0.99639 204.315 40)">半群</text><rect x="332" y="13.9495" width="90" height="42.8447" stroke="#000000" stroke-width="2.00044" stroke-miterlimit="8" stroke-dasharray="2.00044 2.00044" fill="none"/><text font-family="Yu Gothic,Yu Gothic_MSFontService,sans-serif" font-weight="400" font-size="14.6169" transform="matrix(1 0 0 0.99639 347.649 40)">モノイド</text><rect x="490" y="13.9495" width="90" height="42.8447" stroke="#000000" stroke-width="2.00044" stroke-miterlimit="8" stroke-dasharray="2.00044 2.00044" fill="none"/><text font-family="Yu Gothic,Yu Gothic_MSFontService,sans-serif" font-weight="400" font-size="14.6169" transform="matrix(1 0 0 0.99639 527.658 40)">群</text><rect x="648" y="13.9495" width="90" height="42.8447" stroke="#000000" stroke-width="2.00044" stroke-miterlimit="8" stroke-dasharray="2.00044 2.00044" fill="none"/><text font-family="Yu Gothic,Yu Gothic_MSFontService,sans-serif" font-weight="400" font-size="14.6169" transform="matrix(1 0 0 0.99639 656.322 31)">アーベル群</text><text font-family="Calibri,Calibri_MSFontService,sans-serif" font-weight="400" font-size="14.6169" transform="matrix(1 0 0 0.99639 666.491 48)">(</text><text font-family="Yu Gothic,Yu Gothic_MSFontService,sans-serif" font-weight="400" font-size="14.6169" transform="matrix(1 0 0 0.99639 670.992 48)">可換群</text><text font-family="Calibri,Calibri_MSFontService,sans-serif" font-weight="400" font-size="14.6169" transform="matrix(1 0 0 0.99639 715.002 48)">)</text><path d="M34.2899 3.09437 37.1274 9.48043 37.1274 10.0067 34.2899 16.3998 33.529 16.1296 35.8118 9.74355 33.529 3.35038ZM6.05181 3.09437 6.80562 3.36461 4.52285 9.75066 6.80562 16.1438 6.05181 16.3998 3.21435 10.0138 3.21435 9.48754Z" fill="#00B050" fill-rule="evenodd" transform="matrix(1.00362 0 0 1 42.0155 61.0065)"/><text fill="#00B050" font-family="Cambria Math,Cambria Math_MSFontService,sans-serif" font-weight="400" font-size="14.6169" transform="matrix(1 0 0 0.99639 49.6238 75)">ℤ</text><text fill="#00B050" font-family="Cambria Math,Cambria Math_MSFontService,sans-serif" font-weight="400" font-size="14.6169" transform="matrix(1 0 0 0.99639 58.4591 75)">,</text><text fill="#00B050" font-family="Cambria Math,Cambria Math_MSFontService,sans-serif" font-weight="400" font-size="14.6169" transform="matrix(1 0 0 0.99639 63.907 75)">−</text><path d="M35.9509 3.09437 38.7884 9.48043 38.7884 10.0067 35.9509 16.3998 35.19 16.1296 37.4728 9.74355 35.19 3.35038ZM6.05181 3.09437 6.80562 3.36461 4.52285 9.75066 6.80562 16.1438 6.05181 16.3998 3.21435 10.0138 3.21435 9.48754Z" fill="#00B050" fill-rule="evenodd" transform="matrix(1.00362 0 0 1 197.854 61.0065)"/><text fill="#00B050" font-family="Cambria Math,Cambria Math_MSFontService,sans-serif" font-weight="400" font-size="14.6169" transform="matrix(1 0 0 0.99639 205.462 75)">ℕ</text><text fill="#00B050" font-family="Cambria Math,Cambria Math_MSFontService,sans-serif" font-weight="400" font-size="14.6169" transform="matrix(1 0 0 0.99639 215.964 75)">,</text><text fill="#00B050" font-family="Cambria Math,Cambria Math_MSFontService,sans-serif" font-weight="400" font-size="14.6169" transform="matrix(1 0 0 0.99639 221.412 75)">+</text><path d="M31.3267 3.09437 34.1641 9.48043 34.1641 10.0067 31.3267 16.3998 30.5657 16.1296 32.8485 9.74355 30.5657 3.35038ZM6.02523 3.09437 6.77904 3.36461 4.49628 9.75066 6.77904 16.1438 6.02523 16.3998 3.18778 10.0138 3.18778 9.48754Z" fill="#00B050" fill-rule="evenodd" transform="matrix(1.00362 0 0 1 358.187 61.0065)"/><text fill="#00B050" font-family="Cambria Math,Cambria Math_MSFontService,sans-serif" font-weight="400" font-size="14.6169" transform="matrix(1 0 0 0.99639 365.769 75)">ℤ</text><text fill="#00B050" font-family="Cambria Math,Cambria Math_MSFontService,sans-serif" font-weight="400" font-size="14.6169" transform="matrix(1 0 0 0.99639 374.604 75)">,</text><text fill="#00B050" font-family="Cambria Math,Cambria Math_MSFontService,sans-serif" font-weight="400" font-size="14.6169" transform="matrix(1 0 0 0.99639 377.605 75)">×</text><text fill="#00B050" font-family="Cambria Math,Cambria Math_MSFontService,sans-serif" font-weight="400" font-size="14.6169" transform="matrix(1 0 0 0.99639 515.795 75)">𝐺𝐿</text><text fill="#00B050" font-family="Cambria Math,Cambria Math_MSFontService,sans-serif" font-weight="400" font-size="10.6704" transform="matrix(1 0 0 0.99639 532.799 78)">𝑛</text><path d="M44.1204 2.99727C45.5048 3.36232 46.5679 4.15051 47.3099 5.36182 48.0518 6.57313 48.4228 8.03453 48.4228 9.74601 48.4228 11.4622 48.053 12.9236 47.3134 14.1302 46.5739 15.3368 45.5095 16.1226 44.1204 16.4876L43.9497 15.9401C45.0449 15.575 45.8592 14.8544 46.3925 13.7782 46.9259 12.702 47.1925 11.3342 47.1925 9.67489 47.1925 8.07245 46.9271 6.74143 46.3961 5.68183 45.8651 4.62223 45.0425 3.9099 43.9284 3.54485ZM32.2119 2.99727 32.4039 3.54485C31.2945 3.9099 30.4731 4.62223 29.9398 5.68183 29.4064 6.74143 29.1398 8.07245 29.1398 9.67489 29.1398 11.3342 29.4064 12.702 29.9398 13.7782 30.4731 14.8544 31.2874 15.575 32.3826 15.9401L32.2119 16.4876C30.8228 16.1226 29.7584 15.3368 29.0189 14.1302 28.2793 12.9236 27.9095 11.4622 27.9095 9.74601 27.9095 8.03453 28.2805 6.57313 29.0224 5.36182 29.7644 4.15051 30.8275 3.36232 32.2119 2.99727Z" fill="#00B050" fill-rule="evenodd" transform="matrix(1.00362 0 0 1 513.861 61.0065)"/><text fill="#00B050" font-family="Cambria Math,Cambria Math_MSFontService,sans-serif" font-weight="400" font-size="14.6169" transform="matrix(1 0 0 0.99639 546.675 75)">ℝ</text><path d="M34.2899 3.09437 37.1274 9.48043 37.1274 10.0067 34.2899 16.3998 33.529 16.1296 35.8118 9.74355 33.529 3.35038ZM6.05181 3.09437 6.80562 3.36461 4.52285 9.75066 6.80562 16.1438 6.05181 16.3998 3.21435 10.0138 3.21435 9.48754Z" fill="#00B050" fill-rule="evenodd" transform="matrix(1.00362 0 0 1 671.865 61.0065)"/><text fill="#00B050" font-family="Cambria Math,Cambria Math_MSFontService,sans-serif" font-weight="400" font-size="14.6169" transform="matrix(1 0 0 0.99639 679.473 75)">ℤ</text><text fill="#00B050" font-family="Cambria Math,Cambria Math_MSFontService,sans-serif" font-weight="400" font-size="14.6169" transform="matrix(1 0 0 0.99639 688.308 75)">,</text><text fill="#00B050" font-family="Cambria Math,Cambria Math_MSFontService,sans-serif" font-weight="400" font-size="14.6169" transform="matrix(1 0 0 0.99639 693.756 75)">+</text><text font-family="Yu Gothic,Yu Gothic_MSFontService,sans-serif" font-weight="400" font-size="14.6169" transform="matrix(1 0 0 0.99639 115.796 25)">結合性</text><text font-family="Yu Gothic,Yu Gothic_MSFontService,sans-serif" font-weight="400" font-size="14.6169" transform="matrix(1 0 0 0.99639 272.226 25)">単位元</text><text font-family="Yu Gothic,Yu Gothic_MSFontService,sans-serif" font-weight="400" font-size="14.6169" transform="matrix(1 0 0 0.99639 439.3 25)">逆元</text><text font-family="Yu Gothic,Yu Gothic_MSFontService,sans-serif" font-weight="400" font-size="14.6169" transform="matrix(1 0 0 0.99639 589.99 25)">可換性</text><path d="M106 32.8805 164.731 32.8806 164.731 36.867 106 36.8669ZM162.73 28.8941 174.733 34.8738 162.73 40.8535Z" fill="#00B050"/><path d="M264.006 32.8805 322.737 33.0628 322.725 37.0492 263.994 36.8669ZM320.749 29.0702 332.733 35.0871 320.712 41.0294Z" fill="#00B050"/><path d="M0.00620921-1.99321 58.525-1.81091 58.5126 2.17551-0.00620921 1.99321ZM56.5442-5.80354 68.4849 0.213343 56.507 6.15572Z" fill="#00B050" transform="matrix(1.00362 0 0 -1 422 35.0871)"/><path d="M580 32.8805 638.731 32.8806 638.731 36.867 580 36.8669ZM636.73 28.8941 648.733 34.8738 636.73 40.8535Z" fill="#00B050"/></g></svg>