<svg width="340" height="96" xmlns="http://www.w3.org/2000/svg" xmlns:xlink="http://www.w3.org/1999/xlink" overflow="hidden"><defs><clipPath id="clip0"><rect x="0" y="0" width="340" height="96"/></clipPath></defs><g clip-path="url(#clip0)"><rect x="0" y="0" width="340" height="96.047" fill="#FFFFFF"/><rect x="239" y="15.0073" width="89" height="42.0206" stroke="#000000" stroke-width="1.99902" stroke-miterlimit="8" stroke-dasharray="1.99902 1.99902" fill="none"/><text font-family="Yu Gothic,Yu Gothic_MSFontService,sans-serif" font-weight="400" font-size="14.6667" transform="matrix(1 0 0 1.00049 254.569 41)">位相</text><text font-family="Yu Gothic,Yu Gothic_MSFontService,sans-serif" font-weight="400" font-size="14.6667" transform="matrix(1 0 0 1.00049 283.888 41)">空間</text><rect x="12" y="15.0073" width="89" height="42.0206" stroke="#000000" stroke-width="1.99902" stroke-miterlimit="8" stroke-dasharray="1.99902 1.99902" fill="none"/><text font-family="Yu Gothic,Yu Gothic_MSFontService,sans-serif" font-weight="400" font-size="14.6667" transform="matrix(1 0 0 1.00049 26.7924 41)">距離空間</text><path d="M101 34.0176 229.575 34.0177 229.575 38.0177 101 38.0176ZM227.575 30.0177 239.57 36.0177 227.575 42.0177Z" fill="#FF0000"/><text font-family="Cambria Math,Cambria Math_MSFontService,sans-serif" font-weight="400" font-size="14.6667" transform="matrix(1 0 0 1.00049 122.25 59)">𝒯</text><text font-family="Cambria Math,Cambria Math_MSFontService,sans-serif" font-weight="400" font-size="14.6667" transform="matrix(1 0 0 1.00049 136.723 59)">=</text><path d="M92.4646 2.98971 92.6508 2.98971C93.7727 3.00881 94.6118 3.26543 95.168 3.75957 95.7242 4.25371 96.0023 4.99731 96.0023 5.99036 96.0023 6.38663 95.9462 6.8378 95.834 7.34388 95.7218 7.84996 95.6657 8.18893 95.6657 8.36081 95.6657 8.69023 95.7791 8.95879 96.0059 9.16647 96.2327 9.37415 96.5752 9.48516 97.0336 9.49948L97.0336 10.0867C96.5752 10.101 96.2327 10.212 96.0059 10.4197 95.7791 10.6274 95.6657 10.896 95.6657 11.2254 95.6657 11.3973 95.7218 11.7362 95.834 12.2423 95.9462 12.7484 96.0023 13.1996 96.0023 13.5958 96.0023 14.6223 95.7242 15.3826 95.168 15.8768 94.6118 16.3709 93.7727 16.6275 92.6508 16.6466L92.4646 16.6466 92.4646 16.1023 92.572 16.1023C93.2643 16.1023 93.8062 15.9221 94.1976 15.5617 94.5891 15.2012 94.7849 14.5889 94.7849 13.7247 94.7849 13.3905 94.7371 12.9776 94.6417 12.4858 94.5462 11.9941 94.4984 11.6431 94.4984 11.4331 94.4984 11.0273 94.6178 10.6942 94.8565 10.434 95.0952 10.1739 95.3793 9.98168 95.7087 9.85755L95.7087 9.72865C95.3793 9.60451 95.0952 9.41235 94.8565 9.15215 94.6178 8.89195 94.4984 8.55894 94.4984 8.15312 94.4984 7.94306 94.5462 7.59214 94.6417 7.10039 94.7371 6.60864 94.7849 6.19566 94.7849 5.86146 94.7849 5.03073 94.5891 4.43514 94.1976 4.07467 93.8062 3.71421 93.2643 3.53398 92.572 3.53398L92.4646 3.53398ZM36.8342 2.98971 37.0204 2.98971 37.0204 3.53398 36.913 3.53398C36.2207 3.53398 35.6789 3.71421 35.2874 4.07467 34.8959 4.43514 34.7001 5.02834 34.7001 5.8543 34.7001 6.1885 34.7479 6.60148 34.8434 7.09323 34.9388 7.58498 34.9866 7.93589 34.9866 8.14596 34.9866 8.55178 34.8672 8.88479 34.6285 9.14499 34.3898 9.40519 34.1057 9.59735 33.7763 9.72149L33.7763 9.85039C34.1057 9.97452 34.3898 10.1667 34.6285 10.4269 34.8672 10.6871 34.9866 11.0201 34.9866 11.4259 34.9866 11.636 34.9388 11.9869 34.8434 12.4786 34.7479 12.9704 34.7001 13.3834 34.7001 13.7176 34.7001 14.5865 34.8959 15.2012 35.2874 15.5617 35.6789 15.9221 36.2207 16.1023 36.913 16.1023L37.0204 16.1023 37.0204 16.6466 36.8342 16.6466C35.7123 16.6275 34.8732 16.3709 34.317 15.8768 33.7608 15.3826 33.4827 14.6199 33.4827 13.5887 33.4827 13.1924 33.5388 12.7412 33.651 12.2352 33.7632 11.7291 33.8193 11.3901 33.8193 11.2182 33.8193 10.8888 33.7059 10.6202 33.4791 10.4126 33.2523 10.2049 32.9098 10.0939 32.4514 10.0796L32.4514 9.49232C32.9098 9.47799 33.2523 9.36699 33.4791 9.15931 33.7059 8.95163 33.8193 8.68307 33.8193 8.35365 33.8193 8.18177 33.7632 7.8428 33.651 7.33672 33.5388 6.83064 33.4827 6.37947 33.4827 5.9832 33.4827 4.99492 33.7608 4.25371 34.317 3.75957 34.8732 3.26543 35.7123 3.00881 36.8342 2.98971Z" fill-rule="evenodd" transform="matrix(1 0 0 1.00049 120.018 45.1143)"/><text font-family="Cambria Math,Cambria Math_MSFontService,sans-serif" font-weight="400" font-size="14.6667" transform="matrix(1 0 0 1.00049 157.466 59)">⋃</text><text font-family="Cambria Math,Cambria Math_MSFontService,sans-serif" font-weight="400" font-size="14.6667" transform="matrix(1 0 0 1.00049 168.794 59)">𝐵</text><path d="M86.4167 3.01836C87.8108 3.38598 88.8814 4.17971 89.6286 5.39954 90.3758 6.61938 90.7494 8.09106 90.7494 9.81458 90.7494 11.5429 90.377 13.0146 89.6322 14.2296 88.8874 15.4447 87.8156 16.236 86.4167 16.6036L86.2448 16.0522C87.3477 15.6846 88.1677 14.9589 88.7048 13.8751 89.2419 12.7914 89.5104 11.414 89.5104 9.74297 89.5104 8.12925 89.2431 6.78887 88.7084 5.72181 88.1736 4.65475 87.3453 3.93741 86.2233 3.56979ZM64.4529 3.01836 64.6463 3.56979C63.5291 3.93741 62.7019 4.65475 62.1648 5.72181 61.6277 6.78887 61.3592 8.12925 61.3592 9.74297 61.3592 11.414 61.6277 12.7914 62.1648 13.8751 62.7019 14.9589 63.5219 15.6846 64.6248 16.0522L64.4529 16.6036C63.054 16.236 61.9822 15.4447 61.2374 14.2296 60.4926 13.0146 60.1202 11.5429 60.1202 9.81458 60.1202 8.09106 60.4938 6.61938 61.241 5.39954 61.9882 4.17971 63.0588 3.38598 64.4529 3.01836Z" fill-rule="evenodd" transform="matrix(1 0 0 1.00049 120.018 45.1143)"/><text font-family="Cambria Math,Cambria Math_MSFontService,sans-serif" font-weight="400" font-size="14.6667" transform="matrix(1 0 0 1.00049 184.933 59)">𝑥</text><text font-family="Cambria Math,Cambria Math_MSFontService,sans-serif" font-weight="400" font-size="14.6667" transform="matrix(1 0 0 1.00049 193.209 59)">,</text><text font-family="Cambria Math,Cambria Math_MSFontService,sans-serif" font-weight="400" font-size="14.6667" transform="matrix(1 0 0 1.00049 198.653 59)">𝑟</text></g></svg>