<svg width="321" height="227" xmlns="http://www.w3.org/2000/svg" xmlns:xlink="http://www.w3.org/1999/xlink" overflow="hidden"><defs><clipPath id="clip0"><rect x="0" y="0" width="321" height="227"/></clipPath></defs><g clip-path="url(#clip0)"><rect x="0" y="0" width="321" height="227.403" fill="#FFFFFF"/><path d="M17 113.701C17 57.545 79.904 12.0213 157.5 12.0213 235.096 12.0213 298 57.545 298 113.701 298 169.858 235.096 215.381 157.5 215.381 79.904 215.381 17 169.858 17 113.701Z" fill="#F2F2F2" fill-rule="evenodd"/><path d="M183.5 72.6287 103.5 112.7" stroke="#172C51" stroke-width="1.33195" stroke-miterlimit="8" fill="none" fill-rule="evenodd"/><text font-family="Cambria Math,Cambria Math_MSFontService,sans-serif" font-weight="400" font-size="32.0235" transform="matrix(1 0 0 1.00177 190.755 83)">ğ‘¥</text><text font-family="Cambria Math,Cambria Math_MSFontService,sans-serif" font-weight="400" font-size="32.0235" transform="matrix(1 0 0 1.00177 70.1876 124)">ğ‘¦</text><path d="M161.724 39.8197 213.04 138.604" stroke="#A6A6A6" stroke-width="1.33381" stroke-miterlimit="8" fill="none" fill-rule="evenodd"/><path d="M133.211 52.9134 184.527 151.698" stroke="#A6A6A6" stroke-width="1.33381" stroke-miterlimit="8" fill="none" fill-rule="evenodd"/><path d="M108.4 65.8477 159.716 164.633" stroke="#A6A6A6" stroke-width="1.33381" stroke-miterlimit="8" fill="none" fill-rule="evenodd"/><path d="M82.41 78.8327 133.726 177.618" stroke="#A6A6A6" stroke-width="1.33381" stroke-miterlimit="8" fill="none" fill-rule="evenodd"/><path d="M68.5 115.204C68.5 98.8827 82.3792 85.6516 99.5 85.6516 116.621 85.6516 130.5 98.8827 130.5 115.204 130.5 131.525 116.621 144.756 99.5 144.756 82.3792 144.756 68.5 131.525 68.5 115.204Z" stroke="#172C51" stroke-width="1.33195" stroke-miterlimit="8" stroke-dasharray="5.3278 3.99585" fill="none" fill-rule="evenodd"/><path d="M149.5 76.1348C149.5 59.2603 162.931 45.5808 179.5 45.5808 196.069 45.5808 209.5 59.2603 209.5 76.1348 209.5 93.0094 196.069 106.689 179.5 106.689 162.931 106.689 149.5 93.0094 149.5 76.1348Z" stroke="#172C51" stroke-width="1.33195" stroke-miterlimit="8" stroke-dasharray="5.3278 3.99585" fill="none" fill-rule="evenodd"/><path d="M130.388 166.614 205.023 129.716 205.613 130.912 130.978 167.81ZM139.866 168.523 129.497 167.798 135.23 159.114C135.433 158.806 135.846 158.722 136.153 158.925 136.46 159.128 136.544 159.542 136.341 159.85L131.238 167.581 130.729 166.547 139.958 167.192C140.325 167.218 140.602 167.536 140.576 167.904 140.551 168.271 140.233 168.549 139.866 168.523ZM196.134 129.004 206.503 129.728 200.77 138.413C200.567 138.721 200.154 138.805 199.847 138.602 199.54 138.398 199.456 137.984 199.659 137.677L204.762 129.946 205.271 130.98 196.042 130.335C195.675 130.309 195.398 129.991 195.424 129.623 195.449 129.255 195.767 128.978 196.134 129.004Z" fill="#172C51"/><text font-family="Cambria Math,Cambria Math_MSFontService,sans-serif" font-weight="400" font-size="32.0235" transform="matrix(0.890826 -0.455958 0.45354 0.892406 154.118 194)">ğ‘Ÿ</text><text font-family="Cambria Math,Cambria Math_MSFontService,sans-serif" font-weight="400" font-size="32.0235" transform="matrix(0.890826 -0.455958 0.45354 0.892406 176.146 182)">&gt;</text><text font-family="Cambria Math,Cambria Math_MSFontService,sans-serif" font-weight="400" font-size="32.0235" transform="matrix(0.890826 -0.455958 0.45354 0.892406 205.412 167)">0</text><path d="M171.5 75.133C171.5 69.877 175.529 65.6162 180.5 65.6162 185.471 65.6162 189.5 69.877 189.5 75.133 189.5 80.389 185.471 84.6499 180.5 84.6499 175.529 84.6499 171.5 80.389 171.5 75.133Z" stroke="#172C51" stroke-width="1.33195" stroke-miterlimit="8" fill-rule="evenodd"/><path d="M91.5001 115.204C91.5001 109.948 95.7533 105.687 101 105.687 106.247 105.687 110.5 109.948 110.5 115.204 110.5 120.46 106.247 124.721 101 124.721 95.7533 124.721 91.5001 120.46 91.5001 115.204Z" stroke="#172C51" stroke-width="1.33195" stroke-miterlimit="8" fill-rule="evenodd"/><path d="M83.3816 78.4536 109.023 65.6102 109.618 66.8036 83.9773 79.647ZM92.8694 80.3128 82.4973 79.6424 88.1852 70.9278C88.3865 70.6194 88.7992 70.5328 89.1071 70.7345 89.4149 70.9361 89.5013 71.3496 89.3 71.658L84.2369 79.4154 83.7223 78.3845 92.9552 78.9812C93.3222 79.0049 93.6006 79.3222 93.5769 79.6899 93.5532 80.0576 93.2365 80.3365 92.8694 80.3128ZM100.131 64.9445 110.503 65.6148 104.815 74.3294C104.614 74.6378 104.201 74.7244 103.893 74.5227 103.585 74.3211 103.499 73.9076 103.7 73.5992L108.763 65.8418 109.278 66.8727 100.045 66.276C99.6778 66.2523 99.3994 65.935 99.4231 65.5673 99.4468 65.1996 99.7635 64.9207 100.131 64.9445Z" fill="#172C51"/><path d="M135.416 52.4335 161.024 40.523 161.584 41.7332 135.976 53.6438ZM144.846 54.5674 134.497 53.5962 140.435 45.0503C140.645 44.7479 141.06 44.6734 141.362 44.8839 141.664 45.0944 141.738 45.5102 141.528 45.8126L136.243 53.4198 135.758 52.3744 144.97 53.2389C145.336 53.2732 145.605 53.5985 145.571 53.9653 145.536 54.3322 145.212 54.6017 144.846 54.5674ZM152.154 39.5994 162.503 40.5705 156.565 49.1164C156.355 49.4188 155.94 49.4934 155.638 49.2829 155.336 49.0724 155.262 48.6566 155.472 48.3542L160.757 40.747 161.242 41.7924 152.03 40.9279C151.664 40.8936 151.395 40.5683 151.429 40.2014 151.464 39.8346 151.788 39.5651 152.154 39.5994Z" fill="#172C51"/><text font-family="Cambria Math,Cambria Math_MSFontService,sans-serif" font-weight="400" font-size="32.0235" transform="matrix(0.890826 -0.455958 0.45354 0.892406 87.0375 67)">ğœ€</text><text font-family="Cambria Math,Cambria Math_MSFontService,sans-serif" font-weight="400" font-size="32.0235" transform="matrix(0.890826 -0.455958 0.45354 0.892406 137.352 40)">ğœ€</text><text font-family="Cambria Math,Cambria Math_MSFontService,sans-serif" font-weight="400" font-size="24.0176" transform="matrix(1 0 0 1.00177 30.2229 182)">ğ‘</text><path d="M66.5739 5.03677C68.8569 5.63877 70.6101 6.93856 71.8336 8.93612 73.0572 10.9337 73.669 13.3436 73.669 16.166 73.669 18.9962 73.0592 21.4062 71.8395 23.396 70.6199 25.3857 68.8647 26.6816 66.5739 27.2836L66.2925 26.3806C68.0985 25.7786 69.4413 24.5902 70.3208 22.8154 71.2004 21.0407 71.6401 18.7851 71.6401 16.0488 71.6401 13.4062 71.2023 11.2112 70.3267 9.46385 69.451 7.71647 68.0946 6.54178 66.2573 5.93978ZM30.4306 5.03677 30.7472 5.93978C28.9178 6.54178 27.5633 7.71647 26.6837 9.46385 25.8042 11.2112 25.3644 13.4062 25.3644 16.0488 25.3644 18.7851 25.8042 21.0407 26.6837 22.8154 27.5633 24.5902 28.906 25.7786 30.7121 26.3806L30.4306 27.2836C28.1399 26.6816 26.3847 25.3857 25.165 23.396 23.9454 21.4062 23.3355 18.9962 23.3355 16.166 23.3355 13.3436 23.9473 10.9337 25.1709 8.93612 26.3944 6.93856 28.1477 5.63877 30.4306 5.03677Z" fill-rule="evenodd" transform="matrix(1 0 0 1.00177 27.0662 159.395)"/><text font-family="Cambria Math,Cambria Math_MSFontService,sans-serif" font-weight="400" font-size="24.0176" transform="matrix(1 0 0 1.00177 58.2405 182)">ğ‘¦</text><text font-family="Cambria Math,Cambria Math_MSFontService,sans-serif" font-weight="400" font-size="24.0176" transform="matrix(1 0 0 1.00177 72.1394 182)">,</text><text font-family="Cambria Math,Cambria Math_MSFontService,sans-serif" font-weight="400" font-size="24.0176" transform="matrix(1 0 0 1.00177 81.13 182)">ğœ€</text><path d="M77.926 160.446 87.2574 144.555 88.4055 145.231 79.074 161.123ZM79.4356 148.844 88.5016 143.752 88.4636 154.164C88.4623 154.532 88.163 154.83 87.7952 154.829 87.4274 154.827 87.1304 154.528 87.1317 154.159L87.1655 144.891 88.1571 145.475 80.087 150.008C79.7662 150.188 79.3603 150.074 79.1804 149.752 79.0005 149.431 79.1148 149.024 79.4356 148.844Z" fill="#172C51"/><text font-family="Cambria Math,Cambria Math_MSFontService,sans-serif" font-weight="400" font-size="24.0176" transform="matrix(1 0 0 1.00177 225.285 111)">ğ‘</text><path d="M66.3941 5.03677C68.677 5.63877 70.4303 6.93856 71.6538 8.93612 72.8774 10.9337 73.4892 13.3436 73.4892 16.166 73.4892 18.9962 72.8793 21.4062 71.6597 23.396 70.4401 25.3857 68.6849 26.6816 66.3941 27.2836L66.1127 26.3806C67.9187 25.7786 69.2615 24.5902 70.141 22.8154 71.0206 21.0407 71.4603 18.7851 71.4603 16.0488 71.4603 13.4062 71.0225 11.2112 70.1469 9.46385 69.2712 7.71647 67.9148 6.54178 66.0775 5.93978ZM30.6038 5.03677 30.9204 5.93978C29.0909 6.54178 27.7364 7.71647 26.8569 9.46385 25.9773 11.2112 25.5375 13.4062 25.5375 16.0488 25.5375 18.7851 25.9773 21.0407 26.8569 22.8154 27.7364 24.5902 29.0792 25.7786 30.8852 26.3806L30.6038 27.2836C28.313 26.6816 26.5578 25.3857 25.3382 23.396 24.1185 21.4062 23.5087 18.9962 23.5087 16.166 23.5087 13.3436 24.1205 10.9337 25.344 8.93612 26.5676 6.93856 28.3208 5.63877 30.6038 5.03677Z" fill-rule="evenodd" transform="matrix(1 0 0 1.00177 221.955 87.4706)"/><text font-family="Cambria Math,Cambria Math_MSFontService,sans-serif" font-weight="400" font-size="24.0176" transform="matrix(1 0 0 1.00177 253.303 111)">ğ‘¥</text><text font-family="Cambria Math,Cambria Math_MSFontService,sans-serif" font-weight="400" font-size="24.0176" transform="matrix(1 0 0 1.00177 266.849 111)">,</text><text font-family="Cambria Math,Cambria Math_MSFontService,sans-serif" font-weight="400" font-size="24.0176" transform="matrix(1 0 0 1.00177 275.839 111)">ğœ€</text><path d="M-0.258439 7.38631 17.5263-0.102082 18.0432 1.12549 0.258439 8.61388ZM8.69625-1.34392 19.0029-0.00119785 12.7609 8.30942C12.54 8.60352 12.1225 8.66286 11.8284 8.44197 11.5343 8.22108 11.475 7.80361 11.6959 7.50951L17.2522 0.111753 17.6987 1.1721 8.52418-0.0231309C8.15946-0.0706466 7.90231-0.404834 7.94983-0.76956 7.99734-1.13429 8.33153-1.39144 8.69625-1.34392Z" fill="#172C51" transform="matrix(-1 0 0 1.00177 224.5 92.664)"/></g></svg>