<svg width="321" height="227" xmlns="http://www.w3.org/2000/svg" xmlns:xlink="http://www.w3.org/1999/xlink" overflow="hidden"><defs><clipPath id="clip0"><rect x="0" y="0" width="321" height="227"/></clipPath></defs><g clip-path="url(#clip0)"><rect x="0" y="0" width="321" height="227.403" fill="#FFFFFF"/><path d="M17 113.701C17 57.545 79.904 12.0213 157.5 12.0213 235.096 12.0213 298 57.545 298 113.701 298 169.858 235.096 215.381 157.5 215.381 79.904 215.381 17 169.858 17 113.701Z" fill="#F2F2F2" fill-rule="evenodd"/><path d="M171.5 75.133C171.5 69.877 175.529 65.6162 180.5 65.6162 185.471 65.6162 189.5 69.877 189.5 75.133 189.5 80.389 185.471 84.6499 180.5 84.6499 175.529 84.6499 171.5 80.389 171.5 75.133Z" stroke="#172C51" stroke-width="1.33195" stroke-miterlimit="8" fill-rule="evenodd"/><path d="M91.5001 115.204C91.5001 109.948 95.7533 105.687 101 105.687 106.247 105.687 110.5 109.948 110.5 115.204 110.5 120.46 106.247 124.721 101 124.721 95.7533 124.721 91.5001 120.46 91.5001 115.204Z" stroke="#172C51" stroke-width="1.33195" stroke-miterlimit="8" fill-rule="evenodd"/><path d="M183.5 72.6287 103.5 112.7" stroke="#172C51" stroke-width="1.33195" stroke-miterlimit="8" fill="none" fill-rule="evenodd"/><text font-family="Cambria Math,Cambria Math_MSFontService,sans-serif" font-weight="400" font-size="32.0235" transform="matrix(1 0 0 1.00177 190.755 83)">ğ‘¥</text><text font-family="Cambria Math,Cambria Math_MSFontService,sans-serif" font-weight="400" font-size="32.0235" transform="matrix(1 0 0 1.00177 69.5846 121)">ğ‘¦</text><path d="M158.048 40.0295 215.239 150.123" stroke="#A6A6A6" stroke-width="1.33381" stroke-miterlimit="8" fill="none" fill-rule="evenodd"/><path d="M133.238 52.9638 190.428 163.058" stroke="#A6A6A6" stroke-width="1.33381" stroke-miterlimit="8" fill="none" fill-rule="evenodd"/><path d="M108.427 65.898 165.618 175.992" stroke="#A6A6A6" stroke-width="1.33381" stroke-miterlimit="8" fill="none" fill-rule="evenodd"/><path d="M83.616 78.8323 140.807 188.926" stroke="#A6A6A6" stroke-width="1.33381" stroke-miterlimit="8" fill="none" fill-rule="evenodd"/><path d="M68.5 115.204C68.5 98.8827 82.3792 85.6516 99.5 85.6516 116.621 85.6516 130.5 98.8827 130.5 115.204 130.5 131.525 116.621 144.756 99.5 144.756 82.3792 144.756 68.5 131.525 68.5 115.204Z" stroke="#172C51" stroke-width="1.33195" stroke-miterlimit="8" stroke-dasharray="5.3278 3.99585" fill="none" fill-rule="evenodd"/><path d="M149.5 76.1348C149.5 59.2603 162.931 45.5808 179.5 45.5808 196.069 45.5808 209.5 59.2603 209.5 76.1348 209.5 93.0094 196.069 106.689 179.5 106.689 162.931 106.689 149.5 93.0094 149.5 76.1348Z" stroke="#172C51" stroke-width="1.33195" stroke-miterlimit="8" stroke-dasharray="5.3278 3.99585" fill="none" fill-rule="evenodd"/><path d="M130.388 166.614 205.023 129.716 205.613 130.912 130.978 167.81ZM139.866 168.523 129.497 167.798 135.23 159.114C135.433 158.806 135.846 158.722 136.153 158.925 136.46 159.128 136.544 159.542 136.341 159.85L131.238 167.581 130.729 166.547 139.958 167.192C140.325 167.218 140.602 167.536 140.576 167.904 140.551 168.271 140.233 168.549 139.866 168.523ZM196.134 129.004 206.503 129.728 200.77 138.413C200.567 138.721 200.154 138.805 199.847 138.602 199.54 138.398 199.456 137.984 199.659 137.677L204.762 129.946 205.271 130.98 196.042 130.335C195.675 130.309 195.398 129.991 195.424 129.623 195.449 129.255 195.767 128.978 196.134 129.004Z" fill="#172C51"/><text font-family="Cambria Math,Cambria Math_MSFontService,sans-serif" font-weight="400" font-size="32.0235" transform="matrix(0.890826 -0.455958 0.45354 0.892406 152.279 194)">ğ‘Ÿ</text><text font-family="Cambria Math,Cambria Math_MSFontService,sans-serif" font-weight="400" font-size="32.0235" transform="matrix(0.890826 -0.455958 0.45354 0.892406 174.307 183)">&gt;</text><text font-family="Cambria Math,Cambria Math_MSFontService,sans-serif" font-weight="400" font-size="32.0235" transform="matrix(0.890826 -0.455958 0.45354 0.892406 203.572 168)">0</text></g></svg>