<svg width="340" height="96" xmlns="http://www.w3.org/2000/svg" xmlns:xlink="http://www.w3.org/1999/xlink" overflow="hidden"><defs><clipPath id="clip0"><rect x="0" y="0" width="340" height="96"/></clipPath></defs><g clip-path="url(#clip0)"><rect x="0" y="0" width="340" height="96.047" fill="#FFFFFF"/><rect x="239" y="15.0073" width="89" height="42.0206" stroke="#000000" stroke-width="1.99902" stroke-miterlimit="8" stroke-dasharray="1.99902 1.99902" fill="none"/><text font-family="Yu Gothic,Yu Gothic_MSFontService,sans-serif" font-weight="400" font-size="14.6667" transform="matrix(1 0 0 1.00049 254.569 41)">距離</text><text font-family="Yu Gothic,Yu Gothic_MSFontService,sans-serif" font-weight="400" font-size="14.6667" transform="matrix(1 0 0 1.00049 283.888 41)">空間</text><rect x="12" y="15.0073" width="89" height="42.0206" stroke="#000000" stroke-width="1.99902" stroke-miterlimit="8" stroke-dasharray="1.99902 1.99902" fill="none"/><text font-family="Yu Gothic,Yu Gothic_MSFontService,sans-serif" font-weight="400" font-size="14.6667" transform="matrix(1 0 0 1.00049 19.4627 41)">ノルム</text><text font-family="Yu Gothic,Yu Gothic_MSFontService,sans-serif" font-weight="400" font-size="14.6667" transform="matrix(1 0 0 1.00049 63.4411 41)">空間</text><path d="M101 34.0176 229.575 34.0177 229.575 38.0177 101 38.0176ZM227.575 30.0177 239.57 36.0177 227.575 42.0177Z" fill="#FF0000"/><text font-family="Cambria Math,Cambria Math_MSFontService,sans-serif" font-weight="400" font-size="14.6667" transform="matrix(1 0 0 1.00049 115.19 59)">𝑑</text><path d="M39.8995 3.01836C41.2936 3.38598 42.3642 4.17971 43.1114 5.39954 43.8586 6.61938 44.2322 8.09106 44.2322 9.81458 44.2322 11.5429 43.8598 13.0146 43.115 14.2296 42.3702 15.4447 41.2984 16.236 39.8995 16.6036L39.7276 16.0522C40.8305 15.6846 41.6505 14.9589 42.1876 13.8751 42.7247 12.7914 42.9932 11.414 42.9932 9.74297 42.9932 8.12925 42.7259 6.78887 42.1912 5.72181 41.6564 4.65475 40.8281 3.93741 39.7061 3.56979ZM16.8362 3.01836 17.0296 3.56979C15.9124 3.93741 15.0853 4.65475 14.5482 5.72181 14.0111 6.78887 13.7425 8.12925 13.7425 9.74297 13.7425 11.414 14.0111 12.7914 14.5482 13.8751 15.0853 14.9589 15.9053 15.6846 17.0081 16.0522L16.8362 16.6036C15.4374 16.236 14.3655 15.4447 13.6208 14.2296 12.876 13.0146 12.5036 11.5429 12.5036 9.81458 12.5036 8.09106 12.8772 6.61938 13.6243 5.39954 14.3715 4.17971 15.4422 3.38598 16.8362 3.01836Z" fill-rule="evenodd" transform="matrix(1 0 0 1.00049 112.938 45.4466)"/><text font-family="Cambria Math,Cambria Math_MSFontService,sans-serif" font-weight="400" font-size="14.6667" transform="matrix(1 0 0 1.00049 130.236 59)">𝑥</text><text font-family="Cambria Math,Cambria Math_MSFontService,sans-serif" font-weight="400" font-size="14.6667" transform="matrix(1 0 0 1.00049 138.512 59)">,</text><text font-family="Cambria Math,Cambria Math_MSFontService,sans-serif" font-weight="400" font-size="14.6667" transform="matrix(1 0 0 1.00049 143.956 59)">𝑦</text><text font-family="Cambria Math,Cambria Math_MSFontService,sans-serif" font-weight="400" font-size="14.6667" transform="matrix(1 0 0 1.00049 162.527 59)">=</text><path d="M111.492 3.15195 112.595 3.15195 112.595 16.4794 111.492 16.4794ZM108.377 3.15195 109.479 3.15195 109.479 16.4794 108.377 16.4794ZM69.5391 3.15195 70.642 3.15195 70.642 16.4794 69.5391 16.4794ZM66.4239 3.15195 67.5267 3.15195 67.5267 16.4794 66.4239 16.4794Z" fill-rule="evenodd" transform="matrix(1 0 0 1.00049 112.938 45.4466)"/><text font-family="Cambria Math,Cambria Math_MSFontService,sans-serif" font-weight="400" font-size="14.6667" transform="matrix(1 0 0 1.00049 185.342 59)">𝑥</text><text font-family="Cambria Math,Cambria Math_MSFontService,sans-serif" font-weight="400" font-size="14.6667" transform="matrix(1 0 0 1.00049 196.877 59)">−</text><text font-family="Cambria Math,Cambria Math_MSFontService,sans-serif" font-weight="400" font-size="14.6667" transform="matrix(1 0 0 1.00049 211.13 59)">𝑦</text></g></svg>