<svg width="340" height="96" xmlns="http://www.w3.org/2000/svg" xmlns:xlink="http://www.w3.org/1999/xlink" overflow="hidden"><defs><clipPath id="clip0"><rect x="0" y="0" width="340" height="96"/></clipPath></defs><g clip-path="url(#clip0)"><rect x="0" y="0" width="340" height="96.047" fill="#FFFFFF"/><rect x="239" y="23.0112" width="89" height="43.0211" stroke="#000000" stroke-width="1.99902" stroke-miterlimit="8" stroke-dasharray="1.99902 1.99902" fill="none"/><text font-family="Yu Gothic,Yu Gothic_MSFontService,sans-serif" font-weight="400" font-size="14.6667" transform="matrix(1 0 0 1.00049 254.569 50)">確率</text><text font-family="Yu Gothic,Yu Gothic_MSFontService,sans-serif" font-weight="400" font-size="14.6667" transform="matrix(1 0 0 1.00049 283.888 50)">空間</text><rect x="12" y="23.0112" width="89" height="43.0211" stroke="#000000" stroke-width="1.99902" stroke-miterlimit="8" stroke-dasharray="1.99902 1.99902" fill="none"/><text font-family="Yu Gothic,Yu Gothic_MSFontService,sans-serif" font-weight="400" font-size="14.6667" transform="matrix(1 0 0 1.00049 26.7924 50)">測度空間</text><path d="M101 43.022 229.575 43.0221 229.575 47.0221 101 47.022ZM227.575 39.0221 239.57 45.0222 227.575 51.0221Z" fill="#00B050"/><text font-family="Cambria Math,Cambria Math_MSFontService,sans-serif" font-weight="400" font-size="14.6667" transform="matrix(1 0 0 1.00049 141.132 64)">𝜇</text><path d="M26.8392 3.01836C28.2333 3.38598 29.304 4.17971 30.0511 5.39954 30.7983 6.61938 31.1719 8.09106 31.1719 9.81458 31.1719 11.5429 30.7995 13.0146 30.0547 14.2296 29.3099 15.4447 28.2381 16.236 26.8392 16.6036L26.6674 16.0522C27.7702 15.6846 28.5902 14.9589 29.1273 13.8751 29.6644 12.7914 29.933 11.414 29.933 9.74297 29.933 8.12925 29.6656 6.78887 29.1309 5.72181 28.5962 4.65475 27.7678 3.93741 26.6459 3.56979ZM16.0566 3.01836 16.25 3.56979C15.1328 3.93741 14.3057 4.65475 13.7685 5.72181 13.2314 6.78887 12.9629 8.12925 12.9629 9.74297 12.9629 11.414 13.2314 12.7914 13.7685 13.8751 14.3057 14.9589 15.1256 15.6846 16.2285 16.0522L16.0566 16.6036C14.6578 16.236 13.5859 15.4447 12.8411 14.2296 12.0963 13.0146 11.7239 11.5429 11.7239 9.81458 11.7239 8.09106 12.0975 6.61938 12.8447 5.39954 13.5919 4.17971 14.6625 3.38598 16.0566 3.01836Z" fill-rule="evenodd" transform="matrix(1 0 0 1.00049 139.086 49.5487)"/><text font-family="Cambria Math,Cambria Math_MSFontService,sans-serif" font-weight="400" font-size="14.6667" transform="matrix(1 0 0 1.00049 155.605 64)">𝑋</text><text font-family="Cambria Math,Cambria Math_MSFontService,sans-serif" font-weight="400" font-size="14.6667" transform="matrix(1 0 0 1.00049 175.615 64)">=</text><text font-family="Cambria Math,Cambria Math_MSFontService,sans-serif" font-weight="400" font-size="14.6667" transform="matrix(1 0 0 1.00049 190.681 64)">1</text></g></svg>