<svg width="340" height="96" xmlns="http://www.w3.org/2000/svg" xmlns:xlink="http://www.w3.org/1999/xlink" overflow="hidden"><defs><clipPath id="clip0"><rect x="0" y="0" width="340" height="96"/></clipPath></defs><g clip-path="url(#clip0)"><rect x="0" y="0" width="340" height="96.047" fill="#FFFFFF"/><rect x="239" y="15.0073" width="89" height="42.0206" stroke="#000000" stroke-width="1.99902" stroke-miterlimit="8" stroke-dasharray="1.99902 1.99902" fill="none"/><text font-family="Yu Gothic,Yu Gothic_MSFontService,sans-serif" font-weight="400" font-size="14.6667" transform="matrix(1 0 0 1.00049 254.569 41)">距離空間</text><rect x="12" y="15.0073" width="89" height="42.0206" stroke="#000000" stroke-width="1.99902" stroke-miterlimit="8" stroke-dasharray="1.99902 1.99902" fill="none"/><text font-family="Yu Gothic,Yu Gothic_MSFontService,sans-serif" font-weight="400" font-size="14.6667" transform="matrix(1 0 0 1.00049 26.7924 33)">リーマン</text><text font-family="Yu Gothic,Yu Gothic_MSFontService,sans-serif" font-weight="400" font-size="14.6667" transform="matrix(1 0 0 1.00049 34.1222 50)">多様体</text><path d="M101 34.0176 229.575 34.0177 229.575 38.0177 101 38.0176ZM227.575 30.0177 239.57 36.0177 227.575 42.0177Z" fill="#FF0000"/><text font-family="Cambria Math,Cambria Math_MSFontService,sans-serif" font-weight="400" font-size="14.6667" transform="matrix(1 0 0 1.00049 108.23 59)">𝑑</text><path d="M42.7648 3.01836C44.1589 3.38598 45.2295 4.17971 45.9767 5.39954 46.7239 6.61938 47.0974 8.09106 47.0974 9.81458 47.0974 11.5429 46.725 13.0146 45.9803 14.2296 45.2355 15.4447 44.1636 16.236 42.7648 16.6036L42.5929 16.0522C43.6957 15.6846 44.5157 14.9589 45.0528 13.8751 45.59 12.7914 45.8585 11.414 45.8585 9.74297 45.8585 8.12925 45.5911 6.78887 45.0564 5.72181 44.5217 4.65475 43.6934 3.93741 42.5714 3.56979ZM19.7015 3.01836 19.8949 3.56979C18.7777 3.93741 17.9505 4.65475 17.4134 5.72181 16.8763 6.78887 16.6078 8.12925 16.6078 9.74297 16.6078 11.414 16.8763 12.7914 17.4134 13.8751 17.9505 14.9589 18.7705 15.6846 19.8734 16.0522L19.7015 16.6036C18.3026 16.236 17.2308 15.4447 16.486 14.2296 15.7412 13.0146 15.3688 11.5429 15.3688 9.81458 15.3688 8.09106 15.7424 6.61938 16.4896 5.39954 17.2368 4.17971 18.3074 3.38598 19.7015 3.01836Z" fill-rule="evenodd" transform="matrix(1 0 0 1.00049 103.113 45.4466)"/><text font-family="Cambria Math,Cambria Math_MSFontService,sans-serif" font-weight="400" font-size="14.6667" transform="matrix(1 0 0 1.00049 123.276 59)">𝑥</text><text font-family="Cambria Math,Cambria Math_MSFontService,sans-serif" font-weight="400" font-size="14.6667" transform="matrix(1 0 0 1.00049 131.552 59)">,</text><text font-family="Cambria Math,Cambria Math_MSFontService,sans-serif" font-weight="400" font-size="14.6667" transform="matrix(1 0 0 1.00049 136.996 59)">𝑦</text><text font-family="Cambria Math,Cambria Math_MSFontService,sans-serif" font-weight="400" font-size="14.6667" transform="matrix(1 0 0 1.00049 155.567 59)">=</text><text font-family="Cambria Math,Cambria Math_MSFontService,sans-serif" font-weight="400" font-size="14.6667" transform="matrix(1 0 0 1.00049 170.633 59)">𝑖𝑛𝑓</text><path d="M123.396 2.98971 123.582 2.98971C124.704 3.00881 125.543 3.26543 126.1 3.75957 126.656 4.25371 126.934 4.99731 126.934 5.99036 126.934 6.38663 126.878 6.8378 126.766 7.34388 126.653 7.84996 126.597 8.18893 126.597 8.36081 126.597 8.69023 126.711 8.95879 126.937 9.16647 127.164 9.37415 127.507 9.48516 127.965 9.49948L127.965 10.0867C127.507 10.101 127.164 10.212 126.937 10.4197 126.711 10.6274 126.597 10.896 126.597 11.2254 126.597 11.3973 126.653 11.7362 126.766 12.2423 126.878 12.7484 126.934 13.1996 126.934 13.5958 126.934 14.6223 126.656 15.3826 126.1 15.8768 125.543 16.3709 124.704 16.6275 123.582 16.6466L123.396 16.6466 123.396 16.1023 123.503 16.1023C124.196 16.1023 124.738 15.9221 125.129 15.5617 125.521 15.2012 125.716 14.5889 125.716 13.7247 125.716 13.3905 125.669 12.9776 125.573 12.4858 125.478 11.9941 125.43 11.6431 125.43 11.4331 125.43 11.0273 125.549 10.6942 125.788 10.434 126.027 10.1739 126.311 9.98168 126.64 9.85755L126.64 9.72865C126.311 9.60451 126.027 9.41235 125.788 9.15215 125.549 8.89195 125.43 8.55894 125.43 8.15312 125.43 7.94306 125.478 7.59214 125.573 7.10039 125.669 6.60864 125.716 6.19566 125.716 5.86146 125.716 5.03073 125.521 4.43514 125.129 4.07467 124.738 3.71421 124.196 3.53398 123.503 3.53398L123.396 3.53398ZM93.9996 2.98971 94.1858 2.98971 94.1858 3.53398 94.0783 3.53398C93.3861 3.53398 92.8442 3.71421 92.4527 4.07467 92.0612 4.43514 91.8654 5.02834 91.8654 5.8543 91.8654 6.1885 91.9132 6.60148 92.0087 7.09323 92.1042 7.58498 92.1519 7.93589 92.1519 8.14596 92.1519 8.55178 92.0325 8.88479 91.7938 9.14499 91.5551 9.40519 91.271 9.59735 90.9416 9.72149L90.9416 9.85039C91.271 9.97452 91.5551 10.1667 91.7938 10.4269 92.0325 10.6871 92.1519 11.0201 92.1519 11.4259 92.1519 11.636 92.1042 11.9869 92.0087 12.4786 91.9132 12.9704 91.8654 13.3834 91.8654 13.7176 91.8654 14.5865 92.0612 15.2012 92.4527 15.5617 92.8442 15.9221 93.3861 16.1023 94.0783 16.1023L94.1858 16.1023 94.1858 16.6466 93.9996 16.6466C92.8776 16.6275 92.0385 16.3709 91.4823 15.8768 90.9261 15.3826 90.648 14.6199 90.648 13.5887 90.648 13.1924 90.7041 12.7412 90.8163 12.2352 90.9285 11.7291 90.9846 11.3901 90.9846 11.2182 90.9846 10.8888 90.8712 10.6202 90.6444 10.4126 90.4176 10.2049 90.0751 10.0939 89.6167 10.0796L89.6167 9.49232C90.0751 9.47799 90.4176 9.36699 90.6444 9.15931 90.8712 8.95163 90.9846 8.68307 90.9846 8.35365 90.9846 8.18177 90.9285 7.8428 90.8163 7.33672 90.7041 6.83064 90.648 6.37947 90.648 5.9832 90.648 4.99492 90.9261 4.25371 91.4823 3.75957 92.0385 3.26543 92.8776 3.00881 93.9996 2.98971Z" fill-rule="evenodd" transform="matrix(1 0 0 1.00049 103.113 45.4466)"/><text font-family="Cambria Math,Cambria Math_MSFontService,sans-serif" font-weight="400" font-size="14.6667" transform="matrix(1 0 0 1.00049 197.726 59)">𝐿</text><path d="M117.348 3.01836C118.742 3.38598 119.813 4.17971 120.56 5.39954 121.307 6.61938 121.681 8.09106 121.681 9.81458 121.681 11.5429 121.308 13.0146 120.564 14.2296 119.819 15.4447 118.747 16.236 117.348 16.6036L117.176 16.0522C118.279 15.6846 119.099 14.9589 119.636 13.8751 120.173 12.7914 120.442 11.414 120.442 9.74297 120.442 8.12925 120.175 6.78887 119.64 5.72181 119.105 4.65475 118.277 3.93741 117.155 3.56979ZM108.365 3.01836 108.558 3.56979C107.441 3.93741 106.614 4.65475 106.077 5.72181 105.54 6.78887 105.271 8.12925 105.271 9.74297 105.271 11.414 105.54 12.7914 106.077 13.8751 106.614 14.9589 107.434 15.6846 108.537 16.0522L108.365 16.6036C106.966 16.236 105.894 15.4447 105.149 14.2296 104.404 13.0146 104.032 11.5429 104.032 9.81458 104.032 8.09106 104.406 6.61938 105.153 5.39954 105.9 4.17971 106.971 3.38598 108.365 3.01836Z" fill-rule="evenodd" transform="matrix(1 0 0 1.00049 103.113 45.4466)"/><text font-family="Cambria Math,Cambria Math_MSFontService,sans-serif" font-weight="400" font-size="14.6667" transform="matrix(1 0 0 1.00049 211.939 59)">𝛾</text></g></svg>