<svg width="794" height="170" xmlns="http://www.w3.org/2000/svg" xmlns:xlink="http://www.w3.org/1999/xlink" overflow="hidden"><g><rect x="0" y="0" width="794" height="169.929" fill="#FFFFFF"/><rect x="9" y="10.9954" width="71" height="42.9819" stroke="#000000" stroke-width="2.00084" stroke-miterlimit="8" stroke-dasharray="2.00084 2.00084" fill="none"/><text font-family="Yu Gothic,Yu Gothic_MSFontService,sans-serif" font-weight="400" font-size="12" transform="matrix(1 0 0 0.99958 38.3291 36)">環</text><rect x="124" y="10.9954" width="71" height="42.9819" stroke="#000000" stroke-width="2.00084" stroke-miterlimit="8" stroke-dasharray="2.00084 2.00084" fill="none"/><text font-family="Yu Gothic,Yu Gothic_MSFontService,sans-serif" font-weight="400" font-size="12" transform="matrix(1 0 0 0.99958 141.244 36)">可換環</text><rect x="239" y="10.9954" width="71" height="41.9824" stroke="#000000" stroke-width="2.00084" stroke-miterlimit="8" stroke-dasharray="2.00084 2.00084" fill="none"/><text font-family="Yu Gothic,Yu Gothic_MSFontService,sans-serif" font-weight="400" font-size="12" transform="matrix(1 0 0 0.99958 262.167 36)">整域</text><rect x="356" y="10.9954" width="71.0001" height="42.9819" stroke="#000000" stroke-width="2.00084" stroke-miterlimit="8" stroke-dasharray="2.00084 2.00084" fill="none"/><text font-family="Yu Gothic,Yu Gothic_MSFontService,sans-serif" font-weight="400" font-size="12" transform="matrix(1 0 0 0.99958 355.397 29)">一意分解整域</text><text font-family="Calibri,Calibri_MSFontService,sans-serif" font-weight="400" font-size="12" transform="matrix(1 0 0 0.99958 377.486 44)">(UFD)</text><rect x="473" y="10.9954" width="71" height="42.9819" stroke="#000000" stroke-width="2.00084" stroke-miterlimit="8" stroke-dasharray="2.00084 2.00084" fill="none"/><text font-family="Yu Gothic,Yu Gothic_MSFontService,sans-serif" font-weight="400" font-size="12" transform="matrix(1 0 0 0.99958 478.639 36)">主理想整域</text><rect x="588" y="10.9954" width="71" height="42.9819" stroke="#000000" stroke-width="2.00084" stroke-miterlimit="8" stroke-dasharray="2.00084 2.00084" fill="none"/><text font-family="Yu Gothic,Yu Gothic_MSFontService,sans-serif" font-weight="400" font-size="12" transform="matrix(1 0 0 0.99958 587.557 29)">ユークリッド</text><text font-family="Yu Gothic,Yu Gothic_MSFontService,sans-serif" font-weight="400" font-size="12" transform="matrix(1 0 0 0.99958 611.56 43)">整域</text><rect x="699" y="11.995" width="71" height="41.9824" stroke="#000000" stroke-width="2.00084" stroke-miterlimit="8" stroke-dasharray="2.00084 2.00084" fill="none"/><text font-family="Yu Gothic,Yu Gothic_MSFontService,sans-serif" font-weight="400" font-size="12" transform="matrix(1 0 0 0.99958 728.502 37)">体</text><text fill="#00B050" font-family="Cambria Math,Cambria Math_MSFontService,sans-serif" font-weight="400" font-size="12" transform="matrix(1 0 0 0.99958 24.5432 71)">𝑀</text><text fill="#00B050" font-family="Cambria Math,Cambria Math_MSFontService,sans-serif" font-weight="400" font-size="8.76" transform="matrix(1 0 0 0.99958 34.0139 73)">𝑛</text><path d="M31.6874 2.01902C32.8275 2.31968 33.7031 2.96882 34.3142 3.96645 34.9253 4.96407 35.2308 6.16767 35.2308 7.57723 35.2308 8.9907 34.9262 10.1943 34.3171 11.188 33.708 12.1817 32.8314 12.8289 31.6874 13.1296L31.5468 12.6786C32.4488 12.378 33.1194 11.7845 33.5587 10.8981 33.9979 10.0118 34.2176 8.88528 34.2176 7.51867 34.2176 6.19891 33.9989 5.10269 33.5616 4.23001 33.1243 3.35733 32.4468 2.77066 31.5292 2.47ZM21.9243 2.01902 22.0825 2.47C21.1688 2.77066 20.4923 3.35733 20.0531 4.23001 19.6138 5.10269 19.3942 6.19891 19.3942 7.51867 19.3942 8.88528 19.6138 10.0118 20.0531 10.8981 20.4923 11.7845 21.1629 12.378 22.0649 12.6786L21.9243 13.1296C20.7803 12.8289 19.9037 12.1817 19.2946 11.188 18.6855 10.1943 18.3809 8.9907 18.3809 7.57723 18.3809 6.16767 18.6864 4.96407 19.2975 3.96645 19.9086 2.96882 20.7842 2.31968 21.9243 2.01902Z" fill="#00B050" fill-rule="evenodd" transform="matrix(1.00042 0 0 1 22.9959 59.6794)"/><text fill="#00B050" font-family="Cambria Math,Cambria Math_MSFontService,sans-serif" font-weight="400" font-size="12" transform="matrix(1 0 0 0.99958 45.3119 71)">ℝ</text><text fill="#00B050" font-family="Cambria Math,Cambria Math_MSFontService,sans-serif" font-weight="400" font-size="12" transform="matrix(1 0 0 0.99958 128.588 71)">ℤ</text><text fill="#00B050" font-family="Cambria Math,Cambria Math_MSFontService,sans-serif" font-weight="400" font-size="12" transform="matrix(1 0 0 0.99958 135.758 71)">/</text><text fill="#00B050" font-family="Cambria Math,Cambria Math_MSFontService,sans-serif" font-weight="400" font-size="12" transform="matrix(1 0 0 0.99958 141.593 71)">𝑛ℤ</text><text fill="#00B050" font-family="Cambria Math,Cambria Math_MSFontService,sans-serif" font-weight="400" font-size="12" transform="matrix(1 0 0 0.99958 155.599 71)">,</text><text fill="#00B050" font-family="Cambria Math,Cambria Math_MSFontService,sans-serif" font-weight="400" font-size="12" transform="matrix(1 0 0 0.99958 160.101 71)">𝑛</text><text fill="#00B050" font-family="Cambria Math,Cambria Math_MSFontService,sans-serif" font-weight="400" font-size="12" transform="matrix(1 0 0 0.99958 170.479 71)">∉</text><text fill="#00B050" font-family="Cambria Math,Cambria Math_MSFontService,sans-serif" font-weight="400" font-size="12" transform="matrix(1 0 0 0.99958 181.483 71)">ℙ</text><text fill="#00B050" font-family="Cambria Math,Cambria Math_MSFontService,sans-serif" font-weight="400" font-size="12" transform="matrix(1 0 0 0.99958 256.908 75)">ℤ</text><path d="M40.0369 1.73526 42.8248 1.73526 42.8248 21.4145 40.0369 21.4145 40.0369 20.9049 41.7413 20.9049 41.7413 2.24481 40.0369 2.24481ZM22.1762 1.73526 24.9641 1.73526 24.9641 2.24481 23.2597 2.24481 23.2597 20.9049 24.9641 20.9049 24.9641 21.4145 22.1762 21.4145Z" fill="#00B050" fill-rule="evenodd" transform="matrix(1.00042 0 0 1 243.222 59.6794)"/><path d="M32.3135 3.81428 33.807 3.81428 33.807 3.99832 39.9832 3.99832 39.9832 4.9979 32.9861 4.9979 32.9861 4.59325 32.7469 4.59325 29.5959 15.3583 29.0278 15.3583 26.603 10.1456 25.6132 10.5849 25.4317 10.1456 27.3527 9.26707 29.4202 13.812Z" fill="#00B050" fill-rule="evenodd" transform="matrix(1.00042 0 0 1 243.222 59.6794)"/><text fill="#00B050" font-family="Cambria Math,Cambria Math_MSFontService,sans-serif" font-weight="400" font-size="12" transform="matrix(1 0 0 0.99958 276.343 75)">5</text><text fill="#00B050" font-family="Cambria Math,Cambria Math_MSFontService,sans-serif" font-weight="400" font-size="12" transform="matrix(1 0 0 0.99958 376.67 71)">ℤ</text><path d="M36.7318 1.98893 39.344 1.98893 39.344 13.1581 36.7318 13.1581 36.7318 12.7071 38.3718 12.7071 38.3718 2.43991 36.7318 2.43991ZM25.6554 1.98893 28.2676 1.98893 28.2676 2.43991 26.6276 2.43991 26.6276 12.7071 28.2676 12.7071 28.2676 13.1581 25.6554 13.1581Z" fill="#00B050" fill-rule="evenodd" transform="matrix(1.00042 0 0 1 359.509 59.6794)"/><text fill="#00B050" font-family="Cambria Math,Cambria Math_MSFontService,sans-serif" font-weight="400" font-size="12" transform="matrix(1 0 0 0.99958 388.041 71)">𝑋</text><text fill="#00B050" font-family="Cambria Math,Cambria Math_MSFontService,sans-serif" font-weight="400" font-size="12" transform="matrix(1 0 0 0.99958 475.107 83)">ℤ</text><path d="M65.2502 1.48516 68.2607 1.48516 68.2607 31.7596 65.2502 31.7596 65.2502 31.1973 67.1186 31.1973 67.1186 2.04742 65.2502 2.04742ZM10.4962 1.48516 13.5066 1.48516 13.5066 2.04742 11.6383 2.04742 11.6383 31.1973 13.5066 31.1973 13.5066 31.7596 10.4962 31.7596Z" fill="#00B050" fill-rule="evenodd" transform="matrix(1.00042 0 0 1 475.107 59.6794)"/><text fill="#00B050" font-family="Cambria Math,Cambria Math_MSFontService,sans-serif" font-weight="400" font-size="12" transform="matrix(1 0 0 0.99958 488.886 74)">1</text><text fill="#00B050" font-family="Cambria Math,Cambria Math_MSFontService,sans-serif" font-weight="400" font-size="12" transform="matrix(1 0 0 0.99958 498.223 74)">+</text><path d="M42.9819 2.99874 53.9773 2.99874 64.9727 2.99874 64.9727 3.99832 53.9773 3.99832 43.3537 3.99832 43.3537 4.14677 42.2936 4.14677 39.1426 14.9118 38.5745 14.9118 36.1497 9.69913 35.1599 10.1384 34.9783 9.69913 36.8994 8.82059 38.9669 13.3656 41.8602 3.3678 42.9819 3.3678Z" fill="#00B050" fill-rule="evenodd" transform="matrix(1.00042 0 0 1 475.107 59.6794)"/><text fill="#00B050" font-family="Cambria Math,Cambria Math_MSFontService,sans-serif" font-weight="400" font-size="12" transform="matrix(1 0 0 0.99958 517.778 74)">−</text><text fill="#00B050" font-family="Cambria Math,Cambria Math_MSFontService,sans-serif" font-weight="400" font-size="12" transform="matrix(1 0 0 0.99958 526.782 74)">19</text><text fill="#00B050" font-family="Cambria Math,Cambria Math_MSFontService,sans-serif" font-weight="400" font-size="12" transform="matrix(1 0 0 0.99958 511.169 91)">2</text><path d="M13.9941 18.992 26.7388 18.992 39.4834 18.992 52.2281 18.992 64.9727 18.992 64.9727 19.9916 52.2281 19.9916 39.4834 19.9916 26.7388 19.9916 13.9941 19.9916Z" fill="#00B050" fill-rule="evenodd" transform="matrix(1.00042 0 0 1 475.107 59.6794)"/><text fill="#00B050" font-family="Cambria Math,Cambria Math_MSFontService,sans-serif" font-weight="400" font-size="12" transform="matrix(1 0 0 0.99958 595.223 71)">ℤ</text><text fill="#00B050" font-family="Cambria Math,Cambria Math_MSFontService,sans-serif" font-weight="400" font-size="12" transform="matrix(1 0 0 0.99958 602.393 71)">,</text><text fill="#00B050" font-family="Cambria Math,Cambria Math_MSFontService,sans-serif" font-weight="400" font-size="12" transform="matrix(1 0 0 0.99958 606.895 71)">ℤ</text><path d="M27.4985 1.98893 30.1107 1.98893 30.1107 13.1581 27.4985 13.1581 27.4985 12.7071 29.1385 12.7071 29.1385 2.43991 27.4985 2.43991ZM20.1687 1.98893 22.7809 1.98893 22.7809 2.43991 21.141 2.43991 21.141 12.7071 22.7809 12.7071 22.7809 13.1581 20.1687 13.1581Z" fill="#00B050" fill-rule="evenodd" transform="matrix(1.00042 0 0 1 595.223 59.6794)"/><text fill="#00B050" font-family="Cambria Math,Cambria Math_MSFontService,sans-serif" font-weight="400" font-size="12" transform="matrix(1 0 0 0.99958 618.266 71)">𝑖</text><text fill="#00B050" font-family="Cambria Math,Cambria Math_MSFontService,sans-serif" font-weight="400" font-size="12" transform="matrix(1 0 0 0.99958 626.683 71)">,</text><text fill="#00B050" font-family="Cambria Math,Cambria Math_MSFontService,sans-serif" font-weight="400" font-size="12" transform="matrix(1 0 0 0.99958 631.185 71)">ℝ</text><path d="M57.3585 1.98893 59.9707 1.98893 59.9707 13.1581 57.3585 13.1581 57.3585 12.7071 58.9985 12.7071 58.9985 2.43991 57.3585 2.43991ZM46.282 1.98893 48.8942 1.98893 48.8942 2.43991 47.2543 2.43991 47.2543 12.7071 48.8942 12.7071 48.8942 13.1581 46.282 13.1581Z" fill="#00B050" fill-rule="evenodd" transform="matrix(1.00042 0 0 1 595.223 59.6794)"/><text fill="#00B050" font-family="Cambria Math,Cambria Math_MSFontService,sans-serif" font-weight="400" font-size="12" transform="matrix(1 0 0 0.99958 644.39 71)">𝑋</text><text fill="#00B050" font-family="Cambria Math,Cambria Math_MSFontService,sans-serif" font-weight="400" font-size="12" transform="matrix(1 0 0 0.99958 703.786 71)">ℚ</text><text fill="#00B050" font-family="Cambria Math,Cambria Math_MSFontService,sans-serif" font-weight="400" font-size="12" transform="matrix(1 0 0 0.99958 712.956 71)">,</text><text fill="#00B050" font-family="Cambria Math,Cambria Math_MSFontService,sans-serif" font-weight="400" font-size="12" transform="matrix(1 0 0 0.99958 717.458 71)">ℝ</text><text fill="#00B050" font-family="Cambria Math,Cambria Math_MSFontService,sans-serif" font-weight="400" font-size="12" transform="matrix(1 0 0 0.99958 726.462 71)">,</text><text fill="#00B050" font-family="Cambria Math,Cambria Math_MSFontService,sans-serif" font-weight="400" font-size="12" transform="matrix(1 0 0 0.99958 730.964 71)">ℂ</text><text fill="#00B050" font-family="Cambria Math,Cambria Math_MSFontService,sans-serif" font-weight="400" font-size="12" transform="matrix(1 0 0 0.99958 738.133 71)">,</text><text fill="#00B050" font-family="Cambria Math,Cambria Math_MSFontService,sans-serif" font-weight="400" font-size="12" transform="matrix(1 0 0 0.99958 742.635 71)">ℤ</text><text fill="#00B050" font-family="Cambria Math,Cambria Math_MSFontService,sans-serif" font-weight="400" font-size="12" transform="matrix(1 0 0 0.99958 749.805 71)">/</text><text fill="#00B050" font-family="Cambria Math,Cambria Math_MSFontService,sans-serif" font-weight="400" font-size="12" transform="matrix(1 0 0 0.99958 755.641 71)">𝑝ℤ</text><text font-family="Yu Gothic,Yu Gothic_MSFontService,sans-serif" font-weight="400" font-size="12" transform="matrix(-1.83697e-16 -0.999161 1.00042 -1.8362e-16 107.816 83)">可換性</text><text font-family="Yu Gothic,Yu Gothic_MSFontService,sans-serif" font-weight="400" font-size="12" transform="matrix(-1.83697e-16 -0.999161 1.00042 -1.8362e-16 219.25 95)">約分法則</text><text font-family="Yu Gothic,Yu Gothic_MSFontService,sans-serif" font-weight="400" font-size="12" transform="matrix(-1.83697e-16 -0.999161 1.00042 -1.8362e-16 333.636 94)">一意分解</text><text font-family="Yu Gothic,Yu Gothic_MSFontService,sans-serif" font-weight="400" font-size="12" transform="matrix(-1.83697e-16 -0.999161 1.00042 -1.8362e-16 446.023 160)">すべてのイデアルは</text><text font-family="Yu Gothic,Yu Gothic_MSFontService,sans-serif" font-weight="400" font-size="12" transform="matrix(-1.83697e-16 -0.999161 1.00042 -1.8362e-16 460.029 113)">主イデアル</text><text font-family="Yu Gothic,Yu Gothic_MSFontService,sans-serif" font-weight="400" font-size="12" transform="matrix(-1.83697e-16 -0.999161 1.00042 -1.8362e-16 559.349 124)">ユークリッド</text><text font-family="Yu Gothic,Yu Gothic_MSFontService,sans-serif" font-weight="400" font-size="12" transform="matrix(-1.83697e-16 -0.999161 1.00042 -1.8362e-16 573.355 100)">の互除法</text><text font-family="Yu Gothic,Yu Gothic_MSFontService,sans-serif" font-weight="400" font-size="12" transform="matrix(-1.83697e-16 -0.999161 1.00042 -1.8362e-16 682.509 142)">非</text><text font-family="Calibri,Calibri_MSFontService,sans-serif" font-weight="400" font-size="12" transform="matrix(-1.83697e-16 -0.999161 1.00042 -1.8362e-16 682.509 130)">0</text><text font-family="Yu Gothic,Yu Gothic_MSFontService,sans-serif" font-weight="400" font-size="12" transform="matrix(-1.83697e-16 -0.999161 1.00042 -1.8362e-16 682.509 124)">は逆元を持つ</text><path d="M80 30.9861 113.689 30.9862 113.689 34.9862 80 34.9861ZM111.688 26.9862 123.693 32.9862 111.688 38.9862Z" fill="#00B050"/><path d="M0.0282278-1.9998 33.704-1.52446 33.6475 2.47514-0.0282278 1.9998ZM31.7606-5.55229 43.6747 0.616483 31.5913 6.44652Z" fill="#00B050" transform="matrix(1.00042 0 0 -1 195 32.603)"/><path d="M310.018 29.9866 346.027 30.307 345.992 34.3068 309.982 33.9865ZM344.062 26.2893 356.013 32.3959 343.955 38.2889Z" fill="#00B050"/><path d="M427.002 29.9866 463.011 30.0195 463.007 34.0195 426.998 33.9866ZM461.014 26.0177 473.013 32.0287 461.003 38.0177Z" fill="#00B050"/><path d="M0.00192787-2 33.6767-1.96754 33.6728 2.03246-0.00192787 2ZM31.6805-5.96946 43.6747 0.0420997 31.669 6.03053Z" fill="#00B050" transform="matrix(1.00042 0 0 -1 544 32.0287)"/><path d="M659.024 29.9867 688.727 30.3469 688.678 34.3466 658.976 33.9864ZM686.775 26.3229 698.706 32.468 686.629 38.322Z" fill="#00B050"/></g></svg>