<svg width="340" height="96" xmlns="http://www.w3.org/2000/svg" xmlns:xlink="http://www.w3.org/1999/xlink" overflow="hidden"><defs><clipPath id="clip0"><rect x="0" y="0" width="340" height="96"/></clipPath></defs><g clip-path="url(#clip0)"><rect x="0" y="0" width="340" height="96.047" fill="#FFFFFF"/><rect x="12" y="20.0098" width="89" height="55.027" stroke="#000000" stroke-width="1.99902" stroke-miterlimit="8" stroke-dasharray="1.99902 1.99902" fill="none"/><text font-family="Yu Gothic,Yu Gothic_MSFontService,sans-serif" font-weight="400" font-size="14.6667" transform="matrix(1 0 0 1.00049 41.452 41)">集合</text><text font-family="Yu Gothic,Yu Gothic_MSFontService,sans-serif" font-weight="400" font-size="14.6667" transform="matrix(1 0 0 1.00049 34.1223 65)">・要素</text><rect x="239" y="20.0098" width="89" height="55.027" stroke="#000000" stroke-width="1.99902" stroke-miterlimit="8" stroke-dasharray="1.99902 1.99902" fill="none"/><text font-family="Yu Gothic,Yu Gothic_MSFontService,sans-serif" font-weight="400" font-size="14.6667" transform="matrix(1 0 0 1.00049 269.229 41)">空間</text><text font-family="Yu Gothic,Yu Gothic_MSFontService,sans-serif" font-weight="400" font-size="14.6667" transform="matrix(1 0 0 1.00049 269.229 65)">・点</text><path d="M101 45.023 229.575 45.0231 229.575 49.0231 101 49.023ZM227.575 41.0231 239.57 47.0231 227.575 53.0231Z" fill="#4472C4"/><text font-family="Calibri,Calibri_MSFontService,sans-serif" font-weight="400" font-size="14.6667" transform="matrix(1 0 0 1.00049 122.045 39)">+</text><text font-family="Yu Gothic,Yu Gothic_MSFontService,sans-serif" font-weight="400" font-size="14.6667" transform="matrix(1 0 0 1.00049 132.706 39)">数学的構造</text></g></svg>