<svg width="586" height="265" xmlns="http://www.w3.org/2000/svg" xmlns:xlink="http://www.w3.org/1999/xlink" overflow="hidden"><defs><clipPath id="clip0"><rect x="0" y="0" width="586" height="265"/></clipPath></defs><g clip-path="url(#clip0)"><rect x="0" y="0" width="586" height="265.425" fill="#FFFFFF"/><rect x="246" y="8.01281" width="88.9999" height="42.0675" stroke="#000000" stroke-width="2.00057" stroke-miterlimit="8" stroke-dasharray="2.00057 2.00057" fill="none"/><text font-family="Yu Gothic,Yu Gothic_MSFontService,sans-serif" font-weight="400" font-size="14.6944" transform="matrix(1 0 0 1.00161 254.141 26)">実</text><text font-family="Yu Gothic,Yu Gothic_MSFontService,sans-serif" font-weight="400" font-size="14.6944" transform="matrix(1 0 0 1.00161 268.811 26)">ベクトル</text><text font-family="Yu Gothic,Yu Gothic_MSFontService,sans-serif" font-weight="400" font-size="14.6944" transform="matrix(1 0 0 1.00161 276.147 43)">空間</text><rect x="18" y="8.01281" width="90" height="42.0675" stroke="#000000" stroke-width="2.00057" stroke-miterlimit="8" stroke-dasharray="2.00057 2.00057" fill="none"/><text font-family="Yu Gothic,Yu Gothic_MSFontService,sans-serif" font-weight="400" font-size="14.6944" transform="matrix(1 0 0 1.00161 48.1933 34)">集合</text><path d="M108 27.0427 236.674 27.0428 236.674 31.0504 108 31.0503ZM234.673 23.0353 246.677 29.0466 234.673 35.0579Z" fill="#4472C4"/><text font-family="Calibri,Calibri_MSFontService,sans-serif" font-weight="400" font-size="14.6944" transform="matrix(1 0 0 1.00161 134.504 48)">+</text><text font-family="Yu Gothic,Yu Gothic_MSFontService,sans-serif" font-weight="400" font-size="14.6944" transform="matrix(1 0 0 1.00161 145.173 48)">体</text><text font-family="Calibri,Calibri_MSFontService,sans-serif" font-weight="400" font-size="14.6944" transform="matrix(1 0 0 1.00161 159.844 48)">(</text><text font-family="Yu Gothic,Yu Gothic_MSFontService,sans-serif" font-weight="400" font-size="14.6944" transform="matrix(1 0 0 1.00161 164.346 48)">実数</text><text font-family="Calibri,Calibri_MSFontService,sans-serif" font-weight="400" font-size="14.6944" transform="matrix(1 0 0 1.00161 193.687 48)">)</text><text font-family="Calibri,Calibri_MSFontService,sans-serif" font-weight="400" font-size="14.6944" transform="matrix(1 0 0 1.00161 134.504 65)">+</text><text font-family="Yu Gothic,Yu Gothic_MSFontService,sans-serif" font-weight="400" font-size="14.6944" transform="matrix(1 0 0 1.00161 145.173 65)">加法</text><text font-family="Calibri,Calibri_MSFontService,sans-serif" font-weight="400" font-size="14.6944" transform="matrix(1 0 0 1.00161 134.504 83)">+</text><text font-family="Yu Gothic,Yu Gothic_MSFontService,sans-serif" font-weight="400" font-size="14.6944" transform="matrix(1 0 0 1.00161 145.173 83)">スカラー倍</text><rect x="472" y="9.01449" width="89" height="42.0674" stroke="#000000" stroke-width="2.00057" stroke-miterlimit="8" stroke-dasharray="2.00057 2.00057" fill="none"/><text font-family="Yu Gothic,Yu Gothic_MSFontService,sans-serif" font-weight="400" font-size="14.6944" transform="matrix(1 0 0 1.00161 479.655 27)">ノルム付き</text><text font-family="Yu Gothic,Yu Gothic_MSFontService,sans-serif" font-weight="400" font-size="14.6944" transform="matrix(1 0 0 1.00161 472.32 44)">ベクトル空間</text><path d="M335.014 27.0428 461.25 27.9567 461.221 31.9641 334.985 31.0502ZM459.279 23.9347 471.238 30.0328 459.192 35.9571Z" fill="#4472C4"/><text font-family="Calibri,Calibri_MSFontService,sans-serif" font-weight="400" font-size="14.6944" transform="matrix(1 0 0 1.00161 388.21 48)">+</text><text font-family="Yu Gothic,Yu Gothic_MSFontService,sans-serif" font-weight="400" font-size="14.6944" transform="matrix(1 0 0 1.00161 398.879 48)">ノルム</text><rect x="472" y="71.114" width="89" height="42.0674" stroke="#000000" stroke-width="2.00057" stroke-miterlimit="8" stroke-dasharray="2.00057 2.00057" fill="none"/><text font-family="Yu Gothic,Yu Gothic_MSFontService,sans-serif" font-weight="400" font-size="14.6944" transform="matrix(1 0 0 1.00161 486.991 98)">内積空間</text><path d="M368.001 30.0482 368.001 88.1413 366 86.1375 460.997 86.1375 460.997 90.1451 363.999 90.1451 363.999 30.0482ZM458.997 82.13 471 88.1413 458.997 94.1527Z" fill="#4472C4"/><text font-family="Calibri,Calibri_MSFontService,sans-serif" font-weight="400" font-size="14.6944" transform="matrix(1 0 0 1.00161 387.752 105)">+</text><text font-family="Yu Gothic,Yu Gothic_MSFontService,sans-serif" font-weight="400" font-size="14.6944" transform="matrix(1 0 0 1.00161 398.422 105)">内積</text><rect x="246" y="149.239" width="88.9999" height="43.0691" stroke="#000000" stroke-width="2.00057" stroke-miterlimit="8" stroke-dasharray="2.00057 2.00057" fill="none"/><text font-family="Yu Gothic,Yu Gothic_MSFontService,sans-serif" font-weight="400" font-size="14.6944" transform="matrix(1 0 0 1.00161 246.805 168)">複素</text><text font-family="Yu Gothic,Yu Gothic_MSFontService,sans-serif" font-weight="400" font-size="14.6944" transform="matrix(1 0 0 1.00161 276.147 168)">ベクトル</text><text font-family="Yu Gothic,Yu Gothic_MSFontService,sans-serif" font-weight="400" font-size="14.6944" transform="matrix(1 0 0 1.00161 276.147 185)">空間</text><rect x="18" y="149.239" width="90" height="43.0691" stroke="#000000" stroke-width="2.00057" stroke-miterlimit="8" stroke-dasharray="2.00057 2.00057" fill="none"/><text font-family="Yu Gothic,Yu Gothic_MSFontService,sans-serif" font-weight="400" font-size="14.6944" transform="matrix(1 0 0 1.00161 48.1933 176)">集合</text><path d="M108 169.271 236.674 169.271 236.674 173.278 108 173.278ZM234.673 165.263 246.677 171.275 234.673 177.286Z" fill="#4472C4"/><text font-family="Calibri,Calibri_MSFontService,sans-serif" font-weight="400" font-size="14.6944" transform="matrix(1 0 0 1.00161 134.504 190)">+</text><text font-family="Yu Gothic,Yu Gothic_MSFontService,sans-serif" font-weight="400" font-size="14.6944" transform="matrix(1 0 0 1.00161 145.173 190)">体</text><text font-family="Calibri,Calibri_MSFontService,sans-serif" font-weight="400" font-size="14.6944" transform="matrix(1 0 0 1.00161 159.844 190)">(</text><text font-family="Yu Gothic,Yu Gothic_MSFontService,sans-serif" font-weight="400" font-size="14.6944" transform="matrix(1 0 0 1.00161 164.346 190)">複素数</text><text font-family="Calibri,Calibri_MSFontService,sans-serif" font-weight="400" font-size="14.6944" transform="matrix(1 0 0 1.00161 208.358 190)">)</text><text font-family="Calibri,Calibri_MSFontService,sans-serif" font-weight="400" font-size="14.6944" transform="matrix(1 0 0 1.00161 134.504 207)">+</text><text font-family="Yu Gothic,Yu Gothic_MSFontService,sans-serif" font-weight="400" font-size="14.6944" transform="matrix(1 0 0 1.00161 145.173 207)">加法</text><text font-family="Calibri,Calibri_MSFontService,sans-serif" font-weight="400" font-size="14.6944" transform="matrix(1 0 0 1.00161 134.504 225)">+</text><text font-family="Yu Gothic,Yu Gothic_MSFontService,sans-serif" font-weight="400" font-size="14.6944" transform="matrix(1 0 0 1.00161 145.173 225)">スカラー倍</text><rect x="472" y="150.241" width="89" height="43.069" stroke="#000000" stroke-width="2.00057" stroke-miterlimit="8" stroke-dasharray="2.00057 2.00057" fill="none"/><text font-family="Yu Gothic,Yu Gothic_MSFontService,sans-serif" font-weight="400" font-size="14.6944" transform="matrix(1 0 0 1.00161 479.655 169)">ノルム付き</text><text font-family="Yu Gothic,Yu Gothic_MSFontService,sans-serif" font-weight="400" font-size="14.6944" transform="matrix(1 0 0 1.00161 472.32 186)">ベクトル空間</text><path d="M335.014 169.271 461.25 170.185 461.221 174.192 334.985 173.278ZM459.279 166.163 471.238 172.261 459.192 178.185Z" fill="#4472C4"/><text font-family="Calibri,Calibri_MSFontService,sans-serif" font-weight="400" font-size="14.6944" transform="matrix(1 0 0 1.00161 388.21 190)">+</text><text font-family="Yu Gothic,Yu Gothic_MSFontService,sans-serif" font-weight="400" font-size="14.6944" transform="matrix(1 0 0 1.00161 398.879 190)">ノルム</text><rect x="472" y="212.34" width="89" height="43.069" stroke="#000000" stroke-width="2.00057" stroke-miterlimit="8" stroke-dasharray="2.00057 2.00057" fill="none"/><text font-family="Yu Gothic,Yu Gothic_MSFontService,sans-serif" font-weight="400" font-size="14.6944" transform="matrix(1 0 0 1.00161 479.655 231)">ユニタリー</text><text font-family="Yu Gothic,Yu Gothic_MSFontService,sans-serif" font-weight="400" font-size="14.6944" transform="matrix(1 0 0 1.00161 501.662 248)">空間</text><path d="M368.001 172.276 368.001 229.368 366 227.364 460.997 227.364 460.997 231.371 363.999 231.371 363.999 172.276ZM458.997 223.356 471 229.368 458.997 235.379Z" fill="#4472C4"/><text font-family="Calibri,Calibri_MSFontService,sans-serif" font-weight="400" font-size="14.6944" transform="matrix(1 0 0 1.00161 380.199 249)">+</text><text font-family="Yu Gothic,Yu Gothic_MSFontService,sans-serif" font-weight="400" font-size="14.6944" transform="matrix(1 0 0 1.00161 390.869 249)">ｴﾙﾐｰﾄ</text><text font-family="Yu Gothic,Yu Gothic_MSFontService,sans-serif" font-weight="400" font-size="14.6944" transform="matrix(1 0 0 1.00161 427.546 249)">内積</text></g></svg>